<?xml version="1.0" encoding="UTF-8"?>
<svg version="1.1" xmlns="http://www.w3.org/2000/svg" width="512" height="512">
<path d="M0 0 C10.98241022 9.10547288 18.56276937 21.62769372 20 36 C20.81432572 47.97654651 18.53402804 58.42304466 12.20703125 68.66015625 C10.69436404 71.1536738 10.69436404 71.1536738 11 75 C12.16118986 76.73841738 12.16118986 76.73841738 13.84570312 78.29980469 C14.46634644 78.92014587 15.08698975 79.54048706 15.72644043 80.17962646 C16.40452759 80.83706848 17.08261475 81.4945105 17.78125 82.171875 C18.81336609 83.1955014 18.81336609 83.1955014 19.86633301 84.23980713 C22.06835746 86.41942309 24.28387457 88.58473174 26.5 90.75 C27.99439862 92.22433958 29.48790002 93.69958918 30.98046875 95.17578125 C34.64331439 98.79449998 38.31832256 102.40044646 42 106 C46.1769213 102.48759425 50.20905116 98.9137655 54.05859375 95.0390625 C54.93837891 94.15605469 55.81816406 93.27304688 56.72460938 92.36328125 C57.61986328 91.45964844 58.51511719 90.55601562 59.4375 89.625 C60.35982422 88.69816406 61.28214844 87.77132812 62.23242188 86.81640625 C64.49058625 84.54654154 66.74636942 82.27436462 69 80 C67.67691208 76.57360493 66.28043257 73.78878383 64.125 70.8125 C55.88513446 58.74482407 54.0216324 44.57013545 56.68359375 30.34765625 C61.07583924 15.02035976 70.13096021 3.73742338 84 -4 C97.85666215 -9.9316238 111.61087135 -10.68979008 126 -6 C140.11450251 -0.09688367 150.35134014 10.66030524 156.1875 24.69140625 C160.57486149 37.15741894 160.41320795 51.34610762 154.875 63.4609375 C154.318125 64.50121094 154.318125 64.50121094 153.75 65.5625 C151.8085678 68.64878395 151.8085678 68.64878395 152.1328125 70.94921875 C153.29608716 73.70020613 154.95482824 75.20488899 157.125 77.25 C160.6881464 80.628208 163.92507557 84.16904777 167.13476562 87.87646484 C170.22851178 91.39863815 173.46108145 94.78723573 176.6875 98.1875 C182.00980489 103.81891317 187.30606347 109.47113789 192.55029297 115.17529297 C195.83655037 118.74721485 199.14544869 122.2970527 202.46386719 125.83911133 C207.74296092 131.47446719 212.9981055 137.11431212 218 143 C218.928125 142.46375 219.85625 141.9275 220.8125 141.375 C221.44929688 141.0140625 222.08609375 140.653125 222.7421875 140.28125 C224.37774497 139.35311358 226.00720582 138.4142067 227.6328125 137.46875 C229.02113281 136.67984375 229.02113281 136.67984375 230.4375 135.875 C231.30246094 135.37742188 232.16742188 134.87984375 233.05859375 134.3671875 C245.02476823 128.80522061 260.83576748 129.25125059 273.0703125 133.671875 C286.29677524 139.66787144 296.35796647 149.02176012 302.0703125 162.53125 C307.08830223 177.14675406 306.16016722 192.03505068 299.875 206.0625 C293.70627015 217.71454526 283.5713507 226.21526183 271.40234375 230.95703125 C256.046405 235.66430524 241.31738857 234.33766164 227 227 C223.89873439 225.1277871 220.91874465 223.14483509 218 221 C217.154375 221.85722656 216.30875 222.71445312 215.4375 223.59765625 C214.2918054 224.75274179 213.14596412 225.90768185 212 227.0625 C211.44699219 227.62388672 210.89398438 228.18527344 210.32421875 228.76367188 C207.32982376 231.77527604 204.280884 234.6615952 201.0625 237.43359375 C196.83104274 241.08974811 192.91410291 245.00944977 189 249 C184.48024688 253.60802955 179.89067773 258.01017797 175 262.22265625 C171.51028722 265.32386585 168.2678338 268.66834132 165 272 C160.3617644 276.72882614 155.68219089 281.24226543 150.56640625 285.45703125 C148.7404064 287.02220979 148.7404064 287.02220979 148 290 C149.07621581 292.19757959 149.07621581 292.19757959 150.6875 294.5 C158.51795129 306.95588065 160.81401523 320.18235923 157.8125 334.5625 C154.11251687 348.98731902 145.47897036 359.87567034 133 368 C120.94765472 374.67482317 107.1515179 375.82019704 93.75 372.875 C80.49394426 369.03678547 69.50207905 361.09743153 62.5625 349.125 C55.41789197 335.98667534 53.53697451 321.55018865 57.625 307.0625 C60.66773345 298.46113335 65.17864539 291.98562554 71 285 C61.76 275.76 52.52 266.52 43 257 C39.76612666 258.61693667 38.27997412 259.47195593 35.88378906 261.88916016 C35.30348938 262.4696109 34.7231897 263.05006165 34.12530518 263.64810181 C33.51161072 264.27211884 32.89791626 264.89613586 32.265625 265.5390625 C31.62759949 266.17991791 30.98957397 266.82077332 30.33221436 267.48104858 C28.30005931 269.52437821 26.27497782 271.57455982 24.25 273.625 C22.8715547 275.0134786 21.49265364 276.4015049 20.11328125 277.7890625 C16.73688106 281.18748697 13.36680712 284.59207254 10 288 C11.27095583 291.24524967 12.66243902 294.21756719 14.375 297.25 C18.05303758 304.43145024 19.31929554 312.15671254 21 320 C31.89 320 42.78 320 54 320 C54 321.65 54 323.3 54 325 C51.14992869 326.42503565 48.71379745 326.12980035 45.53125 326.1328125 C44.23832031 326.13410156 42.94539063 326.13539063 41.61328125 326.13671875 C40.93861816 326.13462402 40.26395508 326.1325293 39.56884766 326.13037109 C37.50806311 326.12502093 35.44749651 326.13032035 33.38671875 326.13671875 C32.09378906 326.13542969 30.80085938 326.13414062 29.46875 326.1328125 C28.27701172 326.13168457 27.08527344 326.13055664 25.85742188 326.12939453 C23 326 23 326 21 325 C20.78085938 325.95519531 20.56171875 326.91039062 20.3359375 327.89453125 C16.55143603 343.6397748 9.49267407 357.01727622 -4.75390625 365.7578125 C-17.82761779 372.98814341 -30.92788019 374.89578237 -45.5625 371.4375 C-52.57338234 369.41692776 -58.19191408 366.37044089 -64 362 C-65.26263672 361.06220703 -65.26263672 361.06220703 -66.55078125 360.10546875 C-75.75368509 352.19420054 -81.89829911 340.0105316 -83.22314453 327.97241211 C-84.1196107 311.95438561 -80.26479969 298.17860104 -69.8125 285.8125 C-61.25727223 276.67653657 -49.00560119 270.51291485 -36.43359375 269.796875 C-19.86050752 269.6024693 -8.13908426 273.48873259 5 284 C15.56 273.44 26.12 262.88 37 252 C33.0785569 247.42498305 29.20779837 243.06749646 24.9453125 238.84765625 C24.39890106 238.30265976 23.85248962 237.75766327 23.28952026 237.19615173 C21.57037942 235.48253882 19.84776796 233.77246556 18.125 232.0625 C16.94768362 230.89020796 15.77059826 229.71768386 14.59375 228.54492188 C11.73182511 225.69393018 8.86678543 222.84610385 6 220 C2.79303085 221.56035287 -0.05120519 223.36525592 -3 225.375 C-15.32147858 233.22932897 -28.45260146 235.37040332 -42.765625 232.78515625 C-56.23546683 229.51530334 -66.79968582 222.13516347 -75 211 C-82.74199552 198.14245089 -84.90703784 184.98545149 -82.34765625 170.2421875 C-78.69766688 155.98686423 -70.67835453 144.91762832 -58.1875 137.1875 C-45.70938148 130.38971902 -30.40268309 128.38795879 -16.5 132.125 C-9.52332294 134.69535471 -2.85300639 138.42648803 3 143 C7.34922438 141.34264993 10.09135867 138.08846754 13.25 134.8125 C17.39139287 130.58804855 21.56409335 126.52842936 26.078125 122.69921875 C29.89828143 119.32164142 33.43314356 115.64116595 37 112 C35.70280076 109.14220983 34.3363174 107.08991464 32.11083984 104.88378906 C31.5303891 104.30348938 30.94993835 103.7231897 30.35189819 103.12530518 C29.72788116 102.51161072 29.10386414 101.89791626 28.4609375 101.265625 C27.82008209 100.62759949 27.17922668 99.98957397 26.51895142 99.33221436 C24.47562179 97.30005931 22.42544018 95.27497782 20.375 93.25 C18.9865214 91.8715547 17.5984951 90.49265364 16.2109375 89.11328125 C12.81251303 85.73688106 9.40792746 82.36680712 6 79 C3.07590827 80.42830195 0.47602493 82.00228484 -2.1875 83.875 C-14.00302396 91.7906288 -26.93235831 94.79778951 -41.078125 92.5 C-55.41894475 89.26412272 -66.82124596 82.11558719 -75.20703125 69.98046875 C-82.7738998 57.40199227 -85.0098815 43.73850971 -82.31640625 29.34765625 C-78.28498102 15.27948772 -70.39404283 4.0979584 -57.84765625 -3.4609375 C-39.038206 -13.62681322 -17.43142895 -12.50822807 0 0 Z M144.625 77.3203125 C144.08875 77.91585937 143.5525 78.51140625 143 79.125 C133.43570883 88.92740631 120.9518083 93.06094059 107.5 93.3125 C95.29185968 93.33766854 85.38181267 89.24157074 75 83 C74.154375 83.85722656 73.30875 84.71445313 72.4375 85.59765625 C67.03057185 91.05566846 61.65007407 96.45796904 55.7890625 101.43359375 C52.70636013 104.13264102 49.85548433 107.06420518 47 110 C48.65236651 114.29067546 51.8905207 117.1429553 55.1015625 120.296875 C55.69802582 120.89050842 56.29448914 121.48414185 56.9090271 122.09576416 C58.8096981 123.98526627 60.71721474 125.86768392 62.625 127.75 C63.91712468 129.03209065 65.20879676 130.31463761 66.5 131.59765625 C69.66144479 134.73708432 72.8290461 137.87017801 76 141 C76.9178125 140.51789063 77.835625 140.03578125 78.78125 139.5390625 C92.90069348 132.22468918 107.86058644 128.7372448 123.5625 133.625 C136.85118124 138.88471579 147.42759671 147.0730718 153.484375 160.22265625 C155.98776046 166.51793439 157.50998994 172.29495475 159 179 C173.19 179 187.38 179 202 179 C203.32 174.05 204.64 169.1 206 164 C207.92460547 159.8813443 209.82382118 155.96064545 212 152 C212.67046416 150.66857218 213.33779184 149.33555329 214 148 C209.23479636 142.47457801 204.33436172 137.10494942 199.3125 131.8125 C194.47257543 126.69148278 189.64528055 121.56100543 184.875 116.375 C180.60310552 111.73132072 176.30878956 107.10947107 172 102.5 C167.47214766 97.6523435 162.94639276 92.80280461 158.4375 87.9375 C157.96119141 87.42574219 157.48488281 86.91398437 156.99414062 86.38671875 C154.66309722 83.86667183 152.43007658 81.30672605 150.28515625 78.62890625 C149.15400391 77.32759766 149.15400391 77.32759766 148 76 C145.92272414 75.76912762 145.92272414 75.76912762 144.625 77.3203125 Z M40.588974 116.29077148 C39.98718826 116.89477783 39.38540253 117.49878418 38.76538086 118.12109375 C37.74443581 119.1421521 37.74443581 119.1421521 36.7028656 120.18383789 C35.96431839 120.92754639 35.22577118 121.67125488 34.46484375 122.4375 C33.71159317 123.19216553 32.95834259 123.94683105 32.18226624 124.72436523 C29.76499959 127.14725201 27.35122355 129.57358399 24.9375 132 C23.30426435 133.63824806 21.67080381 135.27627195 20.03710938 136.9140625 C16.0221216 140.94010598 12.00999817 144.96898712 8 149 C8.47123291 149.75313477 8.94246582 150.50626953 9.42797852 151.28222656 C13.30252872 157.65983138 16.21452428 163.49788331 17.9375 170.75 C18.618125 173.4725 19.29875 176.195 20 179 C31.88 179 43.76 179 56 179 C57.32 173.72 58.64 168.44 60 163 C63.02509135 155.80518814 66.58550419 150.58613689 72 145 C66.95241573 138.85397771 61.40441039 133.25128263 55.77563477 127.64526367 C54.17019485 126.04525338 52.57025692 124.4398769 50.97070312 122.83398438 C49.95344609 121.81738694 48.93587953 120.8010991 47.91796875 119.78515625 C46.53774536 118.40662476 46.53774536 118.40662476 45.12963867 117.00024414 C42.80412436 114.48314667 42.80412436 114.48314667 40.588974 116.29077148 Z M20 185 C18.68 189.95 17.36 194.9 16 200 C12.75 206.75 12.75 206.75 11.171875 209.609375 C9.77992139 212.00522687 9.77992139 212.00522687 10 215 C11.22547156 216.66219399 11.22547156 216.66219399 12.9375 218.27807617 C13.57816406 218.91851364 14.21882813 219.55895111 14.87890625 220.21879578 C15.57886719 220.90327286 16.27882813 221.58774994 17 222.29296875 C18.06541016 223.35201164 18.06541016 223.35201164 19.15234375 224.43244934 C21.42796996 226.69125019 23.71379365 228.93941307 26 231.1875 C27.54234842 232.71480664 29.08402406 234.242793 30.625 235.77148438 C34.40888829 239.52225221 38.20120662 243.26433217 42 247 C46.34086529 243.35767102 50.49769734 239.62361806 54.49609375 235.6015625 C54.97450211 235.1217392 55.45291046 234.64191589 55.94581604 234.14755249 C57.44544879 232.64240542 58.94153128 231.13378786 60.4375 229.625 C61.46525983 228.59221405 62.49325285 227.55966009 63.52148438 226.52734375 C66.01701598 224.02089713 68.50938082 221.5113292 71 219 C70.60385498 218.48775879 70.20770996 217.97551758 69.79956055 217.44775391 C61.87294266 207.06515418 58.83804444 198.2442074 56 185 C44.12 185 32.24 185 20 185 Z M159 185 C157.68 189.95 156.36 194.9 155 200 C149.02449829 213.85229941 141.06346692 223.17896607 127.05078125 229.28515625 C112.2005946 234.70110667 98.03747286 233.61806847 83.65625 227.31640625 C81 226 81 226 78.40625 224.21484375 C76.14927066 222.72257431 76.14927066 222.72257431 74.21582031 223.57006836 C71.14138433 225.55408902 68.68886664 228.06583143 66.140625 230.6640625 C65.59138367 231.21613373 65.04214233 231.76820496 64.47625732 232.33700562 C62.72940707 234.09501815 60.98965399 235.8598689 59.25 237.625 C58.06426409 238.8207708 56.8780712 240.01608865 55.69140625 241.2109375 C52.78894915 244.13540253 49.8928359 247.06601874 47 250 C48.65236651 254.29067546 51.8905207 257.1429553 55.1015625 260.296875 C55.69802582 260.89050842 56.29448914 261.48414185 56.9090271 262.09576416 C58.8096981 263.98526627 60.71721474 265.86768392 62.625 267.75 C63.91712468 269.03209065 65.20879676 270.31463761 66.5 271.59765625 C69.66144479 274.73708432 72.8290461 277.87017801 76 281 C76.86810303 280.58862793 77.73620605 280.17725586 78.63061523 279.75341797 C79.78247314 279.21346191 80.93433105 278.67350586 82.12109375 278.1171875 C83.82543579 277.31450439 83.82543579 277.31450439 85.56420898 276.49560547 C98.83887477 270.71712166 112.2886319 270.46315026 126 275 C130.63811681 277.12193844 135.20085283 279.36633212 138.99609375 282.8125 C139.65738281 283.204375 140.31867188 283.59625 141 284 C145.41098782 282.80128098 147.87322224 280.46682708 151.01953125 277.23828125 C151.48179611 276.76939987 151.94406097 276.30051849 152.42033386 275.81742859 C153.89171783 274.32276878 155.35256495 272.81833736 156.8125 271.3125 C162.41927787 265.56876554 168.00077521 259.87517616 174.11206055 254.66088867 C177.57629849 251.61327316 180.77061367 248.29246028 184 245 C188.5288217 240.38272475 193.12658287 235.96663753 198.02734375 231.74560547 C201.32628623 228.82636801 204.40791059 225.69771941 207.5 222.5625 C208.13164062 221.92634766 208.76328125 221.29019531 209.4140625 220.63476562 C210.94505774 219.09217194 212.47287667 217.54642686 214 216 C212.83130652 213.64261096 211.63149674 211.31893493 210.37890625 209.00390625 C209.77949219 207.86824219 209.18007813 206.73257813 208.5625 205.5625 C207.96566406 204.45003906 207.36882812 203.33757812 206.75390625 202.19140625 C205 198 205 198 202 185 C187.81 185 173.62 185 159 185 Z " fill="#020303" transform="translate(145,74)"/>
<path d="M0 0 C2.01361047 1.42407433 3.83953864 2.93790362 5.6796875 4.578125 C6.27136719 5.05507812 6.86304688 5.53203125 7.47265625 6.0234375 C13.65595647 11.45600591 20.11384299 22.17822842 20.85668945 30.58007812 C21.40151115 50.84484055 21.40151115 50.84484055 16.6796875 59.578125 C16.17050781 60.52042969 15.66132813 61.46273437 15.13671875 62.43359375 C9.26236572 72.39445323 2.19904716 77.99628319 -8.3203125 82.578125 C-9.52107422 83.10986328 -9.52107422 83.10986328 -10.74609375 83.65234375 C-21.83218808 87.63930029 -33.74418157 86.25770074 -44.3203125 81.578125 C-56.42111609 75.562396 -64.69544424 66.64899855 -69.1328125 53.765625 C-73.14717865 40.79800585 -72.04202426 28.70350576 -65.8125 16.6640625 C-59.32182351 5.70538545 -49.82122378 -2.36203363 -37.42089844 -5.9753418 C-24.52527066 -8.71663692 -11.18451275 -6.85380916 0 0 Z " fill="#FAFAFA" transform="translate(277.3203125,77.421875)"/>
<path d="M0 0 C6.886373 4.62262055 11.65058604 10.18432259 15.890625 17.2734375 C16.41914063 18.15386719 16.94765625 19.03429687 17.4921875 19.94140625 C22.45801684 29.7759677 22.86238417 42.56821808 19.96875 53.16796875 C17.64055274 59.66122021 14.47935749 65.13950907 9.890625 70.2734375 C9.39046875 70.87671875 8.8903125 71.48 8.375 72.1015625 C2.21210176 78.9824683 -8.02753593 84.56390889 -17.29516602 85.49243164 C-27.07451987 85.96430738 -36.42953803 86.32095139 -45.109375 81.2734375 C-45.9446875 80.84933594 -46.78 80.42523438 -47.640625 79.98828125 C-59.06561812 73.81121419 -65.65985361 64.07472184 -69.921875 51.96484375 C-73.37693761 38.88839153 -70.83044642 26.55671305 -64.296875 14.9609375 C-50.02211809 -7.28774845 -22.61568434 -12.55795537 0 0 Z " fill="#2DB9D9" transform="translate(138.109375,355.7265625)"/>
<path d="M0 0 C2.01361047 1.42407433 3.83953864 2.93790362 5.6796875 4.578125 C6.27136719 5.05507813 6.86304688 5.53203125 7.47265625 6.0234375 C13.67951051 11.47670018 20.04886939 22.13419825 20.87255859 30.54833984 C21.47063448 47.18209876 19.10094837 59.69477322 7.6796875 72.578125 C-2.35393579 81.92985156 -15.44932408 86.29654352 -29.0546875 85.92578125 C-40.61969255 84.69457856 -51.77919809 79.0495279 -59.7265625 70.55859375 C-69.01139715 59.02082128 -72.48862859 46.26552727 -71.3203125 31.578125 C-68.71626029 19.02847577 -61.81771282 7.97475477 -51.3203125 0.578125 C-35.09078058 -8.78349417 -16.3641045 -10.02783508 0 0 Z " fill="#FAFAFA" transform="translate(277.3203125,357.421875)"/>
<path d="M0 0 C8.69268192 7.21181618 15.29420083 17.25366218 16.79638672 28.60131836 C16.95258795 31.0648563 16.99945779 33.49650827 16.98046875 35.96484375 C16.97474854 36.83665283 16.96902832 37.70846191 16.96313477 38.60668945 C16.60931631 51.50498044 11.46551591 61.02606604 2.60546875 70.14453125 C-7.97094703 80.08124446 -20.24667767 82.86111794 -34.3203125 82.52734375 C-46.34302327 81.88052676 -56.54487922 74.98410066 -64.66796875 66.47265625 C-73.18549591 56.08630456 -76.77672615 43.50269535 -75.51953125 30.21484375 C-73.24962983 16.57651936 -66.20440615 5.54496788 -55.0703125 -2.5703125 C-37.44484342 -13.83179746 -16.79265378 -11.89805082 0 0 Z " fill="#FAFAFA" transform="translate(281.51953125,219.78515625)"/>
<path d="M0 0 C9.21908523 6.75811227 16.42757734 16.75474127 18.82421875 28.0703125 C19.06407075 31.12987919 19.05520662 34.18972967 19.07421875 37.2578125 C19.09484375 38.07056641 19.11546875 38.88332031 19.13671875 39.72070312 C19.2163899 52.23903209 13.74502224 62.76486572 5.3046875 71.7421875 C-4.47906105 80.92504441 -16.74714217 84.70623031 -29.94946289 84.54296875 C-41.35437819 84.07027939 -50.56710206 79.16911176 -58.92578125 71.5703125 C-60.03953125 70.3328125 -60.03953125 70.3328125 -61.17578125 69.0703125 C-62.02140625 68.1421875 -62.86703125 67.2140625 -63.73828125 66.2578125 C-71.67426521 56.48087928 -74.27679751 44.41954895 -73.17578125 32.0703125 C-70.65563858 18.08169448 -63.75315899 7.81076104 -52.42578125 -0.8046875 C-36.07993214 -11.49138638 -16.19013895 -10.1161914 0 0 Z " fill="#2DB9DA" transform="translate(140.17578125,217.9296875)"/>
<path d="M0 0 C9.55589977 7.59522711 17.4053205 17.88715394 18.9375 30.3125 C20.11056361 45.0389601 16.3122167 57.26637634 6.97265625 68.72265625 C-1.18972287 77.56400362 -12.07691689 82.87742948 -24.10546875 83.68359375 C-37.77482889 84.08668973 -48.89109881 80.88558348 -59.0625 71.3125 C-67.63530132 62.98265256 -73.20029264 52.38527383 -73.49389648 40.33325195 C-73.52669371 26.45215268 -70.7898983 15.69247009 -61.0625 5.3125 C-60.47855469 4.68730469 -59.89460938 4.06210938 -59.29296875 3.41796875 C-43.10690361 -12.22288156 -17.9970975 -12.68935976 0 0 Z " fill="#2DB9DA" transform="translate(426.0625,218.6875)"/>
<path d="M0 0 C8.04352728 6.31737209 14.13949248 15.65803308 16.140625 25.69921875 C17.68372159 40.5561662 15.71006328 53.79305717 6.140625 65.69921875 C-0.67591997 73.99828584 -11.11659732 80.74387555 -22.01318359 81.93457031 C-32.84585085 82.55104554 -42.26745909 82.29204356 -51.859375 76.69921875 C-52.67664063 76.24160156 -53.49390625 75.78398437 -54.3359375 75.3125 C-63.39394815 69.78378113 -68.72643717 62.34274036 -72.859375 52.69921875 C-73.18035156 51.99152344 -73.50132813 51.28382813 -73.83203125 50.5546875 C-78.24017585 39.5035715 -76.43362534 27.05315288 -71.86328125 16.37109375 C-65.53086049 3.83772117 -55.08925673 -4.6211474 -41.921875 -9.23828125 C-26.96548548 -13.06100061 -12.37250455 -8.65555465 0 0 Z " fill="#2DB9D9" transform="translate(142.859375,79.30078125)"/>
<path d="M0 0 C6.65602488 5.08416233 10.38467953 11.15403859 13 19 C13.90782543 29.6111399 12.56306005 37.95597784 5.75 46.3125 C-1.23360306 53.68325376 -8.82900794 56.88839726 -18.875 57.375 C-27.29957266 57.1553409 -34.15831365 53.71440783 -40.2421875 48 C-47.07396817 40.22695178 -48.37152353 32.6905172 -48.27734375 22.61328125 C-47.64344015 14.35467804 -44.13342987 7.53987214 -38 2 C-26.3278981 -7.10520812 -12.73385474 -7.24391461 0 0 Z " fill="#2BBBD9" transform="translate(270,230)"/>
<path d="M0 0 C8.26367096 4.82287417 13.28223546 11.13706352 16.2421875 20.30859375 C17.63567998 30.00944527 16.25800989 38.40970439 10.734375 46.5234375 C6.02946026 52.39911009 -0.23433094 56.94437178 -7.7578125 58.30859375 C-18.35177565 59.18103777 -26.15855023 58.41686356 -34.74609375 51.76953125 C-41.37715246 45.77743966 -44.89692653 38.96057377 -45.34960938 30.04589844 C-45.49828107 20.02805001 -43.32007455 12.93906791 -36.4453125 5.43359375 C-26.62628213 -3.67640379 -12.13163515 -5.74761075 0 0 Z " fill="#2BBCDA" transform="translate(266.7578125,367.69140625)"/>
<path d="M0 0 C7.98885732 4.58964873 13.2504589 11.47403294 16.17578125 20.25 C17.08599192 31.72462303 15.82826903 40.16332681 8.42578125 49.125 C2.90468756 54.95511013 -3.17570437 57.86718117 -11.14453125 58.5234375 C-21.96515776 58.81228379 -29.04232933 56.9411174 -37.19921875 49.5625 C-43.82342106 42.33487845 -45.46320095 34.79536418 -45.36547852 25.15454102 C-44.98791578 17.0604799 -41.98841552 11.40218455 -36.69921875 5.4375 C-26.49640144 -3.82183098 -12.50793261 -5.89571946 0 0 Z " fill="#2BBCDA" transform="translate(266.82421875,88.75)"/>
<path d="M0 0 C5.43415235 5.02522784 9.55964974 9.71426545 10.3359375 17.26953125 C10.41509895 24.44947484 10.29507972 30.07438076 6 36 C5.40703125 36.82757813 4.8140625 37.65515625 4.203125 38.5078125 C-0.2520674 43.54755142 -6.52618573 46.37873851 -13.1015625 47.5546875 C-21.36964819 47.91788506 -27.9507367 45.65861081 -34.10546875 40.09765625 C-40.72126327 32.99079245 -41.53541326 26.24135768 -41.3671875 16.69921875 C-40.61748779 9.146393 -37.34091581 4.84041937 -31.625 0.0625 C-21.55950992 -7.10107778 -10.04760253 -7.08568713 0 0 Z " fill="#3DAEE9" transform="translate(129,235)"/>
<path d="M0 0 C3.88418575 2.68774313 6.37408998 5.7615068 8.67578125 9.8515625 C9.04574219 10.44453125 9.41570312 11.0375 9.796875 11.6484375 C12.16285353 17.57915702 11.56671789 25.80089997 9.80078125 31.84765625 C6.59907277 38.76713806 1.95213056 43.59138553 -5.01171875 46.7265625 C-11.69941235 48.89519324 -19.34956503 49.16824472 -25.76171875 46.1015625 C-33.36489882 41.59947244 -37.87807925 36.46029378 -40.32421875 27.8515625 C-41.29475016 18.75565186 -40.51134896 12.12344148 -34.81640625 4.953125 C-24.9817278 -5.88789264 -12.56270475 -6.87608483 0 0 Z " fill="#2BBCDA" transform="translate(413.32421875,234.1484375)"/>
<path d="M0 0 C6.66091747 3.48905201 10.74062651 7.54572066 14.0625 14.3125 C16.38593208 21.82493038 15.72026684 29.82479605 12.52734375 36.94921875 C8.63108615 43.23518101 3.20804145 47.47759553 -3.9375 49.3125 C-12.39742873 50.29009176 -19.7312094 50.23933813 -26.84765625 45.21875 C-33.237655 39.39011563 -36.45445722 32.52936206 -37.25 23.9375 C-36.49566158 15.18717429 -33.33129683 9.31262357 -26.9375 3.3125 C-19.31577423 -2.8061012 -9.03810379 -3.81848337 0 0 Z " fill="#2BBCDA" transform="translate(123.9375,92.6875)"/>
<path d="M0 0 C6.99827869 3.64867522 12.31144824 9.33845266 14.75 16.90234375 C16.48924975 25.09550372 15.60345318 32.92574715 11.22265625 40.12890625 C6.3639964 45.72532357 0.69866848 49.72147437 -6.82421875 50.40625 C-15.9376513 50.66873366 -22.16104141 49.77708155 -29.02734375 43.62890625 C-34.15724868 38.14556299 -36.32496002 31.87722862 -37.21484375 24.50390625 C-36.00963314 15.20656725 -32.46856758 8.69773095 -25.09375 2.77734375 C-18.04914 -2.10645072 -8.10212695 -2.54117343 0 0 Z " fill="#3DAFEA" transform="translate(123.77734375,370.87109375)"/>
<path d="M0 0 C8.26367096 4.82287417 13.28223546 11.13706352 16.2421875 20.30859375 C17.63567998 30.00944527 16.25800989 38.40970439 10.734375 46.5234375 C6.02946026 52.39911009 -0.23433094 56.94437178 -7.7578125 58.30859375 C-18.35177565 59.18103777 -26.15855023 58.41686356 -34.74609375 51.76953125 C-41.37715246 45.77743966 -44.89692653 38.96057377 -45.34960938 30.04589844 C-45.49828107 20.02805001 -43.32007455 12.93906791 -36.4453125 5.43359375 C-26.62628213 -3.67640379 -12.13163515 -5.74761075 0 0 Z M-36.7578125 13.30859375 C-40.66657833 19.82320347 -41.89901857 26.44574752 -40.14453125 33.921875 C-37.70221503 41.70070595 -33.86739037 47.097479 -26.91796875 51.46484375 C-20.23025478 54.51885267 -11.84659686 54.57056423 -4.91015625 52.4296875 C2.12751284 49.21337719 6.97021416 44.6501604 10.1171875 37.55859375 C12.35800084 30.67609565 12.2686684 22.87498954 9.34375 16.21875 C6.11977835 10.62824598 1.73913816 5.55725966 -4.2578125 2.93359375 C-17.70951731 -0.42933245 -28.16415438 2.82296316 -36.7578125 13.30859375 Z " fill="#070C0D" transform="translate(266.7578125,367.69140625)"/>
<path d="M0 0 C5.99421794 4.00372811 10.13143533 9.80033734 12.44921875 16.640625 C14.19937655 26.91329034 13.190381 36.31354049 7.30078125 44.96484375 C2.57085497 50.87175168 -3.65426205 55.32367586 -11.19140625 56.75 C-21.90640487 57.92567346 -29.81891631 55.68465376 -38.35546875 49.07421875 C-45.24906561 42.69397484 -48.25431628 35.0125883 -48.62890625 25.75 C-48.53335087 17.23601558 -45.66846064 10.79662902 -40.140625 4.36328125 C-28.13953819 -7.16884657 -14.17049696 -8.08299292 0 0 Z M-39.59765625 11.46875 C-44.01320161 17.78904042 -43.91790098 24.27242008 -43.19140625 31.75 C-40.84949638 40.00704306 -36.34326333 45.33735732 -29.09375 49.734375 C-23.27076981 52.84315293 -15.93140849 52.75537695 -9.6484375 51.06640625 C-2.94167829 48.28442868 2.75922653 44.2985607 6.24609375 37.8125 C9.04389621 30.57975304 9.43287355 21.95909716 6.6328125 14.703125 C2.21171371 6.98048215 -3.69063257 2.34636033 -12.19140625 -0.25 C-24.00120397 -2.12922329 -32.07473385 2.71256163 -39.59765625 11.46875 Z " fill="#020B0C" transform="translate(416.19140625,230.25)"/>
<path d="M0 0 C8.30916023 -0.50198424 15.67471067 2.00327935 22.29296875 7.05859375 C27.93435723 12.37492081 32.45712281 19.11390318 33.1328125 27.01171875 C33.30639123 34.67659008 32.45328751 40.41904617 28.89453125 47.2265625 C28.33765625 48.2990625 27.78078125 49.3715625 27.20703125 50.4765625 C21.68532601 57.04291468 13.61639837 61.58374525 5.078125 62.54296875 C-4.08085489 62.90558481 -11.24968579 60.80048619 -18.41796875 55.0390625 C-25.5510658 48.33914948 -28.21376462 40.80340987 -28.54296875 31.2265625 C-28.61941583 22.6487816 -26.06515371 15.79542976 -20.4296875 9.29296875 C-14.62351766 3.94061448 -7.78474841 0.83769092 0 0 Z M-20.4921875 16.93359375 C-24.79693322 23.86650002 -24.24602639 33.25800826 -22.48046875 40.94921875 C-19.7313436 48.10430787 -14.27908164 52.33460097 -7.85546875 56.1640625 C1.41159195 58.7897297 8.84469396 57.73010461 17.25390625 53.07421875 C22.62982012 49.31266955 25.86942198 44.42845962 27.89453125 38.2265625 C28.86354196 28.79560941 28.30488605 21.76807047 22.38671875 14.33203125 C17.70881787 9.1645826 12.3835232 5.84865902 5.4140625 4.8828125 C-5.57896409 4.47376965 -13.59237202 8.44001807 -20.4921875 16.93359375 Z " fill="#020A0D" transform="translate(111.10546875,224.7734375)"/>
<path d="M0 0 C8.26367096 4.82287417 13.28223546 11.13706352 16.2421875 20.30859375 C17.63567998 30.00944527 16.25800989 38.40970439 10.734375 46.5234375 C6.02547112 52.40409188 -0.23132074 56.93382865 -7.7578125 58.30859375 C-18.63846114 59.06601507 -26.50913363 58.33041222 -35.0078125 51.24609375 C-42.28717754 44.15948448 -45.20362246 37.90259974 -45.3828125 27.80859375 C-45.24991403 18.64959126 -42.66806809 12.22724435 -36.4453125 5.43359375 C-26.62628213 -3.67640379 -12.13163515 -5.74761075 0 0 Z M-36.7578125 13.30859375 C-40.66657833 19.82320347 -41.89901857 26.44574752 -40.14453125 33.921875 C-37.70221503 41.70070595 -33.86739037 47.097479 -26.91796875 51.46484375 C-20.23025478 54.51885267 -11.84659686 54.57056423 -4.91015625 52.4296875 C2.12751284 49.21337719 6.97021416 44.6501604 10.1171875 37.55859375 C12.35800084 30.67609565 12.2686684 22.87498954 9.34375 16.21875 C6.11977835 10.62824598 1.73913816 5.55725966 -4.2578125 2.93359375 C-17.70951731 -0.42933245 -28.16415438 2.82296316 -36.7578125 13.30859375 Z " fill="#02090C" transform="translate(127.7578125,367.69140625)"/>
<path d="M0 0 C6.86693936 4.38606905 11.44082942 11.32248826 14 19 C14.90423174 30.39924936 13.65614609 38.85108943 6.375 47.8125 C-0.41493813 54.81345997 -6.8458672 57.46292255 -16.5 57.625 C-25.65926469 57.49108385 -32.0808687 54.9106959 -38.875 48.6875 C-46.05170063 40.95223541 -47.56061658 32.30841188 -47.33203125 22.08984375 C-46.89285203 14.20811305 -43.34951809 8.9793553 -37.75 3.625 C-26.58552253 -5.43124281 -12.84463907 -7.37932586 0 0 Z M-37.52734375 10.203125 C-42.36063151 16.10050529 -43.60086493 22.54927486 -43 30 C-40.34980422 39.5571827 -36.78881967 45.81958474 -28.046875 50.82421875 C-20.82982746 53.60925889 -12.21452533 53.23781987 -5 50.5 C1.44731267 47.04521359 6.35871705 41.1788076 8.56640625 34.19921875 C10.20417542 25.89233548 9.42138264 18.20135429 4.74609375 11.09375 C0.513602 5.65032737 -4.56348393 3.14550536 -11 1 C-22.52563101 0.03821684 -29.59365186 1.74533957 -37.52734375 10.203125 Z " fill="#020A0C" transform="translate(130,90)"/>
<path d="M0 0 C7.98885732 4.58964873 13.2504589 11.47403294 16.17578125 20.25 C17.08599192 31.72462303 15.82826903 40.16332681 8.42578125 49.125 C2.90468756 54.95511013 -3.17570437 57.86718117 -11.14453125 58.5234375 C-21.96515776 58.81228379 -29.04232933 56.9411174 -37.19921875 49.5625 C-43.82342106 42.33487845 -45.46320095 34.79536418 -45.36547852 25.15454102 C-44.98791578 17.0604799 -41.98841552 11.40218455 -36.69921875 5.4375 C-26.49640144 -3.82183098 -12.50793261 -5.89571946 0 0 Z M-35.3515625 11.453125 C-40.18485026 17.35050529 -41.42508368 23.79927486 -40.82421875 31.25 C-38.17402297 40.8071827 -34.61303842 47.06958474 -25.87109375 52.07421875 C-18.65404621 54.85925889 -10.03874408 54.48781987 -2.82421875 51.75 C3.62309392 48.29521359 8.5344983 42.4288076 10.7421875 35.44921875 C12.18425447 28.13495116 11.87851537 20.82026505 8.17578125 14.25 C4.40170399 8.6689403 -0.13090994 4.75065024 -6.64453125 2.66796875 C-18.56908441 0.38136089 -27.15314113 2.71312226 -35.3515625 11.453125 Z " fill="#070C0C" transform="translate(266.82421875,88.75)"/>
<path d="M0 0 C6.65602488 5.08416233 10.38467953 11.15403859 13 19 C13.90782543 29.6111399 12.56306005 37.95597784 5.75 46.3125 C-1.23360306 53.68325376 -8.82900794 56.88839726 -18.875 57.375 C-27.29957266 57.1553409 -34.15831365 53.71440783 -40.2421875 48 C-47.07396817 40.22695178 -48.37152353 32.6905172 -48.27734375 22.61328125 C-47.64344015 14.35467804 -44.13342987 7.53987214 -38 2 C-26.3278981 -7.10520812 -12.73385474 -7.24391461 0 0 Z M-39 10 C-43.178338 16.6224629 -45.35512127 23.18588952 -44 31 C-41.56685493 39.27813042 -36.87103091 45.64890539 -29.375 49.9375 C-22.43607846 53.05378213 -15.99875757 53.33453681 -8.78125 50.92578125 C-1.0610735 47.43832528 3.45460371 43.24987985 7.125 35.6796875 C9.2297628 29.23385141 9.28443309 20.79398445 6.4375 14.5625 C2.05847564 7.41213504 -3.84285359 2.2428815 -12 0 C-22.60799459 -1.47008429 -32.07994099 1.74106001 -39 10 Z " fill="#080B0B" transform="translate(270,230)"/>
<path d="M0 0 C21.95972408 0.03339519 38.51566766 4.05013205 54.90649414 19.40356445 C68.33424883 33.32289398 71.26604244 50.53502936 70.93383789 69.13012695 C70.91874756 70.6170924 70.90506693 72.10407285 70.89282227 73.59106445 C70.86019828 77.18773709 70.8086626 80.78383168 70.74633789 84.38012695 C68.87133789 85.00512695 68.87133789 85.00512695 66.74633789 85.38012695 C63.94230176 82.57609082 64.49230504 80.78426845 64.47290039 76.8605957 C64.45256507 75.51358288 64.43171361 74.16657778 64.41040039 72.81958008 C64.38807493 70.71152287 64.37144011 68.6037743 64.36547852 66.49560547 C64.28589759 49.7816221 60.23078201 35.0642193 48.55883789 22.56762695 C37.84303394 12.50901029 25.00567955 7.56733186 10.47290039 7.0637207 C9.31918945 7.02182617 8.16547852 6.97993164 6.97680664 6.93676758 C5.78700195 6.89745117 4.59719727 6.85813477 3.37133789 6.81762695 C2.15833008 6.77444336 0.94532227 6.73125977 -0.30444336 6.68676758 C-3.28741243 6.58107182 -6.27045953 6.47897375 -9.25366211 6.38012695 C-9.87866211 4.50512695 -9.87866211 4.50512695 -10.25366211 2.38012695 C-7.20525445 -0.66828071 -4.17159208 0.05848177 0 0 Z " fill="#000000" transform="translate(323.253662109375,110.619873046875)"/>
<path d="M0 0 C1.65 0.33 3.3 0.66 5 1 C5.07517053 5.3375321 5.12907363 9.67470103 5.16479492 14.01269531 C5.17971429 15.48281473 5.20005727 16.952891 5.22631836 18.42285156 C5.5504065 37.05474213 1.30786468 51.8986398 -11.171875 66.171875 C-26.04226609 81.04226609 -44.36284972 85.05969538 -64.75 85.25 C-65.52496826 85.25942627 -66.29993652 85.26885254 -67.09838867 85.27856445 C-70.92528009 85.25604083 -72.74287967 85.17141355 -76 83 C-75.67 81.68 -75.34 80.36 -75 79 C-74.35675781 78.9906543 -73.71351563 78.98130859 -73.05078125 78.97167969 C-51.5430212 78.58049004 -32.6570703 76.99110471 -16.2890625 61.48046875 C-9.70966371 54.35091545 -5.78121156 46.22584696 -3 37 C-2.82581543 36.43676025 -2.65163086 35.87352051 -2.47216797 35.29321289 C-1.82543332 32.15216916 -1.79550581 29.10380908 -1.71875 25.8984375 C-1.70034058 25.22076324 -1.68193115 24.54308899 -1.66296387 23.84487915 C-1.58453618 20.95533489 -1.51640568 18.06557183 -1.44775391 15.17578125 C-1.3960572 13.06238205 -1.33882014 10.94918353 -1.28125 8.8359375 C-1.25095703 7.57313965 -1.22066406 6.3103418 -1.18945312 5.00927734 C-1 2 -1 2 0 0 Z " fill="#000000" transform="translate(389,315)"/>
</svg>
