<?xml version="1.0" encoding="UTF-8"?>
<svg version="1.1" xmlns="http://www.w3.org/2000/svg" width="512" height="512">
<path d="M0 0 C1.43836852 -0.00505258 2.87673072 -0.0122869 4.31507862 -0.02149814 C8.24500202 -0.04034612 12.17429921 -0.02822941 16.10420632 -0.01077521 C20.35101806 0.00263566 24.5977404 -0.01285148 28.84454346 -0.02459717 C37.15451905 -0.0429495 45.46425908 -0.03447798 53.77422728 -0.01650894 C60.5283233 -0.00246934 67.28235548 0.00140693 74.03646469 -0.00195122 C74.99862572 -0.00242866 75.96078675 -0.0029061 76.95210417 -0.00339801 C78.906839 -0.00442436 80.86157381 -0.00547972 82.8163086 -0.00656378 C100.08973417 -0.01512573 117.36304616 0.0015288 134.63644409 0.03126526 C151.39235198 0.06011039 168.14809631 0.06718129 184.90402222 0.05177307 C203.15950302 0.03500885 221.41490623 0.03097827 239.67038906 0.04848343 C241.61722302 0.05032779 243.56405698 0.05216252 245.51089096 0.0539875 C246.94764316 0.05535564 246.94764316 0.05535564 248.41342065 0.05675141 C255.15945812 0.06235474 261.90545767 0.05905161 268.65149307 0.05244255 C276.87241662 0.04470811 285.09317923 0.05146624 293.31407036 0.07661759 C297.50751306 0.08910901 301.70070524 0.09526347 305.89415741 0.08407593 C309.73460802 0.07402362 313.57455935 0.08251383 317.41494928 0.10565711 C318.8023929 0.1108096 320.18988137 0.10926676 321.57730533 0.10026246 C330.94905153 0.04451104 337.04467449 0.76405409 344.38986206 6.94068909 C350.06849258 13.72349776 351.79280048 19.48159203 351.77128983 28.2195549 C351.77334246 28.99167191 351.77539509 29.76378891 351.77750993 30.5593034 C351.78319093 33.16185067 351.78172132 35.76434519 351.78030396 38.36689758 C351.78288696 40.24555785 351.78589993 42.12421757 351.78930736 44.00287652 C351.79738819 49.17751462 351.79916753 54.35213885 351.79990482 59.52678251 C351.80175349 65.10292656 351.80929986 70.67906337 351.81604004 76.25520325 C351.82963138 88.45346064 351.83564927 100.65171474 351.8400507 112.84997845 C351.84281165 120.46371467 351.84704873 128.07744963 351.85155487 135.691185 C351.86374837 156.76321201 351.87408305 177.83523818 351.87742996 198.90726852 C351.87765159 200.26997332 351.87787338 201.63267812 351.87809531 202.99538292 C351.87831595 204.36138313 351.87853644 205.72738334 351.87875676 207.09338355 C351.87919932 209.83382654 351.87964643 212.57426953 351.88009644 215.31471252 C351.88026052 216.3339185 351.88026052 216.3339185 351.88042792 217.3737145 C351.88405894 239.40790433 351.89998075 261.44206127 351.9232868 283.4762385 C351.94788068 306.77053923 351.96159586 330.06481859 351.96279788 353.35913491 C351.96371536 366.05786453 351.96948618 378.75655109 351.98761749 391.45526886 C352.00300053 402.26741363 352.00814954 413.07950202 351.99987939 423.89165565 C351.99596659 429.40954308 351.99693328 434.92731691 352.01093674 440.44519043 C352.02363766 445.49593697 352.02251165 450.54648411 352.01034603 455.59723023 C352.00838242 457.42496824 352.01149795 459.25272019 352.02019039 461.08043858 C352.03125921 463.56502073 352.02381119 466.04889617 352.01179886 468.53345871 C352.02319165 469.59759174 352.02319165 469.59759174 352.0348146 470.68322241 C351.95676419 478.16238315 349.38323541 484.8592215 344.63986206 490.62818909 C338.88081315 494.94164678 334.20519774 496.79171192 326.95236206 496.94068909 C325.77286987 496.9780719 324.59337769 497.01545471 323.37814331 497.05397034 C314.64527292 496.05931739 309.2195861 490.83609716 303.13986206 484.87818909 C302.07831909 483.86111877 302.07831909 483.86111877 300.99533081 482.82350159 C296.75633937 478.74725022 292.59480244 474.59664134 288.46334839 470.41163635 C286.64427815 468.63250821 284.763999 466.96530003 282.82736206 465.31568909 C279.43790601 462.40568458 276.27534753 459.30658967 273.13986206 456.12818909 C270.06596351 453.0123904 266.97284015 449.96941631 263.63986206 447.12818909 C260.30688305 444.28696108 257.21377405 441.24397286 254.13986206 438.12818909 C251.08648255 435.03327407 248.01662521 432.00884632 244.70236206 429.19068909 C240.59559671 425.69108412 236.852614 421.868369 233.06417847 418.03297424 C229.73419877 414.67774352 226.30063717 411.53101034 222.69845581 408.46803284 C219.56833044 405.67052041 216.65300548 402.66194403 213.70602417 399.67481995 C211.10064836 397.04778907 208.45524001 394.5281834 205.63986206 392.12818909 C201.78864137 388.84518129 198.25697346 385.27414397 194.70626831 381.67506409 C192.10080974 379.0479535 189.45532781 376.52825825 186.63986206 374.12818909 C183.30688512 371.28696285 180.21374379 368.24400645 177.13986206 365.12818909 C173.32062922 361.26652033 169.4390874 357.57668514 165.29611206 354.06568909 C163.6670949 352.65182514 162.14614489 351.17121052 160.63986206 349.62818909 C157.63304406 350.96818406 155.64223597 352.426642 153.38986206 354.81568909 C150.97944177 357.30271172 148.52810992 359.63459715 145.88986206 361.87818909 C142.48147704 364.8109855 139.29587392 367.92892197 136.13986206 371.12818909 C133.08649586 374.22311889 130.01662427 377.24753265 126.70236206 380.06568909 C123.16307132 383.08171713 119.90491461 386.32266486 116.63986206 389.62818909 C112.78864269 393.52714592 108.87564477 397.23643206 104.69845581 400.78834534 C101.56833044 403.58585776 98.65300548 406.59443414 95.70602417 409.58155823 C92.50600435 412.80817561 89.18913934 415.8074937 85.73361206 418.75318909 C83.10000679 421.11164157 80.62159692 423.61264312 78.13986206 426.12818909 C74.47138625 429.84664414 70.70836977 433.36487104 66.73361206 436.75318909 C64.10000679 439.11164157 61.62159692 441.61264312 59.13986206 444.12818909 C55.47138625 447.84664414 51.70836977 451.36487104 47.73361206 454.75318909 C45.10000679 457.11164157 42.62159692 459.61264312 40.13986206 462.12818909 C36.46803213 465.85004395 32.70258424 469.37214454 28.72189331 472.76100159 C26.14512224 475.07187696 23.74887515 477.53030019 21.32736206 480.00318909 C4.59673943 496.87342748 4.59673943 496.87342748 -7.17263794 497.00318909 C-14.72786653 496.8535026 -19.01911011 495.71863983 -24.54763794 490.60475159 C-30.93428337 483.92158333 -32.6716477 477.89002748 -32.61461353 468.66767979 C-32.61782001 467.89210125 -32.62102649 467.11652271 -32.62433013 466.31744179 C-32.63262503 463.72112446 -32.62670765 461.12503811 -32.62083435 458.52871704 C-32.62385526 456.64746669 -32.62774444 454.76621756 -32.63242692 452.88497061 C-32.64272334 447.71709216 -32.6405209 442.54928296 -32.63624632 437.3813988 C-32.63378211 431.80734863 -32.64278944 426.23331527 -32.65028381 420.65927124 C-32.66304103 409.7400783 -32.66482325 398.82090995 -32.66248355 387.90171082 C-32.66070148 379.02799157 -32.66244765 370.1542798 -32.66670799 361.28056145 C-32.66730318 360.01825493 -32.66789837 358.75594842 -32.6685116 357.4553902 C-32.66972333 354.89113478 -32.67093746 352.32687937 -32.67215397 349.76262396 C-32.67994243 332.54265364 -32.68385942 315.32268692 -32.67983723 298.10271549 C-32.67968085 297.42939507 -32.67952447 296.75607465 -32.67936336 296.06235059 C-32.67855758 292.64972359 -32.67771181 289.23709661 -32.67685006 285.82446963 C-32.67667897 285.1467151 -32.67650788 284.46896057 -32.67633161 283.77066803 C-32.67598495 282.40008436 -32.67563643 281.02950068 -32.67528602 279.65891701 C-32.6699281 258.32972899 -32.67786153 237.00058229 -32.69631958 215.67140198 C-32.71703471 191.70600638 -32.72773219 167.74063988 -32.72374409 143.77523226 C-32.72182997 131.08661121 -32.72434019 118.39802782 -32.73845863 105.70941353 C-32.75035512 94.90831665 -32.75179674 84.10728062 -32.73966847 73.30618293 C-32.7337678 67.79435337 -32.73271318 62.28263521 -32.74467087 56.77081299 C-32.7554889 51.72573246 -32.752475 46.68085689 -32.73840918 41.63578611 C-32.735751 39.8101586 -32.73816379 37.98451524 -32.74614505 36.15890325 C-32.75624201 33.67720126 -32.74783714 31.19621297 -32.73486805 28.71453953 C-32.7421774 28.00597505 -32.74948674 27.29741057 -32.75701758 26.56737444 C-32.67366048 18.87066021 -29.89558586 11.111278 -24.36013794 5.62818909 C-16.66050128 0.17397769 -9.17202196 -0.08227394 0 0 Z " fill="#FEE076" transform="translate(96.36013793945313,7.3718109130859375)"/>
<path d="M0 0 C1.43836852 -0.00505258 2.87673072 -0.0122869 4.31507862 -0.02149814 C8.24500202 -0.04034612 12.17429921 -0.02822941 16.10420632 -0.01077521 C20.35101806 0.00263566 24.5977404 -0.01285148 28.84454346 -0.02459717 C37.15451905 -0.0429495 45.46425908 -0.03447798 53.77422728 -0.01650894 C60.5283233 -0.00246934 67.28235548 0.00140693 74.03646469 -0.00195122 C74.99862572 -0.00242866 75.96078675 -0.0029061 76.95210417 -0.00339801 C78.906839 -0.00442436 80.86157381 -0.00547972 82.8163086 -0.00656378 C100.08973417 -0.01512573 117.36304616 0.0015288 134.63644409 0.03126526 C151.39235198 0.06011039 168.14809631 0.06718129 184.90402222 0.05177307 C203.15950302 0.03500885 221.41490623 0.03097827 239.67038906 0.04848343 C241.61722302 0.05032779 243.56405698 0.05216252 245.51089096 0.0539875 C246.94764316 0.05535564 246.94764316 0.05535564 248.41342065 0.05675141 C255.15945812 0.06235474 261.90545767 0.05905161 268.65149307 0.05244255 C276.87241662 0.04470811 285.09317923 0.05146624 293.31407036 0.07661759 C297.50751306 0.08910901 301.70070524 0.09526347 305.89415741 0.08407593 C309.73460802 0.07402362 313.57455935 0.08251383 317.41494928 0.10565711 C318.8023929 0.1108096 320.18988137 0.10926676 321.57730533 0.10026246 C330.94905153 0.04451104 337.04467449 0.76405409 344.38986206 6.94068909 C350.06849258 13.72349776 351.79280048 19.48159203 351.77128983 28.2195549 C351.77334246 28.99167191 351.77539509 29.76378891 351.77750993 30.5593034 C351.78319093 33.16185067 351.78172132 35.76434519 351.78030396 38.36689758 C351.78288696 40.24555785 351.78589993 42.12421757 351.78930736 44.00287652 C351.79738819 49.17751462 351.79916753 54.35213885 351.79990482 59.52678251 C351.80175349 65.10292656 351.80929986 70.67906337 351.81604004 76.25520325 C351.82963138 88.45346064 351.83564927 100.65171474 351.8400507 112.84997845 C351.84281165 120.46371467 351.84704873 128.07744963 351.85155487 135.691185 C351.86374837 156.76321201 351.87408305 177.83523818 351.87742996 198.90726852 C351.87765159 200.26997332 351.87787338 201.63267812 351.87809531 202.99538292 C351.87831595 204.36138313 351.87853644 205.72738334 351.87875676 207.09338355 C351.87919932 209.83382654 351.87964643 212.57426953 351.88009644 215.31471252 C351.88026052 216.3339185 351.88026052 216.3339185 351.88042792 217.3737145 C351.88405894 239.40790433 351.89998075 261.44206127 351.9232868 283.4762385 C351.94788068 306.77053923 351.96159586 330.06481859 351.96279788 353.35913491 C351.96371536 366.05786453 351.96948618 378.75655109 351.98761749 391.45526886 C352.00300053 402.26741363 352.00814954 413.07950202 351.99987939 423.89165565 C351.99596659 429.40954308 351.99693328 434.92731691 352.01093674 440.44519043 C352.02363766 445.49593697 352.02251165 450.54648411 352.01034603 455.59723023 C352.00838242 457.42496824 352.01149795 459.25272019 352.02019039 461.08043858 C352.03125921 463.56502073 352.02381119 466.04889617 352.01179886 468.53345871 C352.02319165 469.59759174 352.02319165 469.59759174 352.0348146 470.68322241 C351.95676419 478.16238315 349.38323541 484.8592215 344.63986206 490.62818909 C338.88081315 494.94164678 334.20519774 496.79171192 326.95236206 496.94068909 C325.77286987 496.9780719 324.59337769 497.01545471 323.37814331 497.05397034 C314.64527292 496.05931739 309.2195861 490.83609716 303.13986206 484.87818909 C302.07831909 483.86111877 302.07831909 483.86111877 300.99533081 482.82350159 C296.75633937 478.74725022 292.59480244 474.59664134 288.46334839 470.41163635 C286.64427815 468.63250821 284.763999 466.96530003 282.82736206 465.31568909 C279.43790601 462.40568458 276.27534753 459.30658967 273.13986206 456.12818909 C270.06596351 453.0123904 266.97284015 449.96941631 263.63986206 447.12818909 C260.30688305 444.28696108 257.21377405 441.24397286 254.13986206 438.12818909 C251.08648255 435.03327407 248.01662521 432.00884632 244.70236206 429.19068909 C240.59559671 425.69108412 236.852614 421.868369 233.06417847 418.03297424 C229.73419877 414.67774352 226.30063717 411.53101034 222.69845581 408.46803284 C219.56833044 405.67052041 216.65300548 402.66194403 213.70602417 399.67481995 C211.10064836 397.04778907 208.45524001 394.5281834 205.63986206 392.12818909 C201.78864137 388.84518129 198.25697346 385.27414397 194.70626831 381.67506409 C192.10080974 379.0479535 189.45532781 376.52825825 186.63986206 374.12818909 C183.30688512 371.28696285 180.21374379 368.24400645 177.13986206 365.12818909 C173.32062922 361.26652033 169.4390874 357.57668514 165.29611206 354.06568909 C163.6670949 352.65182514 162.14614489 351.17121052 160.63986206 349.62818909 C157.63304406 350.96818406 155.64223597 352.426642 153.38986206 354.81568909 C150.97944177 357.30271172 148.52810992 359.63459715 145.88986206 361.87818909 C142.48147704 364.8109855 139.29587392 367.92892197 136.13986206 371.12818909 C133.08649586 374.22311889 130.01662427 377.24753265 126.70236206 380.06568909 C123.16307132 383.08171713 119.90491461 386.32266486 116.63986206 389.62818909 C112.78864269 393.52714592 108.87564477 397.23643206 104.69845581 400.78834534 C101.56833044 403.58585776 98.65300548 406.59443414 95.70602417 409.58155823 C92.50600435 412.80817561 89.18913934 415.8074937 85.73361206 418.75318909 C83.10000679 421.11164157 80.62159692 423.61264312 78.13986206 426.12818909 C74.47138625 429.84664414 70.70836977 433.36487104 66.73361206 436.75318909 C64.10000679 439.11164157 61.62159692 441.61264312 59.13986206 444.12818909 C55.47138625 447.84664414 51.70836977 451.36487104 47.73361206 454.75318909 C45.10000679 457.11164157 42.62159692 459.61264312 40.13986206 462.12818909 C36.46803213 465.85004395 32.70258424 469.37214454 28.72189331 472.76100159 C26.14512224 475.07187696 23.74887515 477.53030019 21.32736206 480.00318909 C4.59673943 496.87342748 4.59673943 496.87342748 -7.17263794 497.00318909 C-14.72786653 496.8535026 -19.01911011 495.71863983 -24.54763794 490.60475159 C-30.93428337 483.92158333 -32.6716477 477.89002748 -32.61461353 468.66767979 C-32.61782001 467.89210125 -32.62102649 467.11652271 -32.62433013 466.31744179 C-32.63262503 463.72112446 -32.62670765 461.12503811 -32.62083435 458.52871704 C-32.62385526 456.64746669 -32.62774444 454.76621756 -32.63242692 452.88497061 C-32.64272334 447.71709216 -32.6405209 442.54928296 -32.63624632 437.3813988 C-32.63378211 431.80734863 -32.64278944 426.23331527 -32.65028381 420.65927124 C-32.66304103 409.7400783 -32.66482325 398.82090995 -32.66248355 387.90171082 C-32.66070148 379.02799157 -32.66244765 370.1542798 -32.66670799 361.28056145 C-32.66730318 360.01825493 -32.66789837 358.75594842 -32.6685116 357.4553902 C-32.66972333 354.89113478 -32.67093746 352.32687937 -32.67215397 349.76262396 C-32.67994243 332.54265364 -32.68385942 315.32268692 -32.67983723 298.10271549 C-32.67968085 297.42939507 -32.67952447 296.75607465 -32.67936336 296.06235059 C-32.67855758 292.64972359 -32.67771181 289.23709661 -32.67685006 285.82446963 C-32.67667897 285.1467151 -32.67650788 284.46896057 -32.67633161 283.77066803 C-32.67598495 282.40008436 -32.67563643 281.02950068 -32.67528602 279.65891701 C-32.6699281 258.32972899 -32.67786153 237.00058229 -32.69631958 215.67140198 C-32.71703471 191.70600638 -32.72773219 167.74063988 -32.72374409 143.77523226 C-32.72182997 131.08661121 -32.72434019 118.39802782 -32.73845863 105.70941353 C-32.75035512 94.90831665 -32.75179674 84.10728062 -32.73966847 73.30618293 C-32.7337678 67.79435337 -32.73271318 62.28263521 -32.74467087 56.77081299 C-32.7554889 51.72573246 -32.752475 46.68085689 -32.73840918 41.63578611 C-32.735751 39.8101586 -32.73816379 37.98451524 -32.74614505 36.15890325 C-32.75624201 33.67720126 -32.74783714 31.19621297 -32.73486805 28.71453953 C-32.7421774 28.00597505 -32.74948674 27.29741057 -32.75701758 26.56737444 C-32.67366048 18.87066021 -29.89558586 11.111278 -24.36013794 5.62818909 C-16.66050128 0.17397769 -9.17202196 -0.08227394 0 0 Z M-15.36013794 20.62818909 C-15.86275066 23.36161372 -16.03389463 25.47954361 -15.98934364 28.21231747 C-15.99661085 28.98364489 -16.00387805 29.75497231 -16.01136547 30.54967329 C-16.02970118 33.14997873 -16.01222128 35.74882494 -15.99505615 38.34912109 C-16.00081399 40.22580172 -16.00875282 42.10247672 -16.01869237 43.97913986 C-16.03963557 49.14831791 -16.0292166 54.31703659 -16.01376128 59.48621666 C-16.00248213 65.05619676 -16.01989343 70.62609598 -16.03366089 76.19606018 C-16.05593504 87.11270111 -16.05107337 98.02917049 -16.03659768 108.94581824 C-16.02532128 117.81583271 -16.02376761 126.68579898 -16.02921677 135.55581856 C-16.02998293 136.81662235 -16.0307491 138.07742614 -16.03153848 139.3764361 C-16.03313705 141.93747633 -16.03475812 144.49851654 -16.03640144 147.05955673 C-16.05026426 170.40905574 -16.0358696 193.75844455 -16.00968845 217.10792222 C-15.98596247 238.42991359 -15.98808026 259.75175566 -16.01199341 281.07374573 C-16.0387591 305.01933254 -16.04929506 328.96482601 -16.03393209 352.91043335 C-16.03233929 355.46253684 -16.03076744 358.01464034 -16.02921677 360.56674385 C-16.02844539 361.82253051 -16.02767401 363.07831717 -16.02687926 364.37215797 C-16.02255689 373.23401065 -16.02986044 382.09581046 -16.04161453 390.95765495 C-16.05561902 401.75383421 -16.05188283 412.54983164 -16.02521081 423.34598999 C-16.01204468 428.85748925 -16.00696791 434.36868506 -16.02345657 439.88018227 C-16.03831128 444.9216662 -16.03024198 449.96256424 -16.00356881 455.00399471 C-15.99796477 456.83167154 -16.00086711 458.65939746 -16.01294775 460.48704296 C-16.02807444 462.96481326 -16.0126435 465.44055651 -15.98934364 467.91821957 C-16.00104947 468.63391828 -16.0127553 469.349617 -16.02481586 470.08700356 C-15.9524192 473.91815018 -15.42601778 475.54440208 -13.02784383 478.59443718 C-10.47734215 480.92177821 -10.47734215 480.92177821 -7.04763794 480.87818909 C-2.02014317 479.17395357 0.92198702 476.33179205 4.63986206 472.62818909 C5.30115112 471.96947815 5.96244019 471.31076721 6.64376831 470.63209534 C7.98360746 469.2870122 9.31950321 467.9379904 10.65158081 466.58522034 C12.52537248 464.74087922 14.45299677 463.02186843 16.45236206 461.31568909 C19.84181811 458.40568458 23.00437659 455.30658967 26.13986206 452.12818909 C29.80832704 448.40971947 33.57135426 444.89150721 37.54611206 441.50318909 C40.17971733 439.1447366 42.6581272 436.64373505 45.13986206 434.12818909 C48.80833787 430.40973404 52.57135435 426.89150714 56.54611206 423.50318909 C59.17971733 421.1447366 61.6581272 418.64373505 64.13986206 416.12818909 C67.80833787 412.40973404 71.57135435 408.89150714 75.54611206 405.50318909 C78.17971733 403.1447366 80.6581272 400.64373505 83.13986206 398.12818909 C86.80833787 394.40973404 90.57135435 390.89150714 94.54611206 387.50318909 C97.17971733 385.1447366 99.6581272 382.64373505 102.13986206 380.12818909 C105.80833787 376.40973404 109.57135435 372.89150714 113.54611206 369.50318909 C116.17971733 367.1447366 118.6581272 364.64373505 121.13986206 362.12818909 C124.80833787 358.40973404 128.57135435 354.89150714 132.54611206 351.50318909 C135.17971476 349.14473891 137.65815384 346.64375995 140.13986206 344.12818909 C143.99099168 340.23420962 147.90957164 336.51527595 152.08126831 332.96803284 C153.31489385 331.90754773 154.48954457 330.77850657 155.63986206 329.62818909 C159.41478409 329.23691331 161.81532108 329.16940276 165.16720581 331.03443909 C171.66476676 336.67899771 177.79153591 342.62123627 183.80563354 348.77857971 C187.65589935 352.71365314 191.6174145 356.41122537 195.78952026 360.00270081 C198.36710665 362.26705892 200.74258895 364.67315036 203.13986206 367.12818909 C206.19085051 370.22533311 209.26329715 373.24770042 212.57736206 376.06568909 C216.68412741 379.56529405 220.42711012 383.38800918 224.21554565 387.22340393 C227.54552535 390.57863465 230.97908695 393.72536784 234.58126831 396.78834534 C237.71139368 399.58585776 240.62671864 402.59443414 243.57369995 405.58155823 C246.17907576 408.20858911 248.82448411 410.72819477 251.63986206 413.12818909 C255.49108275 416.41119689 259.02275066 419.98223421 262.57345581 423.58131409 C265.17891438 426.20842467 267.82439631 428.72811992 270.63986206 431.12818909 C274.49108275 434.41119689 278.02275066 437.98223421 281.57345581 441.58131409 C284.17891438 444.20842467 286.82439631 446.72811992 289.63986206 449.12818909 C293.48950167 452.40984908 297.01988515 455.97924085 300.56906128 459.57691956 C303.80573553 462.84055673 307.15775893 465.88515915 310.65548706 468.86256409 C313.8385568 471.69474425 316.78707724 474.75511758 319.75704956 477.80787659 C322.11072345 480.08342023 323.19079623 480.56831364 326.45236206 481.00318909 C330.80212076 480.49145277 331.9498907 479.02893459 334.63986206 475.62818909 C335.13232593 472.85146549 335.31437439 470.68828274 335.26906776 467.91821957 C335.27996857 466.75904827 335.27996857 466.75904827 335.29108959 465.57645938 C335.30939184 462.97723879 335.29196092 460.37948417 335.27478027 457.78027344 C335.28053941 455.90201707 335.28847912 454.02376633 335.2984165 452.14552742 C335.31934141 446.97667788 335.30894898 441.80828831 335.2934854 436.63943684 C335.28219899 431.06813022 335.29962108 425.49690416 335.31338501 419.9256134 C335.33565048 409.00877666 335.33080159 398.09211153 335.31632181 387.17526799 C335.30504316 378.30574558 335.3034927 369.43627137 335.30894089 360.56674385 C335.30970705 359.30578683 335.31047322 358.0448298 335.3112626 356.74566196 C335.31286118 354.18429754 335.31448224 351.62293314 335.31612556 349.06156874 C335.32998568 325.71385058 335.3155976 302.36624266 335.28941257 279.01854586 C335.26568114 257.69640083 335.26780957 236.37440508 335.29171753 215.05226135 C335.31847887 191.10521197 335.32902209 167.1582559 335.31365621 143.21118599 C335.31206341 140.65939686 335.31049156 138.10760772 335.30894089 135.55581856 C335.30816951 134.30018617 335.30739813 133.04455379 335.30660338 131.75087194 C335.30228011 122.88803692 335.30958637 114.02525474 335.32133865 105.1624279 C335.3353381 94.36734221 335.33161744 83.57243837 335.30493493 72.7773736 C335.29176279 67.26599126 335.28670224 61.75491251 335.30318069 56.24353218 C335.31802275 51.20337385 335.30998734 46.16380201 335.28329293 41.12369729 C335.27768353 39.29539521 335.28060306 37.46704411 335.29267187 35.63877326 C335.30777054 33.16257302 335.29239672 30.68840939 335.26906776 28.21231747 C335.28077359 27.49427758 335.29247943 26.7762377 335.30453998 26.03643903 C335.23688102 22.46953747 334.86744274 20.884368 332.46998537 18.18564135 C329.25371605 16.41568811 327.38098062 16.12713124 323.72868347 16.12482452 C322.53745723 16.11439353 321.34623098 16.10396255 320.11890697 16.09321547 C318.81395936 16.10213835 317.50901175 16.11106124 316.16452026 16.12025452 C314.76132974 16.11564541 313.35814404 16.10929243 311.95496845 16.10134554 C308.09925189 16.08463007 304.24393077 16.09290844 300.38821268 16.10529041 C296.22999279 16.11432959 292.07184156 16.10037682 287.91363525 16.08937073 C279.76778011 16.07156878 271.62207226 16.07543293 263.47621131 16.08702129 C256.8568906 16.09604876 250.23761123 16.09728259 243.61828613 16.09292603 C242.67678438 16.09231309 241.73528262 16.09170016 240.7652505 16.09106866 C238.85270682 16.08978978 236.94016314 16.08849292 235.02761948 16.08717829 C217.08669937 16.07576758 199.14586097 16.08889389 181.20495427 16.11037976 C165.80528625 16.12825118 150.40573884 16.12514721 135.006073 16.10670471 C117.130081 16.08530666 99.25416064 16.07686627 81.37815762 16.08915377 C79.47258442 16.09042799 77.56701121 16.09168547 75.66143799 16.09292603 C74.723819 16.09354313 73.7862 16.09416023 72.82016832 16.09479603 C66.20752801 16.09825213 59.59493308 16.09241499 52.9822998 16.08300781 C44.92549991 16.07179828 36.86885594 16.0748058 28.81207395 16.09613079 C24.7000414 16.10665535 20.58826897 16.11073926 16.47623825 16.09753418 C12.71346709 16.08563329 8.95119766 16.09213418 5.18847215 16.11344439 C3.17925334 16.12004413 1.16999983 16.10695373 -0.83918285 16.09321547 C-2.62602222 16.10886195 -2.62602222 16.10886195 -4.44895935 16.12482452 C-5.47718968 16.12547393 -6.50542002 16.12612334 -7.56480885 16.12679243 C-11.27080381 16.79153473 -12.85783479 17.81144152 -15.36013794 20.62818909 Z " fill="#262423" transform="translate(96.36013793945313,7.3718109130859375)"/>
<path d="M0 0 C5.4139591 3.48899586 7.5493455 8.00316071 9.44140625 13.98046875 C9.67256638 14.68098358 9.9037265 15.38149841 10.14189148 16.10324097 C10.89657799 18.39893124 11.6359968 20.6992181 12.375 23 C12.89661245 24.59915396 13.41908525 26.19802753 13.94238281 27.79663086 C15.0270942 31.11670626 16.10516511 34.4388356 17.17822266 37.76269531 C18.52243569 41.92378031 19.88207369 46.07959219 21.24864197 50.23338318 C22.27838289 53.36418567 23.30374172 56.49640998 24.32785034 59.62905884 C24.81636691 61.1225319 25.30588428 62.61567799 25.79641724 64.10848999 C26.47814151 66.18678255 27.15398079 68.26689456 27.828125 70.34765625 C28.40481934 72.11701538 28.40481934 72.11701538 28.99316406 73.92211914 C29.8125 76.8125 29.8125 76.8125 29.8125 79.8125 C30.79111496 79.80583817 31.76972992 79.79917633 32.77799988 79.79231262 C42.00342912 79.73148049 51.22881762 79.68651726 60.45440197 79.65706348 C65.19730683 79.6414119 69.9400497 79.62018285 74.68286133 79.58618164 C79.26050215 79.55357015 83.83798721 79.53564316 88.41573524 79.52786827 C90.16163904 79.52232798 91.90753438 79.51150911 93.65337181 79.49530983 C96.10007482 79.47351158 98.54613533 79.47053405 100.99291992 79.47192383 C101.71365189 79.461138 102.43438385 79.45035217 103.17695618 79.4392395 C107.57964692 79.46627478 110.30071465 80.13795324 113.8125 82.8125 C118.82266876 88.51852553 118.82266876 88.51852553 118.796875 91.80078125 C118.71953125 92.56777344 118.6421875 93.33476562 118.5625 94.125 C118.49546875 94.88425781 118.4284375 95.64351563 118.359375 96.42578125 C116.8091783 103.19128256 112.15047473 106.08002 106.75 109.8125 C105.11310445 110.96849969 103.47639069 112.12475683 101.83984375 113.28125 C101.00308105 113.86777344 100.16631836 114.45429688 99.30419922 115.05859375 C95.44723383 117.7735104 91.63104637 120.54394863 87.8125 123.3125 C86.32703802 124.38571446 84.84135972 125.45862956 83.35546875 126.53125 C80.21187794 128.80158315 77.06871222 131.07250348 73.92578125 133.34375 C73.12205078 133.92447266 72.31832031 134.50519531 71.49023438 135.10351562 C69.96408194 136.20622692 68.43803265 137.30908099 66.91210938 138.41210938 C62.55551647 141.55965707 58.18875339 144.69234031 53.8125 147.8125 C55.30564489 155.23425094 57.48866982 162.29698916 59.875 169.4765625 C60.26695557 170.66800873 60.65891113 171.85945496 61.06274414 173.08700562 C62.09791645 176.23180779 63.13663281 179.37540698 64.17736816 182.51837158 C65.64313206 186.94735624 67.10288644 191.37832271 68.56225586 195.80941772 C69.33735581 198.16174251 70.11413429 200.51351506 70.89282227 202.86465454 C77.992919 224.37090575 77.992919 224.37090575 74.125 232.25 C70.60256628 236.15323737 68.36592568 237.57553676 63.125 238.375 C52.93903726 237.84683897 43.81161077 228.08248004 36.10546875 222.109375 C32.41826067 219.26035461 28.67803759 216.50439405 24.875 213.8125 C24.05189331 213.22976318 24.05189331 213.22976318 23.2121582 212.63525391 C22.0560077 211.81745256 20.89967014 210.99991562 19.74316406 210.18261719 C15.89801932 207.45386753 12.07447665 204.69510228 8.25 201.9375 C7.4876001 201.38964844 6.7252002 200.84179688 5.93969727 200.27734375 C2.15145676 197.54525711 -1.57371134 194.7750911 -5.1875 191.8125 C-7.94071386 193.11947016 -10.38383274 194.56832867 -12.84765625 196.359375 C-13.54890625 196.86726562 -14.25015625 197.37515625 -14.97265625 197.8984375 C-15.72417969 198.44757813 -16.47570312 198.99671875 -17.25 199.5625 C-18.04148437 200.13742187 -18.83296875 200.71234375 -19.6484375 201.3046875 C-25.34585204 205.44989304 -31.01824236 209.6289141 -36.6875 213.8125 C-39.05643125 215.55877426 -41.42568084 217.30461355 -43.79541016 219.04980469 C-45.41318854 220.24192144 -47.03002569 221.43531641 -48.64599609 222.62988281 C-51.05120175 224.40525598 -53.46235826 226.17225046 -55.875 227.9375 C-56.59300781 228.46988281 -57.31101562 229.00226563 -58.05078125 229.55078125 C-71.04749714 239.01842635 -71.04749714 239.01842635 -79.1875 237.8125 C-83.52583918 235.55990081 -86.39037362 233.4051563 -88.1875 228.8125 C-89.1581945 220.72684854 -86.99075121 213.8378408 -84.390625 206.26171875 C-84.00058289 205.08591751 -83.61054077 203.91011627 -83.2086792 202.69868469 C-81.96554624 198.96096584 -80.70215324 195.2304857 -79.4375 191.5 C-78.19185121 187.7787693 -76.95036611 184.05616734 -75.70916748 180.33345032 C-74.938074 178.02591711 -74.16361066 175.71950602 -73.3850708 173.41447449 C-72.30716677 170.21767837 -71.24469766 167.01619842 -70.1875 163.8125 C-69.79348999 162.63893951 -69.39947998 161.46537903 -68.99353027 160.2562561 C-68.61764771 159.10023895 -68.24176514 157.9442218 -67.85449219 156.75317383 C-67.33879669 155.18820915 -67.33879669 155.18820915 -66.81268311 153.59162903 C-66.18469692 150.80003946 -66.13043921 149.4354218 -67.1875 146.8125 C-68.55063476 145.40827789 -68.55063476 145.40827789 -70.3359375 144.2890625 C-71.00197998 143.83257324 -71.66802246 143.37608398 -72.35424805 142.90576172 C-73.08297119 142.42123535 -73.81169434 141.93670898 -74.5625 141.4375 C-76.11985892 140.37178997 -77.6757961 139.30399999 -79.23046875 138.234375 C-80.04435059 137.67685547 -80.85823242 137.11933594 -81.69677734 136.54492188 C-85.81911794 133.67762832 -89.8447045 130.68212277 -93.875 127.6875 C-99.47205662 123.54335661 -105.0817749 119.42137601 -110.75 115.375 C-111.59220093 114.76978516 -111.59220093 114.76978516 -112.45141602 114.15234375 C-114.97526659 112.3471757 -117.51674396 110.60131164 -120.12890625 108.92578125 C-125.66188203 105.34183042 -129.30558791 102.29316909 -131.1875 95.8125 C-131.82834029 91.80724818 -131.43570757 90.27214365 -129.5 86.6875 C-126.16477443 82.54100334 -123.9817805 80.0497157 -118.54911804 79.33148193 C-117.12480468 79.31996466 -115.70020672 79.33034697 -114.27612305 79.35839844 C-113.10459938 79.35752228 -113.10459938 79.35752228 -111.90940857 79.35662842 C-109.33888642 79.35940565 -106.76953724 79.39047925 -104.19921875 79.421875 C-102.4127516 79.4293387 -100.62627625 79.43503103 -98.83979797 79.43902588 C-94.14603936 79.45427207 -89.45277868 79.49354502 -84.75921631 79.5378418 C-79.96649918 79.57881646 -75.17370131 79.59704158 -70.38085938 79.6171875 C-60.98285458 79.66004035 -51.58521875 79.72827933 -42.1875 79.8125 C-41.93532715 78.57153564 -41.6831543 77.33057129 -41.42333984 76.05200195 C-40.12762353 70.23559508 -38.28672444 64.6327432 -36.4140625 58.98046875 C-36.04904633 57.86746902 -35.68403015 56.7544693 -35.30795288 55.60774231 C-34.14681189 52.0704954 -32.97973068 48.53524148 -31.8125 45 C-31.03607082 42.63749711 -30.26002561 40.274868 -29.484375 37.91210938 C-25.8879589 26.96592673 -25.8879589 26.96592673 -24.18145752 21.82772827 C-23.4884482 19.72544395 -22.80699718 17.61932935 -22.13446045 15.51040649 C-21.61810028 13.90871109 -21.61810028 13.90871109 -21.09130859 12.2746582 C-20.78550873 11.31332474 -20.47970886 10.35199127 -20.16464233 9.36152649 C-18.49166855 4.99731634 -16.09850877 2.21390643 -12.3125 -0.5625 C-7.90416955 -1.85906778 -4.27897212 -1.59412687 0 0 Z " fill="#262424" transform="translate(262.1875,70.1875)"/>
<path d="M0 0 C0.66 0 1.32 0 2 0 C2.17539307 0.55647217 2.35078613 1.11294434 2.53149414 1.6862793 C6.12136584 13.0606023 9.78087021 24.40638746 13.57763672 35.71337891 C15.50516074 41.46968148 17.33613711 47.24786491 19.09375 53.05859375 C20.6375804 58.06938812 22.32077481 63.0332776 24 68 C24.33 68.99 24.66 69.98 25 71 C29.77967622 73.96669559 34.44417059 74.13671843 39.97167969 74.20532227 C41.01131111 74.22017166 41.01131111 74.22017166 42.07194519 74.23532104 C44.35522078 74.26682419 46.63851714 74.29164902 48.921875 74.31640625 C50.508001 74.33698545 52.09412164 74.35798218 53.68023682 74.37937927 C57.84930061 74.43450021 62.01841308 74.48395337 66.18756104 74.53222656 C70.44409503 74.58251456 74.70055858 74.63816249 78.95703125 74.69335938 C87.30462789 74.80081887 95.65228357 74.9022908 104 75 C100.46369318 78.60298741 96.95683433 81.60837365 92.8125 84.5 C91.56337609 85.37830071 90.31470023 86.2572389 89.06640625 87.13671875 C88.40656738 87.59997559 87.74672852 88.06323242 87.06689453 88.54052734 C82.67894068 91.63894314 78.33592713 94.80020845 73.98706055 97.953125 C70.0039717 100.83849883 66.00973732 103.70572046 61.9921875 106.54296875 C61.17717773 107.12199951 60.36216797 107.70103027 59.52246094 108.29760742 C57.96466911 109.40376653 56.40301392 110.50451204 54.83691406 111.59887695 C50.31507295 114.82117845 46.5379353 117.92412941 44 123 C43.60768642 128.61817671 44.65272807 132.89438026 46.484375 138.1015625 C46.74124084 138.85988373 46.99810669 139.61820496 47.26275635 140.39950562 C48.08192093 142.81152461 48.91536625 145.21829538 49.75 147.625 C50.5646941 150.00369366 51.37635771 152.3834033 52.18742371 154.76333618 C52.71706287 156.31727836 53.24790882 157.87080975 53.77998352 159.42391968 C55.68236098 164.99641051 57.44782428 170.60189857 59.15087891 176.23876953 C60.66768699 181.17123057 62.42060446 186.01941787 64.14453125 190.8828125 C65 194 65 194 64 197 C63.25878906 196.41734375 62.51757812 195.8346875 61.75390625 195.234375 C54.88540474 189.87370166 47.88479803 184.75312639 40.74487305 179.76049805 C34.25624272 175.2114158 27.87349107 170.52611661 21.50732422 165.80761719 C19.34058941 164.20183269 17.17106649 162.59992159 15 161 C14.3390332 160.50999512 13.67806641 160.01999023 12.99707031 159.51513672 C7.36619324 155.39890364 2.90417877 153.98024081 -4 155 C-6.96378665 156.33928732 -9.38606046 158.18672198 -11.9375 160.1875 C-12.66275879 160.72777832 -13.38801758 161.26805664 -14.13525391 161.82470703 C-15.66526818 162.96458244 -17.18929342 164.11253661 -18.70751953 165.26806641 C-21.65229665 167.49280005 -24.64957515 169.63877402 -27.65185547 171.78491211 C-33.19757465 175.75144725 -38.70233158 179.77307316 -44.18359375 183.828125 C-45.04033691 184.46186035 -45.89708008 185.0955957 -46.77978516 185.74853516 C-48.42828354 186.96989226 -50.07518074 188.19341447 -51.72021484 189.41943359 C-55.38733793 192.13918365 -59.01349526 194.75609913 -63 197 C-61.92978877 191.11383825 -60.22455318 185.61783065 -58.1875 180 C-55.90026522 173.68452162 -53.87268745 167.35393421 -52.046875 160.89111328 C-50.78572215 156.49615624 -49.39508621 152.16476025 -47.91015625 147.83984375 C-47.54390137 146.77064697 -47.17764648 145.7014502 -46.80029297 144.59985352 C-46.07282998 142.49167919 -45.33653244 140.38652728 -44.59033203 138.28491211 C-41.98244057 130.82179796 -41.98244057 130.82179796 -42 123 C-44.44640539 118.31638304 -47.48451846 115.50705539 -51.6875 112.375 C-52.24928955 111.95387939 -52.8110791 111.53275879 -53.38989258 111.09887695 C-59.34469036 106.66937438 -65.42951282 102.4175537 -71.5078125 98.16015625 C-76.22107706 94.85422388 -80.89584402 91.496306 -85.5625 88.125 C-86.28783936 87.60188232 -87.01317871 87.07876465 -87.76049805 86.53979492 C-89.84476673 85.03250139 -91.9238104 83.51840002 -94 82 C-94.76038574 81.44538086 -95.52077148 80.89076172 -96.30419922 80.31933594 C-97.03783691 79.77825195 -97.77147461 79.23716797 -98.52734375 78.6796875 C-99.1937085 78.18968262 -99.86007324 77.69967773 -100.54663086 77.19482422 C-101.02624268 76.80053223 -101.50585449 76.40624023 -102 76 C-102 75.67 -102 75.34 -102 75 C-101.12383026 74.99413376 -100.24766052 74.98826752 -99.34494019 74.98222351 C-91.07615726 74.9242502 -82.80764312 74.85214684 -74.53912163 74.76428509 C-70.28847027 74.71961279 -66.03791406 74.68034987 -61.78710938 74.65356445 C-57.68260348 74.62749995 -53.57846434 74.58707561 -49.47418594 74.53681374 C-47.91060076 74.52016623 -46.34695217 74.50863878 -44.78329086 74.50238609 C-42.58804897 74.49272162 -40.39374088 74.46463644 -38.19873047 74.43237305 C-36.95074677 74.42126999 -35.70276306 74.41016693 -34.41696167 74.39872742 C-30.04473411 73.88852942 -26.86294348 72.33067391 -23.3046875 69.7890625 C-21.22421795 66.93620305 -20.23785402 63.68982118 -19.125 60.375 C-18.86525391 59.62154297 -18.60550781 58.86808594 -18.33789062 58.09179688 C-16.3471607 52.23642255 -14.59064409 46.32473655 -12.89501953 40.37841797 C-11.23858019 34.63425004 -9.27941039 29.03138741 -7.24365234 23.41235352 C-4.48227317 15.71045612 -2.22615154 7.87033223 0 0 Z " fill="#8AC8FD" transform="translate(255,91)"/>
</svg>
