<?xml version="1.0" encoding="UTF-8"?>
<svg version="1.1" xmlns="http://www.w3.org/2000/svg" width="512" height="512">
<path d="M0 0 C0.75418213 -0.01039307 1.50836426 -0.02078613 2.28540039 -0.03149414 C8.38454905 0.06739623 12.45013463 1.72133365 17.1875 5.6875 C21.74579889 11.10817976 23.06520781 16.39124334 23 23.375 C22.99355469 24.11298828 22.98710937 24.85097656 22.98046875 25.61132812 C22.26016058 47.846104 8.1523108 72.4529499 -7.5 87.4375 C-15.3648207 93.78572558 -23.19896365 97.00466072 -33.3125 96.875 C-34.09641113 96.87250244 -34.88032227 96.87000488 -35.68798828 96.86743164 C-41.4085411 96.73487506 -46.11979548 95.67388213 -51.3359375 93.21484375 C-53.89615424 92.29519911 -55.00255731 92.42587764 -57.5 93.4375 C-59.72977996 95.41651574 -59.72977996 95.41651574 -61.5 97.4375 C-60.23259678 100.71162499 -58.8517368 103.92334209 -57.421875 107.12890625 C-56.88191895 108.34042358 -56.88191895 108.34042358 -56.33105469 109.57641602 C-56.05680664 110.19057373 -55.78255859 110.80473145 -55.5 111.4375 C-54.20449219 111.52386719 -52.90898437 111.61023438 -51.57421875 111.69921875 C-29.36415472 113.37302678 -9.87867847 119.08522764 9.36328125 130.37109375 C11.54936849 131.66077959 11.54936849 131.66077959 14.5 131.4375 C16.35862997 130.55120886 18.18875836 129.60450042 20 128.625 C29.91068297 123.58627536 38.40334085 121.91462077 49.5 122.4375 C49.76425781 121.69371094 50.02851563 120.94992188 50.30078125 120.18359375 C54.78096758 109.92440486 65.47414816 102.55526058 75.5 98.4375 C86.66659312 94.54755404 100.95576874 94.80020878 111.9375 99.15234375 C116.36872988 101.37471362 120.96486571 103.90236571 124.5 107.4375 C125.93400439 107.4881384 127.37044503 107.47306235 128.8046875 107.4296875 C148.20826339 107.01265227 148.20826339 107.01265227 156.5 110.4375 C157.33273437 110.76621094 158.16546875 111.09492188 159.0234375 111.43359375 C170.78991051 116.66514867 179.59277885 126.12360752 184.55859375 137.9609375 C186.42792253 143.34531993 187.69655407 148.51121396 187.38671875 154.23828125 C187.35642578 155.13353516 187.32613281 156.02878906 187.29492188 156.95117188 C187.22372356 158.8062116 187.13279924 160.66060669 187.02148438 162.51367188 C186.85545683 168.77335887 187.94762607 171.95132268 192.02807617 176.7019043 C193.86117808 178.86337742 194.84199268 181.03677516 195.8125 183.6875 C196.11800781 184.49703125 196.42351562 185.3065625 196.73828125 186.140625 C200.66467895 197.98022422 199.81161962 212.02711291 195.05078125 223.453125 C192.70526499 227.96691449 189.95828805 231.7205793 186.5 235.4375 C185.89671875 236.09621094 185.2934375 236.75492188 184.671875 237.43359375 C181.56629946 240.68094556 178.58708516 243.45234435 174.5 245.4375 C173.84 245.4375 173.18 245.4375 172.5 245.4375 C172.53480469 246.17613281 172.56960938 246.91476562 172.60546875 247.67578125 C172.98719661 261.98148742 168.65171224 274.84881312 159.1875 285.75 C155.47935242 289.65995153 151.50840396 292.99549712 147.15234375 296.16015625 C146.60707031 296.58167969 146.06179688 297.00320313 145.5 297.4375 C145.5 297.7675 145.5 298.0975 145.5 298.4375 C146.634375 298.1075 147.76875 297.7775 148.9375 297.4375 C153.34253763 296.35775721 158.01638529 295.44301403 162.5 296.4375 C167.4013161 300.63563071 168.72488512 305.67341237 170.75 311.625 C171.29527344 313.13030273 171.29527344 313.13030273 171.8515625 314.66601562 C173.9885727 320.84004699 175.0946963 325.90230478 174.5 332.4375 C173.84 333.4275 173.18 334.4175 172.5 335.4375 C173.46824707 335.45151855 173.46824707 335.45151855 174.45605469 335.46582031 C177.38813944 335.51959101 180.31864008 335.6032234 183.25 335.6875 C184.26578125 335.70167969 185.2815625 335.71585937 186.328125 335.73046875 C187.79765625 335.77880859 187.79765625 335.77880859 189.296875 335.828125 C190.64797363 335.8595459 190.64797363 335.8595459 192.02636719 335.89160156 C195.44426755 336.64588751 196.53100853 337.52735537 198.5 340.4375 C199.08228389 343.43994088 199.06059644 346.38663862 199.03125 349.4375 C199.0350769 350.31019531 199.03890381 351.18289063 199.04284668 352.08203125 C199.0455649 353.92449092 199.03820994 355.76698924 199.02148438 357.609375 C199.00007248 360.42795934 199.02128801 363.24399485 199.046875 366.0625 C199.04423171 367.85417229 199.03910669 369.64584299 199.03125 371.4375 C199.03934692 372.27925781 199.04744385 373.12101562 199.05578613 373.98828125 C198.96257347 379.81094545 198.96257347 379.81094545 196.65429688 382.9375 C193.56628703 385.08762834 190.93756682 385.57180519 187.26953125 385.75390625 C186.46708984 385.79580078 185.66464844 385.83769531 184.83789062 385.88085938 C184.00451172 385.92017578 183.17113281 385.95949219 182.3125 386 C181.46751953 386.04318359 180.62253906 386.08636719 179.75195312 386.13085938 C177.66815567 386.23681518 175.58409897 386.3376502 173.5 386.4375 C173.83 387.0975 174.16 387.7575 174.5 388.4375 C175.08611627 396.11099591 173.35048229 402.07100899 170.75 409.25 C170.40195312 410.27287109 170.05390625 411.29574219 169.6953125 412.34960938 C166.36708616 421.76109387 166.36708616 421.76109387 162.5 424.4375 C155.39746899 425.7799533 148.19798504 423.3743823 141.38671875 421.55859375 C140.25474564 421.26767349 139.12277252 420.97675323 137.95649719 420.67701721 C134.36409558 419.75322225 130.77551825 418.81566541 127.1875 417.875 C123.58151516 416.93126775 119.9748594 415.99086384 116.36494446 415.06227112 C114.12448374 414.48592445 111.88623957 413.90087643 109.65055847 413.30625916 C108.63883072 413.04591385 107.62710297 412.78556854 106.5847168 412.51733398 C105.69697067 412.28416977 104.80922455 412.05100555 103.89457703 411.81077576 C101.36402477 411.41630367 99.88649673 411.55368814 97.5 412.4375 C95.59471968 414.02327813 95.59471968 414.02327813 93.6875 416 C77.94546264 430.35076074 58.60688898 433.52309239 37.99728012 432.66009521 C32.33638131 432.29978979 26.75668542 431.50368255 21.14501953 430.6953125 C18.48121586 430.32651448 15.8172392 429.95968397 13.15264893 429.59667969 C12.45587079 429.50150999 11.75909266 429.40634029 11.04120004 429.30828667 C2.66069359 428.17334369 -5.73726496 427.18964523 -14.13720703 426.2109375 C-14.95251632 426.11577221 -15.76782562 426.02060692 -16.60784125 425.92255783 C-20.87772566 425.42445879 -25.14781745 424.92816868 -29.4180336 424.43292236 C-34.89346293 423.79748095 -40.36816795 423.15593909 -45.84274292 422.51318359 C-46.77694191 422.40352831 -47.7111409 422.29387302 -48.67364895 422.18089485 C-50.57902283 421.95723623 -52.48439532 421.73356583 -54.38976645 421.50988388 C-67.0807236 420.02029826 -79.77213478 418.5348389 -92.46533203 417.06445312 C-101.1091891 416.0630974 -109.75193036 415.05264647 -118.39351165 414.03183174 C-122.94001344 413.49512947 -127.48693907 412.96296534 -132.03528214 412.44207764 C-136.29688797 411.95397485 -140.55691602 411.45385373 -144.81606674 410.94478607 C-146.36825986 410.7613817 -147.92096711 410.58226398 -149.47421265 410.40799713 C-166.73785731 408.4656967 -180.94221513 404.06975907 -192.5 390.4375 C-197.08861124 384.54151907 -201.5 376.03234203 -201.5 368.4375 C-202.78463135 368.45844727 -204.0692627 368.47939453 -205.39282227 368.50097656 C-210.22913143 368.57421892 -215.06539324 368.61960146 -219.90209961 368.65722656 C-221.98226202 368.67715241 -224.06236984 368.7043032 -226.14233398 368.73925781 C-241.88392936 368.996882 -255.69343578 368.18191868 -269.875 360.625 C-270.53927002 360.28243164 -271.20354004 359.93986328 -271.88793945 359.58691406 C-277.23251821 356.75370632 -281.92738034 353.39729435 -286.5 349.4375 C-287.29277344 348.84066406 -288.08554687 348.24382812 -288.90234375 347.62890625 C-298.62254199 339.42885931 -305.04544315 328.17737258 -309.5 316.4375 C-309.933125 315.32632812 -310.36625 314.21515625 -310.8125 313.0703125 C-317.34196363 293.07383013 -314.74836145 270.69946104 -305.6875 252.0625 C-300.54226955 242.06730584 -291.88516078 228.63008039 -281.5 223.4375 C-281.54640625 222.68984375 -281.5928125 221.9421875 -281.640625 221.171875 C-281.67671875 220.18703125 -281.7128125 219.2021875 -281.75 218.1875 C-281.79640625 217.21296875 -281.8428125 216.2384375 -281.890625 215.234375 C-281.5 212.4375 -281.5 212.4375 -280.0078125 210.2890625 C-276.60094854 207.77371434 -273.10110029 206.46101572 -269.125 205.0625 C-268.30080566 204.76577393 -267.47661133 204.46904785 -266.62744141 204.16333008 C-233.97732084 192.69702769 -233.97732084 192.69702769 -222.5 193.4375 C-226.19267111 184.00348803 -226.19267111 184.00348803 -231.5 175.4375 C-229.96781315 171.80688333 -227.7816856 169.4511227 -225 166.6875 C-223.80890625 165.48867188 -223.80890625 165.48867188 -222.59375 164.265625 C-220.5 162.4375 -220.5 162.4375 -218.5 162.4375 C-216.94477758 164.44798399 -215.5548553 166.42795479 -214.1875 168.5625 C-213.78668213 169.18543945 -213.38586426 169.80837891 -212.97290039 170.45019531 C-209.14089034 176.63410637 -204.5 185.01874319 -204.5 192.4375 C-203.31857422 192.51097656 -203.31857422 192.51097656 -202.11328125 192.5859375 C-194.15861404 193.13193833 -186.361224 194.11228548 -178.5 195.4375 C-178.09910156 194.44492188 -177.69820312 193.45234375 -177.28515625 192.4296875 C-171.56225189 178.61459981 -164.17950082 166.88055376 -154.5 155.4375 C-153.94957031 154.75300781 -153.39914063 154.06851563 -152.83203125 153.36328125 C-133.56388723 130.06759169 -103.63325249 117.33601148 -74.5 112.4375 C-82.72918699 98.6054623 -92.33160525 89.06920866 -108.08984375 84.2109375 C-113.70648724 82.93705959 -119.37817714 82.37007344 -125.10546875 81.83203125 C-128.5 81.4375 -128.5 81.4375 -129.5 80.4375 C-129.59981214 77.7601862 -129.63879875 75.11445825 -129.625 72.4375 C-129.62886719 71.68726562 -129.63273438 70.93703125 -129.63671875 70.1640625 C-129.62661053 64.56411053 -129.62661053 64.56411053 -128.5 63.4375 C-108.15559766 63.30808268 -90.26149227 69.5709757 -74.5 82.4375 C-71.41350056 81.25436382 -71.41350056 81.25436382 -69.6328125 78.59375 C-69.46432279 75.85827004 -70.18575988 74.39799679 -71.375 71.9375 C-75.25522732 62.76237916 -75.44300333 52.93413576 -72.5 43.4375 C-64.41418853 23.74199301 -44.33212853 13.30648542 -25.70703125 5.34912109 C-17.1259121 1.80466325 -9.24198708 0.11317482 0 0 Z M72.5 292.4375 C75.44428378 294.40035585 78.40481323 295.9079839 81.5625 297.5 C86.43815075 300.04851291 89.77756297 302.49817144 93.625 306.5 C96.92596645 309.71838034 96.92596645 309.71838034 101.28125 310.6328125 C104.14032649 310.12226313 106.75247618 309.37239295 109.5 308.4375 C111.05961486 308.05067609 112.62187313 307.67422332 114.1875 307.3125 C115.280625 307.02375 116.37375 306.735 117.5 306.4375 C117.5 306.1075 117.5 305.7775 117.5 305.4375 C116.54480469 305.33953125 115.58960938 305.2415625 114.60546875 305.140625 C101.56099328 303.63199175 90.69055449 300.02196897 79.75 292.5625 C76.91801144 291.14650572 75.46467558 291.50574482 72.5 292.4375 Z " fill="#010100" transform="translate(313.5,39.5625)"/>
<path d="M0 0 C0.6084375 0.41507812 1.216875 0.83015625 1.84375 1.2578125 C12.43579857 9.29814027 19.46981607 23.20240304 22 36 C23.65190016 53.52753008 19.20650573 68.90562563 8.125 82.75 C0.49398793 91.14804679 -10.13196437 96.94426584 -21 100 C-22.65 100 -24.3 100 -26 100 C-26 92.41 -26 84.82 -26 77 C-31.28 77 -36.56 77 -42 77 C-42 84.59 -42 92.18 -42 100 C-51.95355919 99.38032316 -61.74345495 98.35686887 -71.625 97 C-72.9726108 96.81997194 -74.32026698 96.64028325 -75.66796875 96.4609375 C-85.44354396 95.13911401 -85.44354396 95.13911401 -90 94 C-90 80.47 -90 66.94 -90 53 C-95.28 53 -100.56 53 -106 53 C-106 65.87 -106 78.74 -106 92 C-115.00091839 92 -115.00091839 92 -118.28759766 91.60449219 C-119.03207153 91.5171582 -119.77654541 91.42982422 -120.5435791 91.33984375 C-121.32583862 91.24316406 -122.10809814 91.14648438 -122.9140625 91.046875 C-123.75449097 90.94665039 -124.59491943 90.84642578 -125.46081543 90.74316406 C-128.18282533 90.41699812 -130.90391108 90.08375506 -133.625 89.75 C-135.50892834 89.52226656 -137.39288037 89.29472907 -139.27685547 89.06738281 C-153.8688166 87.29766451 -168.4429552 85.40693867 -183.00439453 83.40136719 C-186.66651821 82.91069634 -190.33368327 82.45828959 -194 82 C-194 69.79 -194 57.58 -194 45 C-199.28 45 -204.56 45 -210 45 C-210 56.55 -210 68.1 -210 80 C-218.1875 79.0625 -218.1875 79.0625 -220.88525391 78.75170898 C-225.61226512 78.22147749 -230.3096783 77.85643194 -235.0625 77.625 C-240.75059511 77.20339496 -245.0966638 75.89912083 -250 73 C-251.04800781 72.38318359 -251.04800781 72.38318359 -252.1171875 71.75390625 C-259.49498343 66.84001575 -263.64736451 59.43740638 -266 51 C-266.88055277 42.83952844 -266.30216839 36.0496591 -262 29 C-261.57589844 28.30132812 -261.15179688 27.60265625 -260.71484375 26.8828125 C-255.89310368 19.76436616 -249.27540913 15.26055099 -241 13 C-238.17802561 12.66136307 -235.39377106 12.396981 -232.5625 12.1875 C-225.21929637 11.57522734 -217.91741967 10.7612427 -210.61328125 9.796875 C-209.35908134 9.63177177 -209.35908134 9.63177177 -208.07954407 9.46333313 C-204.68722671 9.01475874 -201.29531902 8.56392488 -197.90530396 8.09823608 C-185.92240716 6.45233877 -174.08997954 5.50707266 -162 5 C-162 15.56 -162 26.12 -162 37 C-156.72 37 -151.44 37 -146 37 C-146 25.45 -146 13.9 -146 2 C-134.3604077 0.53855243 -122.72024101 -0.91811545 -111.07910156 -2.3671875 C-107.97409744 -2.7537374 -104.86924927 -3.14147475 -101.76464844 -3.53125 C-98.32276467 -3.9624962 -94.88028533 -4.38852217 -91.4375 -4.8125 C-90.46047119 -4.9360083 -89.48344238 -5.0595166 -88.47680664 -5.18676758 C-87.57567139 -5.29657959 -86.67453613 -5.4063916 -85.74609375 -5.51953125 C-84.98997803 -5.61339111 -84.2338623 -5.70725098 -83.45483398 -5.80395508 C-80.31254965 -6.05490031 -77.15228875 -6 -74 -6 C-74 5.55 -74 17.1 -74 29 C-68.72 29 -63.44 29 -58 29 C-58 16.79 -58 4.58 -58 -8 C-40.67969675 -16.66015163 -14.94031969 -10.75926007 0 0 Z " fill="#FEC146" transform="translate(394,355)"/>
<path d="M0 0 C3.74621757 2.21200224 6.63433522 5.02692819 9.75 8.03515625 C11.86909742 9.98720505 11.86909742 9.98720505 15.66015625 10.20703125 C18.80181981 9.71851229 18.80181981 9.71851229 21.78515625 8.64453125 C33.58656174 7.95501093 42.78557992 7.9289132 52.09765625 15.95703125 C57.98638528 21.59012554 62.51111931 27.06950777 63.015625 35.4921875 C63.01167463 36.89720287 62.99712128 38.30222334 62.97265625 39.70703125 C62.97168945 40.76760742 62.97168945 40.76760742 62.97070312 41.84960938 C62.94181083 45.2685307 62.76264904 48.36662308 61.78515625 51.64453125 C61.2377964 55.71221977 61.2377964 55.71221977 61.78515625 59.64453125 C63.33271349 61.56698968 65.04718515 63.08514087 66.8984375 64.71484375 C73.1748432 71.13419037 75.15667095 79.71517875 75.0625 88.37890625 C74.28071877 97.58410491 70.06616186 105.99724631 63.125 112.10546875 C59.47053648 114.85255978 55.54216723 116.86480619 51.38671875 118.75 C49.59652113 119.55279747 49.59652113 119.55279747 48.78515625 121.64453125 C48.71538839 123.07531466 48.70034807 124.50899618 48.71484375 125.94140625 C48.61997689 141.00709999 46.20894638 151.1846415 35.78515625 162.64453125 C24.89811075 171.13972585 14.4775619 173.87431491 0.83740234 172.89892578 C-8.64936293 171.72295512 -18.04289363 165.93090641 -23.92578125 158.4765625 C-25.44191403 156.24084386 -26.84572888 153.97282253 -28.21484375 151.64453125 C-29.12709893 150.14184424 -30.04352314 148.64167724 -30.96484375 147.14453125 C-31.3515625 146.49484375 -31.73828125 145.84515625 -32.13671875 145.17578125 C-33.15022589 143.47939131 -33.15022589 143.47939131 -35.21484375 142.64453125 C-36.83914484 142.56593604 -38.4643949 142.50650143 -40.08984375 142.45703125 C-48.99948186 141.6746646 -56.5017119 137.87765173 -62.71484375 131.45703125 C-67.64896338 125.35349449 -70.13394438 118.57144179 -70.65234375 110.76953125 C-70.92580252 107.43452324 -71.18307965 106.68784593 -73.27734375 103.83203125 C-75.59586229 102.10547489 -77.4612719 100.97679734 -80.02734375 99.76953125 C-88.79432317 95.60893085 -93.85590915 89.14513269 -98.21484375 80.64453125 C-98.55644531 80.04382813 -98.89804687 79.443125 -99.25 78.82421875 C-102.99337509 71.05889183 -102.55084254 58.91036056 -100.08984375 50.70703125 C-99.25 48.6875 -99.25 48.6875 -98.21484375 46.64453125 C-97.80105469 45.81566406 -97.38726562 44.98679688 -96.9609375 44.1328125 C-91.03567835 33.33172702 -82.42432605 27.52177804 -70.94921875 23.5 C-65.96034019 22.3571502 -61.34627031 22.60872818 -56.26757812 22.8984375 C-52.79155382 23.00386553 -50.70763067 22.99814025 -47.8359375 20.9375 C-46.19864773 18.62162266 -45.06632031 16.44187309 -43.96484375 13.83203125 C-40.0309871 5.66356438 -33.45921639 1.04464946 -25.21484375 -2.35546875 C-16.68496523 -5.19876159 -8.0005656 -3.65770259 0 0 Z " fill="#A4E786" transform="translate(421.21484375,155.35546875)"/>
<path d="M0 0 C18.89182508 0.41479057 36.44913497 7.39501486 53 16 C51.16457612 20.81798769 48.82136825 25.30207979 46.4375 29.8671875 C43.55060155 36.15874335 42.63613581 41.80236809 42.6875 48.625 C42.69595947 49.80860107 42.69595947 49.80860107 42.70458984 51.01611328 C42.95326934 63.14724085 45.8786306 75.46817682 53.6953125 85.0859375 C55.70341517 88.03195638 55.02714214 90.07597831 54.50390625 93.46875 C53.03794277 100.83265956 50.79016021 107.8824343 48.25 114.9375 C47.92672729 115.86671265 47.92672729 115.86671265 47.59692383 116.81469727 C42.37832324 130.85423006 33.47181761 140.02526313 22.79931641 150.02270508 C21.03333557 151.68607905 19.28598545 153.36743855 17.5390625 155.05078125 C16.9974649 155.54572586 16.45586731 156.04067047 15.89785767 156.5506134 C12.15755211 160.16627237 11.23878195 162.85254339 11 168 C11 168.99 11 169.98 11 171 C9.81148438 171.14099121 8.62296875 171.28198242 7.3984375 171.42724609 C2.91042221 171.95978558 -1.57751438 172.49298589 -6.06542969 173.02636719 C-7.99314327 173.25538341 -9.92087704 173.48422984 -11.84863281 173.71289062 C-14.64914432 174.04510531 -17.44958504 174.37791004 -20.25 174.7109375 C-21.16696655 174.81977264 -22.08393311 174.92860779 -23.02868652 175.04074097 C-27.27194201 175.54645634 -31.5135416 176.0610216 -35.75195312 176.60595703 C-36.8434668 176.74585556 -36.8434668 176.74585556 -37.95703125 176.88858032 C-39.88381247 177.13722377 -41.81009276 177.38974069 -43.73632812 177.64257812 C-47.86718081 178.09496953 -51.85050685 178.14819618 -56 178 C-55.835 176.865625 -55.67 175.73125 -55.5 174.5625 C-53.08851462 151.93709301 -56.52853693 129.96559978 -70.75 111.60546875 C-77.87491326 103.27716194 -77.87491326 103.27716194 -86.359375 96.49609375 C-86.90078125 96.00238281 -87.4421875 95.50867188 -88 95 C-88.03530763 92.3563415 -87.49899673 90.05760904 -86.96875 87.47265625 C-86.78355281 84.93590484 -86.78355281 84.93590484 -88.328125 82.91796875 C-92.30158283 80.06567665 -96.6276423 78.75841645 -101.25 77.25 C-102.18585938 76.93417969 -103.12171875 76.61835938 -104.0859375 76.29296875 C-106.38730518 75.51801841 -108.69175131 74.75415508 -111 74 C-109.24009349 68.31975001 -107.26223723 62.98643002 -104.4375 57.75 C-104.09380371 57.11231689 -103.75010742 56.47463379 -103.39599609 55.81762695 C-89.15302942 30.19870183 -65.21573063 12.64117951 -37.55078125 3.96484375 C-30.43019899 2.02998806 -23.3989681 0.71338287 -16 1 C-12.77559653 4.22440347 -13.9375 13.79670467 -13.9375 18.0625 C-13.958125 20.021875 -13.97875 21.98125 -14 24 C-8.72 24 -3.44 24 2 24 C1.8583467 21.12473931 1.71181468 18.24986464 1.5625 15.375 C1.52318359 14.56675781 1.48386719 13.75851563 1.44335938 12.92578125 C1.21203918 8.54849135 0.83079083 4.31452719 0 0 Z " fill="#FEA325" transform="translate(262,168)"/>
<path d="M0 0 C2.8125 1.5625 2.8125 1.5625 5 3 C2.4577144 7.75834871 -0.16927893 12.29744301 -3.3125 16.6875 C-5.19020688 19.47252261 -5.99066051 20.95050068 -6.625 24.3125 C-5.80694973 27.83011617 -5.08235446 29.07352847 -2 31 C4.07524706 30.63018798 9.35539025 29.07739267 15.06640625 27.05859375 C16.78576456 26.46927635 18.50516693 25.88008749 20.22460938 25.29101562 C22.90052172 24.36380204 25.5751618 23.43307764 28.2487793 22.49926758 C30.85162782 21.59331691 33.45869676 20.70043771 36.06640625 19.80859375 C36.85825821 19.52737167 37.65011017 19.2461496 38.46595764 18.95640564 C47.06442174 16.02693312 53.26576256 17.08635259 61.66015625 20.0625 C62.56825546 20.37324463 63.47635468 20.68398926 64.41197205 21.00415039 C67.29906953 21.9926952 70.18115619 22.99481843 73.0625 24 C75.94757985 25.00463677 78.83358286 26.00590626 81.72373962 26.99584961 C83.51757469 27.61033369 85.30857538 28.23317375 87.09620667 28.86547852 C91.50649907 30.37700464 95.27076682 31.5427063 100 31 C102.5 29.5 102.5 29.5 104 27 C105.06354621 20.80530979 101.85527782 16.98891625 98.5 12.125 C97.97535156 11.34125 97.45070312 10.5575 96.91015625 9.75 C95.61880589 7.824714 94.31541969 5.90888516 93 4 C95.20642029 1.7248244 96.98101792 0.09781167 100 -1 C108.35938844 0.19939052 116.86784273 7.5733477 122 14 C133.60978686 29.98361281 138.31696109 45.29993448 137 65 C135.31306598 74.68693402 135.31306598 74.68693402 133 77 C131.48557029 77.274447 129.96066123 77.49154322 128.43359375 77.68359375 C127.48049316 77.80541016 126.52739258 77.92722656 125.54541016 78.05273438 C124.5197998 78.17970703 123.49418945 78.30667969 122.4375 78.4375 C121.3964209 78.57091797 120.3553418 78.70433594 119.28271484 78.84179688 C114.60201626 79.43887258 109.92060878 80.01718315 105.23046875 80.53515625 C90.9323326 82.12971321 79.06329409 85.84310097 68.88671875 96.59765625 C64.32305266 102.40853544 60.6386753 109.00339506 58.90966797 116.20898438 C58.60947754 117.46001953 58.30928711 118.71105469 58 120 C52.16918434 120.12526541 46.33918198 120.21511056 40.50732422 120.2746582 C38.53094815 120.29952736 36.5546613 120.33343555 34.57861328 120.37719727 C13.36479944 120.83462349 -4.44656355 116.7794032 -20.3581543 101.87231445 C-32.63418525 89.7440762 -39.1744383 73.19237779 -39.3125 56.0625 C-39.32792074 38.12988967 -32.58876071 22.47429942 -19.98046875 9.75 C-7.17084327 -2.45857483 -7.17084327 -2.45857483 0 0 Z " fill="#FE4659" transform="translate(55,272)"/>
<path d="M0 0 C8.20539154 4.87722338 15.12287415 12.08877066 18.08984375 21.2421875 C18.25334983 23.9719076 18.32477068 26.58138342 18.27734375 29.3046875 C18.27637695 30.36526367 18.27637695 30.36526367 18.27539062 31.44726562 C18.24649833 34.86618695 18.06733654 37.96427933 17.08984375 41.2421875 C16.5424839 45.30987602 16.5424839 45.30987602 17.08984375 49.2421875 C18.63740099 51.16464593 20.35187265 52.68279712 22.203125 54.3125 C28.4795307 60.73184662 30.46135845 69.312835 30.3671875 77.9765625 C29.58540627 87.18176116 25.37084936 95.59490256 18.4296875 101.703125 C14.77522398 104.45021603 10.84685473 106.46246244 6.69140625 108.34765625 C4.90120863 109.15045372 4.90120863 109.15045372 4.08984375 111.2421875 C4.02007589 112.67297091 4.00503557 114.10665243 4.01953125 115.5390625 C3.92466439 130.60475624 1.51363388 140.78229775 -8.91015625 152.2421875 C-20.96985402 161.65240622 -31.1847697 162.69865758 -45.91015625 162.2421875 C-43.88456833 159.65678519 -41.9550768 157.28356169 -39.53515625 155.0546875 C-29.37649711 144.17040985 -26.34106056 132.00321443 -26.76953125 117.57421875 C-26.83914063 115.92486328 -26.83914063 115.92486328 -26.91015625 114.2421875 C-26.17410156 113.85546875 -25.43804687 113.46875 -24.6796875 113.0703125 C-13.40429857 107.05279978 -6.17394468 100.47099842 -1.6015625 88.24609375 C1.51598962 74.70147467 -1.35195427 63.09996683 -8.3125 51.40625 C-9.96519539 49.16763571 -11.60888129 47.78299795 -13.91015625 46.2421875 C-13.58015625 45.0459375 -13.25015625 43.8496875 -12.91015625 42.6171875 C-10.53538607 31.76841727 -10.72007625 20.22565416 -16.52734375 10.546875 C-19.34964562 6.39215594 -22.28793656 2.7290715 -25.91015625 -0.7578125 C-18.52940744 -3.2180621 -7.26488194 -2.92826335 0 0 Z " fill="#85C782" transform="translate(465.91015625,165.7578125)"/>
<path d="M0 0 C0.66 2.97 1.32 5.94 2 9 C0.73285156 9.66386719 -0.53429687 10.32773437 -1.83984375 11.01171875 C-3.5390921 11.90358943 -5.23830918 12.79551971 -6.9375 13.6875 C-7.76830078 14.12255859 -8.59910156 14.55761719 -9.45507812 15.00585938 C-11.97438979 16.32923321 -14.4883389 17.66216695 -17 19 C-17.85867676 19.45455566 -18.71735352 19.90911133 -19.60205078 20.37744141 C-20.41528809 20.81620605 -21.22852539 21.2549707 -22.06640625 21.70703125 C-22.79931885 22.09995361 -23.53223145 22.49287598 -24.28735352 22.89770508 C-26.16157196 23.89808207 -26.16157196 23.89808207 -27 26 C-27.38569971 29.54843732 -27.54728807 31.30364285 -25.30145264 34.16119385 C-22.56897674 36.34437738 -21.31927192 36.51169038 -17.86425781 36.54589844 C-16.84350159 36.56561707 -15.82274536 36.58533569 -14.77105713 36.60565186 C-13.67613953 36.60688049 -12.58122192 36.60810913 -11.453125 36.609375 C-9.76361725 36.63417938 -9.76361725 36.63417938 -8.03997803 36.65948486 C-4.44326375 36.7080613 -0.84697258 36.72935809 2.75 36.75 C5.18882348 36.77815147 7.62762717 36.80807773 10.06640625 36.83984375 C16.04423602 36.91382345 22.02182956 36.96333962 28 37 C28 42.28 28 47.56 28 53 C26.47600586 53.0093457 24.95201172 53.01869141 23.38183594 53.02832031 C17.7309845 53.06817308 12.08068019 53.13391957 6.43017578 53.20751953 C3.98395818 53.23575635 1.53764888 53.25695731 -0.90869141 53.27099609 C-4.42398114 53.29238731 -7.93816512 53.33902038 -11.453125 53.390625 C-13.0955014 53.39246796 -13.0955014 53.39246796 -14.77105713 53.39434814 C-15.79181335 53.41406677 -16.81256958 53.4337854 -17.86425781 53.45410156 C-18.76138489 53.46298401 -19.65851196 53.47186646 -20.58282471 53.48101807 C-23.77843278 54.16713416 -24.99111187 55.47062624 -27 58 C-27.66666667 61 -27.66666667 61 -27 64 C-24.20817628 67.33113026 -21.29491132 69.06517785 -17.39453125 70.91015625 C-16.32912109 71.42513672 -15.26371094 71.94011719 -14.16601562 72.47070312 C-11.91926098 73.53715917 -9.67185806 74.60225045 -7.42382812 75.66601562 C-6.36228516 76.17970703 -5.30074219 76.69339844 -4.20703125 77.22265625 C-3.2322583 77.68422119 -2.25748535 78.14578613 -1.25317383 78.62133789 C1 80 1 80 2 83 C1.24416183 85.76435917 0.0857605 88.35074439 -1 91 C-7.03509958 90.43575329 -12.68457182 89.49321704 -18.53515625 87.93359375 C-19.29928329 87.73524429 -20.06341034 87.53689484 -20.85069275 87.33253479 C-23.25620071 86.70670419 -25.65933859 86.07227457 -28.0625 85.4375 C-29.70753237 85.00788905 -31.35271355 84.57884752 -32.99804688 84.15039062 C-37.00044578 83.10682486 -41.00074544 82.05554878 -45 81 C-42.25111607 72.73325893 -42.25111607 72.73325893 -41.12109375 69.43359375 C-40.89550781 68.77488281 -40.66992188 68.11617188 -40.4375 67.4375 C-40.09525391 66.44556641 -40.09525391 66.44556641 -39.74609375 65.43359375 C-37.71393667 58.80514422 -36.61063876 52.9206828 -36.625 46 C-36.62661133 45.17838379 -36.62822266 44.35676758 -36.62988281 43.51025391 C-36.84266631 32.6854148 -39.39651905 22.30231973 -44.265625 12.6015625 C-45 11 -45 11 -45 9 C-39.23713621 7.54559554 -33.47139433 6.1034562 -27.70263672 4.67260742 C-25.7405331 4.18410949 -23.77925882 3.69226778 -21.81884766 3.19702148 C-19.00113799 2.4858173 -16.18066647 1.78668408 -13.359375 1.08984375 C-12.48319519 0.86594467 -11.60701538 0.64204559 -10.70428467 0.41136169 C-9.88373596 0.21107864 -9.06318726 0.01079559 -8.21777344 -0.19555664 C-7.49829529 -0.37542618 -6.77881714 -0.55529572 -6.03753662 -0.74061584 C-4 -1 -4 -1 0 0 Z " fill="#A3E585" transform="translate(468,355)"/>
<path d="M0 0 C1.32 0.33 2.64 0.66 4 1 C4.34611328 2.34191406 4.34611328 2.34191406 4.69921875 3.7109375 C8.80416747 18.93007544 14.22604419 30.10833199 28.08984375 38.4609375 C34.34876574 41.7710251 40.92672559 44.23532169 48 45 C48.495 46.98 48.495 46.98 49 49 C48.39639648 49.18062988 47.79279297 49.36125977 47.17089844 49.54736328 C44.36043495 50.39543109 41.55533994 51.26014132 38.75 52.125 C37.326875 52.55039062 37.326875 52.55039062 35.875 52.984375 C30.78275579 54.56709955 26.38551825 56.31652982 21.79296875 59.03125 C12.22504386 63.98554049 1.11325598 64.22724515 -9.4375 65.375 C-11.65322994 65.63472045 -13.86872841 65.89642363 -16.08398438 66.16015625 C-20.12692104 66.63326932 -24.17011432 67.10217452 -28.21655273 67.54443359 C-29.42467873 67.67717178 -29.42467873 67.67717178 -30.6572113 67.81259155 C-31.43033157 67.87443634 -32.20345184 67.93628113 -33 68 C-33.8824086 68.07127106 -34.7648172 68.14254211 -35.67396545 68.2159729 C-36.44155685 68.14470184 -37.20914825 68.07343079 -38 68 C-38.66 67.01 -39.32 66.02 -40 65 C-39.3702124 64.39639648 -38.7404248 63.79279297 -38.09155273 63.17089844 C-35.71206164 60.87773957 -33.34512224 58.57290266 -30.98510742 56.25976562 C-29.97051832 55.26998506 -28.95144779 54.28477298 -27.92749023 53.3046875 C-18.90543317 44.65910311 -12.43789433 35.49876983 -7.875 23.75 C-7.63765137 23.1408374 -7.40030273 22.5316748 -7.15576172 21.90405273 C-4.41529705 14.72104504 -2.18767249 7.36645471 0 0 Z " fill="#789B4F" transform="translate(331,268)"/>
<path d="M0 0 C3.33137986 11.56944322 -5.32760356 27.73100714 -10.75146484 37.64257812 C-16.24983506 47.19551122 -22.44802509 56.64356671 -32.8125 61.25 C-38.75499618 62.6482344 -44.46076738 62.85895877 -50 60 C-45.71002332 54.85177898 -41.18910384 50.11803743 -36.37890625 45.45703125 C-34.93496404 44.04030733 -33.49162146 42.62297204 -32.04882812 41.20507812 C-29.79393417 38.9936663 -27.53553039 36.78637938 -25.2668457 34.58911133 C-23.06365843 32.45219244 -20.87644848 30.29997916 -18.69140625 28.14453125 C-17.66195641 27.15849663 -17.66195641 27.15849663 -16.61170959 26.15254211 C-15.67964943 25.22588997 -15.67964943 25.22588997 -14.72875977 24.28051758 C-14.17615982 23.7420369 -13.62355988 23.20355621 -13.05421448 22.64875793 C-11.77501698 21.02975464 -11.77501698 21.02975464 -12.23643494 18.9172821 C-13.20219769 16.49228949 -14.48552908 15.04576807 -16.3125 13.1875 C-16.90675781 12.56230469 -17.50101562 11.93710938 -18.11328125 11.29296875 C-19.88048011 9.78178571 -19.88048011 9.78178571 -21.8772583 10.19981384 C-24.51570255 11.19439861 -25.8680096 12.50706449 -27.85058594 14.51000977 C-28.59105164 15.25070206 -29.33151733 15.99139435 -30.09442139 16.75453186 C-30.88310608 17.55870041 -31.67179077 18.36286896 -32.484375 19.19140625 C-33.70776581 20.42116432 -33.70776581 20.42116432 -34.95587158 21.67576599 C-37.56103106 24.29772762 -40.15557079 26.92992448 -42.75 29.5625 C-44.51363369 31.34117845 -46.2779484 33.11918192 -48.04296875 34.89648438 C-52.36991403 39.2565194 -56.68818398 43.62500527 -61 48 C-64.31940634 43.83090499 -64.58411079 41.21764122 -64.39453125 35.9375 C-63.3713962 28.31970242 -59.8106321 23.32619343 -54.0625 18.375 C-42.36452173 9.48390927 -14.40340833 -9.60227222 0 0 Z " fill="#A2E484" transform="translate(320,58)"/>
<path d="M0 0 C-2.8818352 2.28005986 -5.79764802 4.00939493 -9.0625 5.6875 C-25.93701297 14.79794184 -40.68473532 28.42860991 -51.125 44.5 C-51.5156665 45.09965576 -51.90633301 45.69931152 -52.30883789 46.31713867 C-54.05454261 49.10336118 -55 50.64908571 -55 54 C-55 59.33333333 -55 64.66666667 -55 70 C-59.455 70.495 -59.455 70.495 -64 71 C-64.99 73.31 -65.98 75.62 -67 78 C-72.14595054 77.42381249 -76.55078055 76.25256722 -81.4375 74.4375 C-82.67371094 73.98246094 -83.90992188 73.52742188 -85.18359375 73.05859375 C-86.57771484 72.53458984 -86.57771484 72.53458984 -88 72 C-80.96722367 46.94573432 -62.09805849 25.90340224 -40.00488281 12.81835938 C-28.01052165 6.1202858 -13.93340576 -0.32403269 0 0 Z " fill="#FA8005" transform="translate(239,170)"/>
<path d="M0 0 C12.62493181 0.6644701 25.08613926 2.12843672 37.62683105 3.70263672 C41.42118873 4.17807807 45.21596053 4.65019151 49.01066589 5.12284851 C62.0079392 6.74196493 75.00420113 8.36909569 88 10 C88 15.28 88 20.56 88 26 C78.99908161 26 78.99908161 26 75.71240234 25.60449219 C74.59569153 25.47349121 74.59569153 25.47349121 73.4564209 25.33984375 C72.67416138 25.24316406 71.89190186 25.14648438 71.0859375 25.046875 C69.8252948 24.89653809 69.8252948 24.89653809 68.53918457 24.74316406 C65.81717467 24.41699812 63.09608892 24.08375506 60.375 23.75 C58.49107166 23.52226656 56.60711963 23.29472907 54.72314453 23.06738281 C40.0643334 21.28955692 25.42594232 19.37724529 10.79589844 17.37695312 C7.20020568 16.89216884 3.60139168 16.44026793 0 16 C0 10.72 0 5.44 0 0 Z " fill="#FCA225" transform="translate(200,421)"/>
<path d="M0 0 C1.49559965 4.94607758 1.06102876 9.87358444 1 15 C6.28 15 11.56 15 17 15 C16.505 7.575 16.505 7.575 16 0 C23.80077818 0.30792545 30.93292983 1.51609704 38.5 3.375 C39.37237305 3.58406982 40.24474609 3.79313965 41.14355469 4.00854492 C48.79764791 5.95776551 48.79764791 5.95776551 52 9 C51.49025635 9.26216309 50.9805127 9.52432617 50.45532227 9.79443359 C48.15456751 10.98197075 45.85852705 12.17834961 43.5625 13.375 C42.76005859 13.7875 41.95761719 14.2 41.13085938 14.625 C40.36708984 15.02460938 39.60332031 15.42421875 38.81640625 15.8359375 C38.10943604 16.20251465 37.40246582 16.5690918 36.67407227 16.94677734 C34.8319762 17.90361984 34.8319762 17.90361984 34 20 C33.71856896 24.22146566 34.19901879 27.17291493 36 31 C29.50072117 30.32676793 23.84133619 28.31730389 17.75976562 25.99609375 C8.95088886 22.8516783 2.17938433 25.03018671 -6.3125 28.0625 C-7.89049225 28.61996371 -9.46986987 29.17352555 -11.05078125 29.72265625 C-11.73825439 29.96765869 -12.42572754 30.21266113 -13.1340332 30.46508789 C-15 31 -15 31 -18 31 C-17.67 30.29875 -17.34 29.5975 -17 28.875 C-15.86711096 25.617944 -15.56301816 23.42302438 -16 20 C-19.06070209 16.2007703 -22.92380017 14.29878976 -27.25 12.25 C-28.22453125 11.77626953 -28.22453125 11.77626953 -29.21875 11.29296875 C-30.80893701 10.52126035 -32.40399229 9.75959725 -34 9 C-33 7 -33 7 -29.3515625 5.78125 C-27.77872502 5.34438808 -26.20298028 4.91790467 -24.625 4.5 C-23.80950684 4.27932861 -22.99401367 4.05865723 -22.15380859 3.83129883 C-14.84513837 1.88873503 -7.5958791 0 0 0 Z " fill="#A1E384" transform="translate(95,249)"/>
<path d="M0 0 C1.32 0.33 2.64 0.66 4 1 C4.23074219 1.89460938 4.46148437 2.78921875 4.69921875 3.7109375 C8.3777346 17.34907138 13.25691273 28.4595729 25 37 C24.67 37.99 24.34 38.98 24 40 C21.48046875 40.95703125 21.48046875 40.95703125 18.1875 41.8125 C13.46896574 43.13942766 9.50299827 44.70061402 5.25 47.125 C-4.00587621 52.00559518 -14.71639029 52.13442627 -25 52 C-23.66273027 49.0138637 -22.18295682 47.04722214 -19.875 44.75 C-9.01696623 32.43074016 -4.77425888 15.3206121 0 0 Z " fill="#95B75A" transform="translate(331,268)"/>
<path d="M0 0 C0.4846875 0.37511719 0.969375 0.75023437 1.46875 1.13671875 C11.35609064 8.68532305 20.04663762 13.99663045 32.625 15.0625 C34.19809942 15.21558136 35.77101574 15.37055524 37.34375 15.52734375 C38.12105469 15.6032373 38.89835937 15.67913086 39.69921875 15.75732422 C45.15586232 16.33286578 50.57381748 17.19184516 56 18 C56 23.28 56 28.56 56 34 C54.85144531 33.86722656 53.70289063 33.73445313 52.51953125 33.59765625 C50.95055024 33.41901241 49.38153753 33.24064673 47.8125 33.0625 C46.58478882 32.92110596 46.58478882 32.92110596 45.33227539 32.77685547 C40.53220389 32.23699413 35.76398797 31.86001901 30.9375 31.625 C25.24940489 31.20339496 20.9033362 29.89912083 16 27 C15.30132812 26.58878906 14.60265625 26.17757813 13.8828125 25.75390625 C6.72667483 20.98764852 1.94622224 13.36875564 0 5 C-0.02439953 3.33351194 -0.02791345 1.6664329 0 0 Z " fill="#FBA125" transform="translate(128,401)"/>
<path d="M0 0 C7.94758495 -0.14462107 15.55859058 0.36525683 23.4375 1.375 C24.47970703 1.50132812 25.52191406 1.62765625 26.59570312 1.7578125 C33.76734102 2.64704225 40.87855724 3.77308477 48 5 C48 10.28 48 15.56 48 21 C38.04644081 20.38032316 28.25654505 19.35686887 18.375 18 C17.0273892 17.81997194 15.67973302 17.64028325 14.33203125 17.4609375 C4.55645604 16.13911401 4.55645604 16.13911401 0 15 C0 10.05 0 5.1 0 0 Z " fill="#FCA225" transform="translate(304,434)"/>
<path d="M0 0 C0.92232925 0.31074463 1.84465851 0.62148926 2.79493713 0.94165039 C5.72221298 1.9304056 8.64426074 2.9336967 11.56640625 3.9375 C13.5576147 4.61294692 15.54914813 5.28743659 17.54101562 5.9609375 C22.40747819 7.60873291 27.26930715 9.26957735 32.12890625 10.9375 C31.79890625 11.5975 31.46890625 12.2575 31.12890625 12.9375 C32.0633716 14.96894641 33.06115401 16.97283587 34.12890625 18.9375 C28.11684549 17.72362657 22.39761374 16.13300773 16.62109375 14.08203125 C15.04187611 13.53650269 13.46244248 12.99159907 11.8828125 12.44726562 C9.43391572 11.59790454 6.98693283 10.74399244 4.54345703 9.87915039 C2.15719502 9.03720692 -0.23504769 8.21458346 -2.62890625 7.39453125 C-3.35199982 7.13315872 -4.07509338 6.87178619 -4.82009888 6.60249329 C-12.81910734 3.89588878 -19.29192069 6.22595678 -26.98046875 8.9140625 C-28.72130958 9.5079432 -30.46219634 10.1016893 -32.203125 10.6953125 C-34.92534285 11.63183044 -37.64650153 12.57130213 -40.36669922 13.51367188 C-43.00624517 14.42559258 -45.64932717 15.3265974 -48.29296875 16.2265625 C-49.10860291 16.51294586 -49.92423706 16.79932922 -50.7645874 17.09439087 C-56.53166517 19.05064286 -56.53166517 19.05064286 -59.87109375 17.9375 C-56.01515125 10.75746914 -52.71853807 8.72932041 -44.94921875 6.1171875 C-43.78190216 5.72190353 -43.78190216 5.72190353 -42.59100342 5.31863403 C-40.9442995 4.76321405 -39.29675354 4.21028524 -37.6484375 3.65966797 C-35.14072613 2.81908079 -32.63879452 1.96266137 -30.13671875 1.10546875 C-28.53288293 0.56672242 -26.92872594 0.02893105 -25.32421875 -0.5078125 C-24.58230286 -0.76402374 -23.84038696 -1.02023499 -23.07598877 -1.28421021 C-14.57942289 -4.07990963 -8.27651626 -2.87177496 0 0 Z " fill="#EA2F47" transform="translate(116.87109375,292.0625)"/>
<path d="M0 0 C1.46044978 2.92089955 0.44379165 4.4377164 -0.5625 7.5 C-6.34879145 24.10327616 -16.57251787 34.05699821 -32.0703125 41.703125 C-37.02845293 43.8979285 -40.50668336 45 -46 45 C-46 39.72 -46 34.44 -46 29 C-43.64875 28.505 -41.2975 28.01 -38.875 27.5 C-22.65486423 23.65479533 -9.29026336 13.85986445 0 0 Z " fill="#FBA225" transform="translate(414,410)"/>
<path d="M0 0 C1.3094012 3.9282036 0.0748981 6.16796692 -1.4375 9.8125 C-1.84585083 10.80685059 -1.84585083 10.80685059 -2.26245117 11.82128906 C-7.31723972 23.77129128 -14.4393148 39.5041358 -26.375 45.625 C-32.80067373 48.06232452 -38.38722696 49.17968099 -45.0625 47 C-45.701875 46.67 -46.34125 46.34 -47 46 C-45.02556051 43.64030402 -43.02343219 41.31701052 -41 39 C-40.505 38.39027344 -40.01 37.78054687 -39.5 37.15234375 C-35.9382374 33.1008388 -32.72967357 31.3393305 -27.625 29.5625 C-14.42959459 24.84231498 -7.02371848 13.58934713 -0.71484375 1.546875 C-0.47894531 1.03640625 -0.24304688 0.5259375 0 0 Z " fill="#83C47F" transform="translate(317,72)"/>
<path d="M0 0 C14.97970598 0.48321632 29.02054606 6.94685622 42 14 C40.45657029 18.08105062 38.50065501 21.41572782 36 25 C32.14036237 22.17294075 28.34522717 19.35593641 24.8125 16.125 C17.541309 9.78772344 8.69308196 5.0908621 0 1 C0 0.67 0 0.34 0 0 Z " fill="#FABE45" transform="translate(273,170)"/>
<path d="M0 0 C5.28 0 10.56 0 16 0 C16 5.28 16 10.56 16 16 C10.72 16 5.44 16 0 16 C0 10.72 0 5.44 0 0 Z " fill="#000000" transform="translate(232,408)"/>
<path d="M0 0 C5.28 0 10.56 0 16 0 C16 5.28 16 10.56 16 16 C10.72 16 5.44 16 0 16 C0 10.72 0 5.44 0 0 Z " fill="#000000" transform="translate(352,400)"/>
<path d="M0 0 C5.28 0 10.56 0 16 0 C16 5.28 16 10.56 16 16 C10.72 16 5.44 16 0 16 C0 10.72 0 5.44 0 0 Z " fill="#000000" transform="translate(200,256)"/>
<path d="M0 0 C5.28 0 10.56 0 16 0 C16 5.28 16 10.56 16 16 C10.72 16 5.44 16 0 16 C0 10.72 0 5.44 0 0 Z " fill="#000000" transform="translate(200,224)"/>
<path d="M0 0 C5.28 0 10.56 0 16 0 C16 5.28 16 10.56 16 16 C10.72 16 5.44 16 0 16 C0 10.72 0 5.44 0 0 Z " fill="#000000" transform="translate(168,224)"/>
<path d="M0 0 C2.60158896 1.12501144 4.94461749 2.44396292 7.3125 4 C6.3225 5.98 5.3325 7.96 4.3125 10 C3.755625 9.649375 3.19875 9.29875 2.625 8.9375 C-0.32034506 7.74344119 -1.6431823 8.17830363 -4.6875 9 C-11.50496248 12.20821764 -17.01332954 16.81214219 -22.4609375 21.94921875 C-24.45628144 23.78703554 -26.48729588 25.41766142 -28.6875 27 C-24.62341799 15.78941628 -14.5811354 6.72692517 -4.46484375 0.77734375 C-2.6875 0 -2.6875 0 0 0 Z " fill="#E72E46" transform="translate(52.6875,271)"/>
<path d="M0 0 C11.16468553 6.05252477 18.06587647 13.52504743 25 24 C24.67 24.66 24.34 25.32 24 26 C23.42894531 25.3709375 22.85789063 24.741875 22.26953125 24.09375 C15.44820011 16.89285354 6.36262866 8.03984855 -4 7 C-6.26857146 7.84077872 -6.26857146 7.84077872 -8 9 C-8.99 7.02 -9.98 5.04 -11 3 C-3.88817377 -1.51327434 -3.88817377 -1.51327434 0 0 Z " fill="#E82E46" transform="translate(159,272)"/>
<path d="M0 0 C8 0 8 0 9.91015625 1.21484375 C12.41985861 4.96663609 13.30329221 7.37601945 12.8125 11.9375 C12.544375 13.278125 12.27625 14.61875 12 16 C8.04 16 4.08 16 0 16 C0 10.72 0 5.44 0 0 Z " fill="#F1E0A4" transform="translate(304,248)"/>
<path d="M0 0 C4.29 0 8.58 0 13 0 C13 5.28 13 10.56 13 16 C10.03 16 7.06 16 4 16 C3.67 14.68 3.34 13.36 3 12 C3.33 11.67 3.66 11.34 4 11 C4.41809201 8.16848027 4.41809201 8.16848027 4 5 C2.68 3.35 1.36 1.7 0 0 Z " fill="#F3E1A5" transform="translate(171,248)"/>
<path d="M0 0 C1.77388086 1.09926403 3.54399684 2.20460502 5.3125 3.3125 C6.79169922 4.23482422 6.79169922 4.23482422 8.30078125 5.17578125 C10.50172035 6.66324661 12.23328988 8.0403386 14 10 C8.44542412 11.89091945 3.86928404 12.18059336 -2 12 C-1.34 8.04 -0.68 4.08 0 0 Z " fill="#EDDA9E" transform="translate(208,334)"/>
<path d="M0 0 C0 0.33 0 0.66 0 1 C-0.92941406 1.06058594 -1.85882813 1.12117187 -2.81640625 1.18359375 C-4.67072266 1.30927734 -4.67072266 1.30927734 -6.5625 1.4375 C-8.47675781 1.56705078 -8.47675781 1.56705078 -10.4296875 1.69921875 C-13.08615029 1.92301266 -15.58172785 2.23674185 -18.1875 2.75 C-21 3 -21 3 -22.9375 1.6875 C-24 0 -24 0 -24 -2 C-16.03412617 -4.65529128 -7.46645093 -3.51362397 0 0 Z " fill="#7EBD7A" transform="translate(420,155)"/>
<path d="M0 0 C0.26554687 0.60328125 0.53109375 1.2065625 0.8046875 1.828125 C2.03600928 4.06542862 3.13278943 5.19087868 5.125 6.75 C6.07375 7.4925 7.0225 8.235 8 9 C6.35 10.98 4.7 12.96 3 15 C0.03090402 11.72698081 -0.34354794 9.61934238 -0.1875 5.25 C-0.16042969 4.26515625 -0.13335937 3.2803125 -0.10546875 2.265625 C-0.07066406 1.51796875 -0.03585938 0.7703125 0 0 Z " fill="#80BF7B" transform="translate(256,91)"/>
</svg>
