<?xml version="1.0" encoding="UTF-8"?>
<!DOCTYPE svg PUBLIC "-//W3C//DTD SVG 1.1//EN" "http://www.w3.org/Graphics/SVG/1.1/DTD/svg11.dtd">
<svg xmlns="http://www.w3.org/2000/svg" version="1.1" width="512px" height="512px" style="shape-rendering:geometricPrecision; text-rendering:geometricPrecision; image-rendering:optimizeQuality; fill-rule:evenodd; clip-rule:evenodd" xmlns:xlink="http://www.w3.org/1999/xlink">
<g><path style="opacity:0.984" fill="#020202" d="M 241.5,-0.5 C 250.833,-0.5 260.167,-0.5 269.5,-0.5C 319.312,10.9907 346.312,42.324 350.5,93.5C 350.088,105.56 347.755,117.226 343.5,128.5C 343.833,128.833 344.167,129.167 344.5,129.5C 366.131,122.568 387.797,115.734 409.5,109C 424.159,106.744 434.659,112.244 441,125.5C 442.429,136.088 442.929,146.755 442.5,157.5C 474.497,155.505 488.164,170.505 483.5,202.5C 497.366,201.736 506.699,207.736 511.5,220.5C 511.5,306.167 511.5,391.833 511.5,477.5C 507.589,487.572 500.256,493.405 489.5,495C 428.831,495.167 368.164,495.667 307.5,496.5C 303.968,504.039 298.301,509.039 290.5,511.5C 267.167,511.5 243.833,511.5 220.5,511.5C 212.699,509.039 207.032,504.039 203.5,496.5C 142.836,495.667 82.1694,495.167 21.5,495C 10.7197,493.376 3.38637,487.543 -0.5,477.5C -0.5,391.833 -0.5,306.167 -0.5,220.5C 4.30064,207.736 13.634,201.736 27.5,202.5C 22.8363,170.505 36.5029,155.505 68.5,157.5C 68.0712,146.755 68.5712,136.088 70,125.5C 77.5657,110.858 89.399,105.692 105.5,110C 147.408,123.47 189.408,136.636 231.5,149.5C 236.985,143.515 242.652,137.681 248.5,132C 256.393,126.886 264.726,122.553 273.5,119C 288.168,105.977 290.335,91.1434 280,74.5C 263.667,58.5 247.333,58.5 231,74.5C 225.695,83.3827 223.028,93.0494 223,103.5C 215.335,121.583 201.835,128.417 182.5,124C 168.601,118.419 161.268,108.086 160.5,93C 164.88,42.1266 191.88,10.96 241.5,-0.5 Z"/></g>
<g><path style="opacity:1" fill="#0472cc" d="M 258.5,208.5 C 247.295,182.038 252.295,158.872 273.5,139C 282.871,133.999 292.204,128.999 301.5,124C 319.381,104.959 320.047,85.292 303.5,65C 296.93,59.8674 289.597,56.3674 281.5,54.5C 258.102,42.2845 237.269,45.6178 219,64.5C 211.949,73.6092 208.616,83.9426 209,95.5C 207.688,103.311 203.188,107.978 195.5,109.5C 191.435,104.422 189.435,98.5888 189.5,92C 190.507,69.9645 198.34,50.7979 213,34.5C 219.627,28.457 226.461,22.7904 233.5,17.5C 277.109,8.55519 308.942,23.8885 329,63.5C 341.69,103.596 331.19,136.096 297.5,161C 291.288,164.273 284.954,167.273 278.5,170C 275.131,172.365 272.964,175.532 272,179.5C 271.886,186.579 271.219,193.579 270,200.5C 267.62,205.272 263.787,207.939 258.5,208.5 Z"/></g>
<g><path style="opacity:1" fill="#0065c1" d="M 233.5,17.5 C 226.461,22.7904 219.627,28.457 213,34.5C 198.34,50.7979 190.507,69.9645 189.5,92C 189.435,98.5888 191.435,104.422 195.5,109.5C 186.049,110.548 179.883,106.548 177,97.5C 176.88,57.4526 195.713,30.7859 233.5,17.5 Z"/></g>
<g><path style="opacity:1" fill="#f8f6f7" d="M 246.5,222.5 C 247.423,226.064 247.756,229.731 247.5,233.5C 228.58,240.331 221.414,253.664 226,273.5C 229.495,284.163 236.661,290.83 247.5,293.5C 247.832,337.003 247.499,380.337 246.5,423.5C 212.434,413.312 178.434,402.812 144.5,392C 139.438,390.393 135.772,391.893 133.5,396.5C 127.852,394.784 122.185,392.951 116.5,391C 115.891,389.052 115.224,387.218 114.5,385.5C 113.653,383.156 111.986,381.656 109.5,381C 101.572,379.137 94.0718,376.304 87,372.5C 85.5611,370.725 84.5611,368.725 84,366.5C 83.3333,288.5 83.3333,210.5 84,132.5C 87.1417,125.061 92.6417,122.561 100.5,125C 142.141,138.269 183.808,151.436 225.5,164.5C 225.833,165 226.167,165.5 226.5,166C 224.972,172.221 224.305,178.554 224.5,185C 222.777,198.17 226.777,209.17 236.5,218C 239.533,220.208 242.866,221.708 246.5,222.5 Z"/></g>
<g><path style="opacity:1" fill="#f8f6f7" d="M 265.5,423.5 C 263.505,380.513 262.839,337.18 263.5,293.5C 278.671,288.854 286.338,278.521 286.5,262.5C 286.138,251.608 281.472,243.108 272.5,237C 269.395,235.132 266.062,233.965 262.5,233.5C 262.335,230.15 262.502,226.817 263,223.5C 281.48,216.233 289.48,202.567 287,182.5C 304.66,175.832 319.16,164.999 330.5,150C 356.833,141.667 383.167,133.333 409.5,125C 417.694,122.405 423.527,124.905 427,132.5C 427.991,211.557 427.658,290.557 426,369.5C 424.749,372.381 422.583,374.214 419.5,375C 368.153,391.283 316.82,407.45 265.5,423.5 Z"/></g>
<g><path style="opacity:1" fill="#0065c1" d="M 281.5,54.5 C 289.597,56.3674 296.93,59.8674 303.5,65C 320.047,85.292 319.381,104.959 301.5,124C 292.204,128.999 282.871,133.999 273.5,139C 252.295,158.872 247.295,182.038 258.5,208.5C 251.065,209.874 245.231,207.207 241,200.5C 234.667,166.675 247.833,144.175 280.5,133C 299.658,118.524 305.825,99.6903 299,76.5C 295.174,67.5138 289.34,60.1805 281.5,54.5 Z"/></g>
<g><path style="opacity:1" fill="#dbd8ea" d="M 114.5,385.5 C 115.224,387.218 115.891,389.052 116.5,391C 122.185,392.951 127.852,394.784 133.5,396.5C 132.856,401.385 134.856,404.552 139.5,406C 160.38,412.969 181.38,419.469 202.5,425.5C 152.669,426.499 102.669,426.832 52.5,426.5C 47.6171,425.454 44.4504,422.454 43,417.5C 42.3333,339.167 42.3333,260.833 43,182.5C 44.4421,178.725 46.9421,175.892 50.5,174C 56.4908,173.501 62.4908,173.334 68.5,173.5C 68.3333,238.501 68.5,303.501 69,368.5C 71.0666,378.151 76.5666,384.984 85.5,389C 92.6908,391.675 100.024,393.842 107.5,395.5C 113.237,394.724 115.57,391.391 114.5,385.5 Z"/></g>
<g><path style="opacity:1" fill="#dbd8ea" d="M 475.5,240.5 C 475.5,247.167 475.5,253.833 475.5,260.5C 472.805,260.933 470.638,262.266 469,264.5C 468.667,315.5 468.333,366.5 468,417.5C 466.256,422.079 463.09,425.079 458.5,426.5C 408.331,426.832 358.331,426.499 308.5,425.5C 348.179,413.107 387.846,400.607 427.5,388C 435.109,383.637 439.942,377.137 442,368.5C 442.5,303.501 442.667,238.501 442.5,173.5C 449.257,173.123 455.924,173.623 462.5,175C 465.106,176.938 466.939,179.438 468,182.5C 468.333,200.5 468.667,218.5 469,236.5C 470.272,239.222 472.439,240.556 475.5,240.5 Z"/></g>
<g><path style="opacity:1" fill="#fd9637" d="M 21.5,218.5 C 23.5,218.5 25.5,218.5 27.5,218.5C 27.1674,294.002 27.5007,369.335 28.5,444.5C 30.3492,456.853 37.3492,464.687 49.5,468C 186.167,468.667 322.833,468.667 459.5,468C 472.667,465.5 480.5,457.667 483,444.5C 483.667,385.167 483.667,325.833 483,266.5C 481.52,263.183 479.02,261.183 475.5,260.5C 475.5,253.833 475.5,247.167 475.5,240.5C 479.108,240.536 481.441,238.869 482.5,235.5C 483.489,230.025 483.822,224.358 483.5,218.5C 485.5,218.5 487.5,218.5 489.5,218.5C 492.428,219.591 494.594,221.591 496,224.5C 496.992,308.223 496.658,391.89 495,475.5C 493.786,477.049 492.286,478.215 490.5,479C 426.833,479.333 363.167,479.667 299.5,480C 298.5,480.833 297.5,481.667 296.5,482.5C 295.601,487.88 292.934,492.047 288.5,495C 277.402,496.134 266.235,496.634 255,496.5C 244.833,496.333 234.667,496.167 224.5,496C 218.635,493.458 215.301,488.958 214.5,482.5C 213.335,481.416 212.002,480.583 210.5,480C 147.167,479.667 83.8333,479.333 20.5,479C 18.714,478.215 17.214,477.049 16,475.5C 14.3416,391.557 14.0083,307.557 15,223.5C 16.7772,221.21 18.9438,219.543 21.5,218.5 Z"/></g>
<g><path style="opacity:1" fill="#734419" d="M 21.5,218.5 C 23.6074,217.532 25.9407,217.198 28.5,217.5C 28.5,293.167 28.5,368.833 28.5,444.5C 27.5007,369.335 27.1674,294.002 27.5,218.5C 25.5,218.5 23.5,218.5 21.5,218.5 Z"/></g>
<g><path style="opacity:1" fill="#7f4b1b" d="M 489.5,218.5 C 487.5,218.5 485.5,218.5 483.5,218.5C 483.822,224.358 483.489,230.025 482.5,235.5C 482.5,229.5 482.5,223.5 482.5,217.5C 485.059,217.198 487.393,217.532 489.5,218.5 Z"/></g>
<g><path style="opacity:1" fill="#706f70" d="M 246.5,222.5 C 247.787,223.871 248.453,225.705 248.5,228C 248.494,230.033 248.161,231.866 247.5,233.5C 247.756,229.731 247.423,226.064 246.5,222.5 Z"/></g>
<g><path style="opacity:1" fill="#0065c1" d="M 258.5,247.5 C 250.507,258.128 250.507,268.794 258.5,279.5C 246.464,280.491 240.131,274.991 239.5,263C 239.581,256.905 242.248,252.238 247.5,249C 251.026,247.663 254.692,247.163 258.5,247.5 Z"/></g>
<g><path style="opacity:1" fill="#0471cb" d="M 258.5,247.5 C 272.098,252.673 275.265,261.673 268,274.5C 265.404,277.265 262.237,278.932 258.5,279.5C 250.507,268.794 250.507,258.128 258.5,247.5 Z"/></g>
<g><path style="opacity:1" fill="#7b7a7b" d="M 247.5,293.5 C 248.831,337.002 248.831,380.669 247.5,424.5C 246.893,424.376 246.56,424.043 246.5,423.5C 247.499,380.337 247.832,337.003 247.5,293.5 Z"/></g>
<g><path style="opacity:1" fill="#7b7a7b" d="M 263.5,293.5 C 262.839,337.18 263.505,380.513 265.5,423.5C 264.791,424.404 263.791,424.737 262.5,424.5C 262.168,380.663 262.501,336.997 263.5,293.5 Z"/></g>
<g><path style="opacity:1" fill="#84828e" d="M 202.5,425.5 C 203.473,425.987 204.473,426.487 205.5,427C 154.332,427.832 103.332,427.665 52.5,426.5C 102.669,426.832 152.669,426.499 202.5,425.5 Z"/></g>
<g><path style="opacity:1" fill="#84828e" d="M 308.5,425.5 C 358.331,426.499 408.331,426.832 458.5,426.5C 407.668,427.665 356.668,427.832 305.5,427C 306.527,426.487 307.527,425.987 308.5,425.5 Z"/></g>
<g><path style="opacity:1" fill="#cfcce5" d="M 42.5,439.5 C 45.054,440.606 47.7206,441.439 50.5,442C 186.833,442.667 323.167,442.667 459.5,442C 469.206,437.865 471.039,440.365 465,449.5C 463.2,451.317 461.034,452.484 458.5,453C 322.833,453.667 187.167,453.667 51.5,453C 45.8817,450.268 42.8817,445.768 42.5,439.5 Z"/></g>
</svg>
