<?xml version="1.0" encoding="UTF-8"?>
<svg version="1.1" xmlns="http://www.w3.org/2000/svg" width="512" height="512">
<path d="M0 0 C1.01790619 0.00215515 2.03581238 0.0043103 3.08456421 0.00653076 C17.69363523 0.05620146 32.02575853 0.30709809 46.375 3.3125 C47.34985352 3.51117676 48.32470703 3.70985352 49.32910156 3.91455078 C97.7109774 14.03517194 141.69928269 35.9516877 177.375 70.3125 C178.3640332 71.26068604 178.3640332 71.26068604 179.37304688 72.22802734 C188.86130305 81.37247479 197.6012044 90.66984009 205.375 101.3125 C206.23306152 102.46355017 207.09113451 103.61459177 207.94921875 104.765625 C213.98736829 112.95680614 219.34595521 121.47054105 224.375 130.3125 C224.73948242 130.94430176 225.10396484 131.57610352 225.47949219 132.22705078 C247.00981855 169.84336237 256.83759735 212.56515288 256.75 255.625 C256.74918427 257.13927582 256.74918427 257.13927582 256.74835205 258.68414307 C256.70758601 275.19373539 255.80029309 291.11032001 252.375 307.3125 C252.15537598 308.35438477 251.93575195 309.39626953 251.70947266 310.46972656 C241.61185215 356.76299311 219.25271242 399.17663721 186.375 433.3125 C185.74287598 433.97185547 185.11075195 434.63121094 184.45947266 435.31054688 C175.31502521 444.79880305 166.01765991 453.5387044 155.375 461.3125 C154.22394983 462.17056152 153.07290823 463.02863451 151.921875 463.88671875 C143.73224019 469.92427396 135.22961724 475.30707302 126.375 480.3125 C125.66778809 480.7146875 124.96057617 481.116875 124.23193359 481.53125 C98.08310864 496.25326273 69.06392291 505.94868847 39.375 510.3125 C38.17617188 510.48982666 36.97734375 510.66715332 35.7421875 510.84985352 C23.91616559 512.47838616 12.17341476 512.67152724 0.25 512.625 C-0.74422974 512.62284485 -1.73845947 512.6206897 -2.76281738 512.61846924 C-17.23109955 512.56813314 -31.41189071 512.27101704 -45.625 509.3125 C-46.60130371 509.11382324 -47.57760742 508.91514648 -48.58349609 508.71044922 C-91.85126033 499.65819013 -132.05154748 481.27362518 -165.625 452.3125 C-166.37007813 451.67828125 -167.11515625 451.0440625 -167.8828125 450.390625 C-181.38779833 438.57948485 -194.05918743 425.82889772 -204.625 411.3125 C-205.48149066 410.16255169 -206.33826433 409.01281411 -207.1953125 407.86328125 C-213.23534209 399.67315742 -218.61867614 391.16870382 -223.625 382.3125 C-224.0271875 381.60528809 -224.429375 380.89807617 -224.84375 380.16943359 C-237.8691741 357.03404164 -246.61801461 331.86287591 -251.9375 305.875 C-252.08485596 305.15610596 -252.23221191 304.43721191 -252.3840332 303.6965332 C-255.35789088 288.05024391 -255.99800362 272.57681954 -255.9375 256.6875 C-255.93534485 255.66959381 -255.9331897 254.65168762 -255.93096924 253.60293579 C-255.88129854 238.99386477 -255.63040191 224.66174147 -252.625 210.3125 C-252.42632324 209.33764648 -252.22764648 208.36279297 -252.02294922 207.35839844 C-241.90232806 158.9765226 -219.9858123 114.98821731 -185.625 79.3125 C-184.99287598 78.65314453 -184.36075195 77.99378906 -183.70947266 77.31445312 C-174.56502521 67.82619695 -165.26765991 59.0862956 -154.625 51.3125 C-153.47394983 50.45443848 -152.32290823 49.59636549 -151.171875 48.73828125 C-142.98224019 42.70072604 -134.47961724 37.31792698 -125.625 32.3125 C-124.91778809 31.9103125 -124.21057617 31.508125 -123.48193359 31.09375 C-100.34654164 18.0683259 -75.17537591 9.31948539 -49.1875 4 C-48.46860596 3.85264404 -47.74971191 3.70528809 -47.0090332 3.5534668 C-31.36274391 0.57960912 -15.88931954 -0.06050362 0 0 Z " fill="#FECC00" transform="translate(255.625,-0.3125)"/>
<path d="M0 0 C10.64957341 8.93190028 17.08262351 20.37366176 22.35546875 33.0078125 C23.05671875 32.67007813 23.75796875 32.33234375 24.48046875 31.984375 C25.42921875 31.53835937 26.37796875 31.09234375 27.35546875 30.6328125 C28.28359375 30.19195312 29.21171875 29.75109375 30.16796875 29.296875 C44.49258789 23.5038305 62.47699471 23.93314902 76.83984375 29.4609375 C95.07150671 37.4828692 107.50863319 50.1021647 115.1640625 68.48828125 C120.77076943 85.05104501 119.81218808 102.46866731 112.84765625 118.47265625 C109.05505714 126.03139447 104.34910895 132.07726325 98.35546875 138.0078125 C97.76507813 138.63171875 97.1746875 139.255625 96.56640625 139.8984375 C86.51735154 149.72614739 72.96180873 154.13107595 59.35546875 156.0078125 C59.33564941 156.5754834 59.31583008 157.1431543 59.29541016 157.72802734 C58.51106125 179.83279956 57.40768992 201.91116787 56.35546875 224.0078125 C-7.99453125 224.0078125 -72.34453125 224.0078125 -138.64453125 224.0078125 C-139.55654247 220.3597676 -139.8669105 217.32313026 -140.03344727 213.58691406 C-140.09343399 212.28586731 -140.15342072 210.98482056 -140.21522522 209.64434814 C-140.27638318 208.22904836 -140.33745185 206.81374472 -140.3984375 205.3984375 C-140.46391368 203.94682231 -140.5297502 202.49522333 -140.59593201 201.04364014 C-140.76884808 197.22978892 -140.9368753 193.41573748 -141.10388184 189.60162354 C-141.27528406 185.70693906 -141.45131385 181.81246404 -141.62695312 177.91796875 C-141.9706726 170.28144736 -142.30922704 162.6447085 -142.64453125 155.0078125 C-144.28772339 155.02726929 -144.28772339 155.02726929 -145.96411133 155.04711914 C-160.54843035 154.89135958 -173.76877691 144.86583658 -183.64453125 135.0078125 C-184.20785156 134.45609375 -184.77117187 133.904375 -185.3515625 133.3359375 C-195.9102135 122.08080556 -200.70184803 106.60511844 -201.08203125 91.4453125 C-200.44055558 72.36141143 -194.03975134 55.96892897 -180.18359375 42.640625 C-164.74458731 29.19374843 -147.67763707 24.78592115 -127.64453125 26.0078125 C-119.26486668 26.82534075 -111.46806625 30.05425894 -103.64453125 33.0078125 C-103.54269531 32.14671875 -103.44085938 31.285625 -103.3359375 30.3984375 C-100.53781621 16.67657715 -89.84584941 4.91163923 -78.78515625 -2.953125 C-53.61054054 -19.29783819 -23.89939835 -18.00397808 0 0 Z " fill="#E6E5E5" transform="translate(297.64453125,131.9921875)"/>
<path d="M0 0 C1.9375 0.8125 1.9375 0.8125 4 2 C4.33 2.99 4.66 3.98 5 5 C5.66 5 6.32 5 7 5 C7 5.66 7 6.32 7 7 C7.99 7.33 8.98 7.66 10 8 C10 8.66 10 9.32 10 10 C10.99 10.33 11.98 10.66 13 11 C13 11.66 13 12.32 13 13 C13.99 13.33 14.98 13.66 16 14 C16 14.66 16 15.32 16 16 C16.99 16.33 17.98 16.66 19 17 C19 17.66 19 18.32 19 19 C19.99 19.33 20.98 19.66 22 20 C22 20.66 22 21.32 22 22 C22.99 22.33 23.98 22.66 25 23 C25 23.66 25 24.32 25 25 C25.99 25.33 26.98 25.66 28 26 C28 26.66 28 27.32 28 28 C29.98 28.99 29.98 28.99 32 30 C32 30.66 32 31.32 32 32 C32.99 32.33 33.98 32.66 35 33 C35 33.66 35 34.32 35 35 C35.99 35.33 36.98 35.66 38 36 C38 36.66 38 37.32 38 38 C39.32 38.66 40.64 39.32 42 40 C42 40.66 42 41.32 42 42 C42.99 42.33 43.98 42.66 45 43 C45 43.66 45 44.32 45 45 C45.99 45.33 46.98 45.66 48 46 C48 46.66 48 47.32 48 48 C48.598125 48.268125 49.19625 48.53625 49.8125 48.8125 C51.99847854 49.99917406 53.41332594 51.09599113 55 53 C55 53.66 55 54.32 55 55 C55.99 55.33 56.98 55.66 58 56 C58 56.66 58 57.32 58 58 C58.99 58.33 59.98 58.66 61 59 C61 59.66 61 60.32 61 61 C61.99 61.33 62.98 61.66 64 62 C64 62.66 64 63.32 64 64 C64.99 64.33 65.98 64.66 67 65 C67 65.66 67 66.32 67 67 C67.99 67.33 68.98 67.66 70 68 C70 68.66 70 69.32 70 70 C70.66 70 71.32 70 72 70 C72 70.66 72 71.32 72 72 C72.99 72.33 73.98 72.66 75 73 C75 73.66 75 74.32 75 75 C75.639375 75.268125 76.27875 75.53625 76.9375 75.8125 C79 77 79 77 80 80 C80.66 80.33 81.32 80.66 82 81 C82.66 81.33 83.32 81.66 84 82 C84.33 82.99 84.66 83.98 85 85 C86.31242612 85.70693699 87.64997113 86.36782576 89 87 C104.88883631 99.37369157 104.88883631 99.37369157 106.74072266 107.08398438 C106.93813804 110.00945505 106.50353228 112.14203439 105.62109375 114.91943359 C104.87171062 117.42974926 104.34586572 119.95464434 103.8125 122.51953125 C93.67091759 169.9257948 71.67042869 213.04108561 38 248 C37.36787598 248.65935547 36.73575195 249.31871094 36.08447266 249.99804688 C26.94002521 259.48630305 17.64265991 268.2262044 7 276 C5.84894983 276.85806152 4.69790823 277.71613451 3.546875 278.57421875 C-4.64275981 284.61177396 -13.14538276 289.99457302 -22 295 C-22.70721191 295.4021875 -23.41442383 295.804375 -24.14306641 296.21875 C-50.49645697 311.05593492 -79.22233231 320.13243033 -109 325 C-110.08152344 325.19851563 -111.16304687 325.39703125 -112.27734375 325.6015625 C-113.50582031 325.73304688 -114.73429688 325.86453125 -116 326 C-117.38036548 326.19474537 -117.38036548 326.19474537 -118.78861713 326.39342499 C-125.61057885 326.95143505 -129.56680069 326.28542409 -134.87773132 321.83361816 C-136.94619311 319.91589366 -138.92790916 317.92336681 -140.90893555 315.91601562 C-142.02818284 314.82917133 -143.1500727 313.74504285 -144.27436829 312.66342163 C-147.3051367 309.72996185 -150.29319316 306.75637731 -153.2721746 303.77044106 C-155.77311144 301.26997783 -158.29255645 298.78856419 -160.81156665 296.30633116 C-166.76412126 290.43873292 -172.68061125 284.53639269 -178.5769043 278.61230469 C-184.62963363 272.53248462 -190.74378399 266.5199516 -196.8916871 260.53652048 C-202.19145881 255.373382 -207.44695693 250.16784125 -212.67078048 244.92788076 C-215.78092752 241.80927168 -218.90479063 238.70898873 -222.07355309 235.64985657 C-244.78231852 213.66593026 -244.78231852 213.66593026 -245.54223633 199.35742188 C-245.55226007 195.53397535 -245.27655548 191.82736064 -245 188 C-245 182.39 -245 176.78 -245 171 C-180.65 171 -116.3 171 -50 171 C-50 163.41 -50 155.82 -50 148 C-49.77158548 142.28963697 -49.53818131 136.59825854 -49.20043945 130.89624023 C-49.05931747 128.50865614 -48.92843721 126.12065636 -48.79882812 123.73242188 C-48.7115128 122.17705093 -48.62364424 120.62171092 -48.53515625 119.06640625 C-48.49656998 118.37051895 -48.4579837 117.67463165 -48.41822815 116.95765686 C-48.1368164 112.26867842 -47.62100581 107.65315659 -47 103 C-45.85144531 102.72027344 -44.70289063 102.44054687 -43.51953125 102.15234375 C-28.60709637 98.36945729 -17.02162793 93.14252331 -6 82 C-5.44957031 81.48308594 -4.89914062 80.96617187 -4.33203125 80.43359375 C7.21907632 68.57280501 11.51064048 50.98503379 11.34985352 35 C10.97821914 22.44701652 6.85346895 12.89645759 1 2 C0.67 1.34 0.34 0.68 0 0 Z " fill="#FE9600" transform="translate(404,185)"/>
<path d="M0 0 C0 78.54 0 157.08 0 238 C-32.01 238 -64.02 238 -97 238 C-97.91201122 234.3519551 -98.22237925 231.31531776 -98.38891602 227.57910156 C-98.44890274 226.27805481 -98.50888947 224.97700806 -98.57069397 223.63653564 C-98.63185193 222.22123586 -98.6929206 220.80593222 -98.75390625 219.390625 C-98.81938243 217.93900981 -98.88521895 216.48741083 -98.95140076 215.03582764 C-99.12431683 211.22197642 -99.29234405 207.40792498 -99.45935059 203.59381104 C-99.63075281 199.69912656 -99.8067826 195.80465154 -99.98242188 191.91015625 C-100.32614135 184.27363486 -100.66469579 176.636896 -101 169 C-102.64319214 169.01945679 -102.64319214 169.01945679 -104.31958008 169.03930664 C-118.9038991 168.88354708 -132.12424566 158.85802408 -142 149 C-142.56332031 148.44828125 -143.12664062 147.8965625 -143.70703125 147.328125 C-154.26568225 136.07299306 -159.05731678 120.59730594 -159.4375 105.4375 C-158.79602433 86.35359893 -152.39522009 69.96111647 -138.5390625 56.6328125 C-123.10005606 43.18593593 -106.03310582 38.77810865 -86 40 C-77.62033543 40.81752825 -69.823535 44.04644644 -62 47 C-61.89816406 46.13890625 -61.79632813 45.2778125 -61.69140625 44.390625 C-58.89328496 30.66876465 -48.20131816 18.90382673 -37.140625 11.0390625 C-25.02185924 3.17090861 -14.46628648 0 0 0 Z " fill="#FFFEFE" transform="translate(256,118)"/>
<path d="M0 0 C64.02 0 128.04 0 194 0 C194 18.5261194 194 18.5261194 193.5625 25.0625 C193.52318359 25.74248047 193.48386719 26.42246094 193.44335938 27.12304688 C193.1716724 31.48257782 192.62079806 35.65441357 192 40 C129.3 40 66.6 40 2 40 C0 17 0 17 0 0 Z " fill="#014792" transform="translate(159,356)"/>
<path d="M0 0 C32.01 0 64.02 0 97 0 C97 18.5261194 97 18.5261194 96.5625 25.0625 C96.52318359 25.74248047 96.48386719 26.42246094 96.44335938 27.12304688 C96.1716724 31.48257782 95.62079806 35.65441357 95 40 C63.65 40 32.3 40 0 40 C0 26.8 0 13.6 0 0 Z " fill="#00204C" transform="translate(256,356)"/>
<path d="M0 0 C0.67804688 0.38671875 1.35609375 0.7734375 2.0546875 1.171875 C11.88914046 6.6748099 20.80736725 10.38281352 32 12 C33.11165232 16.4378561 33.11527763 20.76956386 33.0625 25.3125 C33.05798828 26.05306641 33.05347656 26.79363281 33.04882812 27.55664062 C33.03712175 29.37112899 33.01918898 31.18557534 33 33 C26.47854246 27.64602018 20.60578929 21.68698091 14.6875 15.6875 C12.71511498 13.68853383 10.73943603 11.6929078 8.76171875 9.69921875 C7.89506592 8.82096436 7.02841309 7.94270996 6.13549805 7.0378418 C4.17041329 4.96272827 4.17041329 4.96272827 2 4 C2 3.34 2 2.68 2 2 C1.34 2 0.68 2 0 2 C0 1.34 0 0.68 0 0 Z " fill="#FF9906" transform="translate(123,275)"/>
<path d="M0 0 C3.04332765 1.3584202 5.12309151 2.88463024 7.453125 5.2578125 C8.071875 5.88300781 8.690625 6.50820312 9.328125 7.15234375 C9.96234375 7.80332031 10.5965625 8.45429688 11.25 9.125 C11.8996875 9.78371094 12.549375 10.44242188 13.21875 11.12109375 C14.81711727 12.74296643 16.41061897 14.3693281 18 16 C15.53258609 18.64107354 13.42559084 19.79641403 10 21 C9.52949219 19.90300781 9.05898438 18.80601562 8.57421875 17.67578125 C7.94549652 16.22127461 7.31658 14.76685194 6.6875 13.3125 C6.37876953 12.59126953 6.07003906 11.87003906 5.75195312 11.12695312 C4.06558251 7.23942508 2.29419634 3.57894629 0 0 Z " fill="#FE9B06" transform="translate(309,145)"/>
</svg>
