<?xml version="1.0" encoding="UTF-8"?>
<svg version="1.1" xmlns="http://www.w3.org/2000/svg" width="512" height="512">
<path d="M0 0 C4.22772202 0.01120973 8.45539098 -0.00086544 12.68310952 -0.00984204 C20.94297831 -0.02370836 29.20269325 -0.01626781 37.46255459 -0.00116646 C47.09767088 0.01577271 56.73274969 0.01247351 66.36787628 0.00873946 C83.56726392 0.00287315 100.76657814 0.01698493 117.96594644 0.04168689 C134.62613067 0.0656115 151.28621686 0.07268664 167.94641519 0.06219471 C186.12509525 0.05076687 204.30373007 0.04887789 222.4824096 0.0632928 C224.42336225 0.06481851 226.36431491 0.06633887 228.30526757 0.06785381 C229.26005247 0.06861162 230.21483737 0.06936944 231.19855515 0.07015022 C237.90280603 0.07487804 244.6070366 0.07305235 251.31128716 0.06878841 C259.48826285 0.06384483 267.66514614 0.06992141 275.84210075 0.08968271 C280.00806963 0.09950509 284.17389831 0.1047149 288.33987451 0.09679019 C292.16306088 0.0896667 295.985966 0.0966913 299.80911563 0.11439382 C301.82627312 0.12027199 303.84345733 0.11168169 305.86060178 0.10234731 C313.83628956 0.15700316 320.89726632 1.17502727 328.58013642 3.15858775 C332.47812871 3.57851305 333.70434772 2.73720309 336.82580972 0.50823963 C342.32256911 -0.31294515 347.26361525 -0.21706495 352.32580972 2.13323963 C356.52074405 6.11842725 358.69123197 10.04601468 360.57580972 15.44573963 C362.40164119 20.22870207 364.75511993 22.7067877 368.72815347 25.84808338 C370.8636865 27.5382166 372.77586158 29.33329149 374.70080972 31.25823963 C375.25510659 31.80995838 375.80940347 32.36167713 376.38049722 32.93011463 C377.82580972 34.50823963 377.82580972 34.50823963 379.82580972 37.50823963 C381.89875402 38.35947596 384.00999277 39.11933506 386.13830972 39.82073963 C392.64183663 42.19219143 395.70988218 44.27638456 398.82580972 50.50823963 C398.97482463 52.60877679 399.04719425 54.71511788 399.07580972 56.82073963 C399.10159097 57.95124744 399.12737222 59.08175525 399.15393472 60.24652088 C398.82580972 63.50823963 398.82580972 63.50823963 397.22484899 65.83910835 C395.38056011 69.35770088 396.00097035 70.71435728 397.11305642 74.47605884 C399.48968685 84.29145584 399.25422285 93.9709176 399.22986245 104.02313221 C399.2355752 106.16507815 399.24254293 108.30702105 399.25066018 110.44895923 C399.26850796 116.2301234 399.26743887 122.01113509 399.2617178 127.79231846 C399.25861338 132.63533426 399.26473236 137.4783213 399.27075654 142.32133299 C399.28477304 153.75581154 399.28326481 165.19021533 399.27185464 176.62469471 C399.2603798 188.38310538 399.27444518 200.14128779 399.30125111 211.8996684 C399.32347282 222.03008508 399.33003084 232.16043046 399.3241747 242.29086977 C399.32081897 248.32584859 399.32312756 254.3606812 399.34042573 260.3956393 C399.35599593 266.07494195 399.35182834 271.75390893 399.33312058 277.43319881 C399.32946227 279.50465575 399.33246154 281.57613812 399.34300637 283.64757144 C399.4779313 312.36895037 391.33235962 336.69306272 370.82580972 357.50823963 C352.44604002 375.91874472 328.54563315 384.97816148 302.82283425 385.0471648 C301.11386345 385.03926676 299.40489432 385.03099975 297.6959269 385.02239978 C295.84573689 385.02787643 293.99555142 385.03512698 292.14537454 385.04399097 C288.19612012 385.05920131 284.24712497 385.06218298 280.29784799 385.05522525 C274.03169745 385.04432717 267.76581173 385.06195306 261.49969888 385.08303821 C251.57338312 385.11318048 241.64714717 385.12498097 231.72078943 385.12861466 C213.9790072 385.13527344 196.23728161 385.16465046 178.49556684 385.21371102 C172.28857368 385.23004022 166.0816966 385.23565898 159.8746841 385.23212063 C155.9873574 385.23167815 152.10007318 385.23932769 148.21275926 385.24879634 C146.43485397 385.25143916 144.65693962 385.25079728 142.8790381 385.24628627 C133.4453287 385.22403972 124.11315579 385.5232637 114.71503091 386.38357532 C113.87194304 386.45896616 113.02885518 386.534357 112.16021919 386.61203241 C81.60442665 389.68315608 55.71562898 404.74959817 33.82580972 425.50823963 C32.1644749 427.01414281 30.49802584 428.51442873 28.82580972 430.00823963 C25.13750159 433.31825974 21.47541826 436.65567204 17.82580972 440.00823963 C15.82637594 441.84219207 13.82614153 443.67526625 11.82580972 445.50823963 C10.96858315 446.29456775 10.11135659 447.08089588 9.22815347 447.89105213 C-9.47091169 464.90097827 -9.47091169 464.90097827 -20.18981528 464.78558338 C-24.2143491 464.41157565 -26.25428192 463.28215257 -29.17419028 460.50823963 C-34.1418305 454.46651504 -34.30273213 448.42187389 -34.28771567 440.83856189 C-34.28760238 438.91736278 -34.28760238 438.91736278 -34.28748679 436.95735157 C-34.28238173 435.5797826 -34.27716577 434.20221404 -34.27184653 432.82464588 C-34.26997888 431.39975523 -34.26855662 429.97486394 -34.26755881 428.54997241 C-34.26376094 424.81983623 -34.2539543 421.08973967 -34.24285483 417.35961902 C-34.23258169 413.54523238 -34.2280486 409.73083927 -34.22301841 405.91644275 C-34.2123293 398.44702375 -34.19528609 390.97763726 -34.17419028 383.50823963 C-35.13324271 383.30957798 -36.09229514 383.11091632 -37.08040977 382.90623462 C-38.33967277 382.64172 -39.59893577 382.37720539 -40.89635825 382.10467517 C-42.14416068 381.84413852 -43.39196311 381.58360187 -44.67757773 381.31517017 C-48.78210324 380.36794855 -52.48885573 379.08905469 -56.29919028 377.32073963 C-57.29619956 376.86900379 -57.29619956 376.86900379 -58.31335044 376.40814197 C-81.63881732 365.49901778 -99.50531579 345.50010478 -108.48186946 321.46981227 C-113.2425568 307.98121892 -113.75280593 294.81983304 -113.69176841 280.65277088 C-113.69720182 278.51038122 -113.70433126 276.36799531 -113.71300864 274.22561634 C-113.73109989 268.45697566 -113.72423357 262.68862411 -113.7114923 256.91997898 C-113.7012905 250.85279357 -113.71077776 244.78563119 -113.71703696 238.71844471 C-113.72429259 228.53407382 -113.71478054 218.34981936 -113.69567466 208.16546619 C-113.67391006 196.42913755 -113.6809629 184.69308697 -113.70298028 172.95676506 C-113.72119384 162.83901884 -113.72366357 152.72135581 -113.7132256 142.60359848 C-113.70702333 136.57873408 -113.70606439 130.55399994 -113.71937156 124.52914417 C-113.7310165 118.86209864 -113.72274789 113.19540793 -113.69979453 107.5284003 C-113.69455329 105.46178385 -113.69594141 103.39513697 -113.70484519 101.32853305 C-113.81700651 72.62587614 -105.66675183 48.30921765 -85.17419028 27.50823963 C-60.91117855 3.2046543 -32.4879701 -0.12010085 0 0 Z " fill="#DBEEF1" transform="translate(113.17419028282166,23.49176037311554)"/>
<path d="M0 0 C7.24064315 4.2907515 10.29750873 11.28329415 12.6640625 19.07421875 C12.9346347 19.91990921 13.20520691 20.76559967 13.48397827 21.63691711 C14.33734493 24.31605529 15.16895226 27.0013658 16 29.6875 C16.56368277 31.46854944 17.12877681 33.24915287 17.6953125 35.02929688 C20.36951535 43.4590532 22.97756192 51.90951351 25.55322266 60.36987305 C26.58457781 63.67076108 27.70334087 66.93628012 28.859375 70.1953125 C29.375 72 29.375 72 29.375 75 C29.9834375 75.15855469 30.591875 75.31710938 31.21875 75.48046875 C38.88865972 77.52201825 46.44902728 79.87589406 54.0177002 82.25918579 C56.45181468 83.02414008 58.88741137 83.78423126 61.32324219 84.54370117 C65.6676161 85.90013289 70.006203 87.27404467 74.34228516 88.65673828 C76.13036861 89.22407617 77.92012607 89.78616203 79.71142578 90.34326172 C82.34585085 91.1635703 84.97399076 92.0017848 87.6015625 92.84375 C88.39535309 93.08661743 89.18914368 93.32948486 90.00698853 93.57971191 C96.11291595 95.56752403 100.15003706 98.25587905 104.25 103.3125 C106.09959829 107.7309848 106.07801088 111.60357296 104.75390625 116.1171875 C102.05779957 122.46801656 97.35665127 125.34226465 91.13095093 127.93429565 C88.72075586 128.79331235 86.29832932 129.57876351 83.85546875 130.33984375 C82.9574202 130.6292836 82.05937164 130.91872345 81.1341095 131.2169342 C78.2800829 132.13409194 75.42151178 133.03601853 72.5625 133.9375 C70.68783137 134.53741342 68.81347959 135.13831792 66.93945312 135.74023438 C62.33282997 137.21696797 57.72146406 138.67818861 53.1083374 140.13446045 C50.34454521 141.00964382 47.58339937 141.89277733 44.82275391 142.77783203 C43.08627101 143.33238178 41.34978047 143.88690761 39.61328125 144.44140625 C38.40758736 144.82980934 38.40758736 144.82980934 37.17753601 145.22605896 C31.6012521 147 31.6012521 147 29.375 147 C29.22804688 147.57363281 29.08109375 148.14726562 28.9296875 148.73828125 C26.4140795 158.26578511 23.41282081 167.62964801 20.375 177 C20.15571838 177.67929565 19.93643677 178.35859131 19.71051025 179.05847168 C18.17057908 183.8285629 16.61855724 188.59451213 15.05441284 193.35671997 C14.52099932 194.98517019 13.99062972 196.61462083 13.46340942 198.24508667 C12.71099905 200.56873574 11.94672074 202.88817431 11.1796875 205.20703125 C10.84545525 206.25139847 10.84545525 206.25139847 10.50447083 207.31686401 C8.51694146 213.25492814 5.90589401 218.71603168 0.375 222 C-3.41064633 223.4872182 -7.6412527 223.72891028 -11.625 223 C-16.55203899 220.74177379 -19.66823915 217.70049349 -21.57519531 212.62304688 C-21.90829712 211.7375415 -22.24139893 210.85203613 -22.58459473 209.93969727 C-24.52615515 204.45375828 -26.36723517 198.93861363 -28.171875 193.40625 C-28.59194304 192.12489382 -29.01221456 190.84360434 -29.43267822 189.56237793 C-30.30536803 186.90066705 -31.17575735 184.23821866 -32.04443359 181.57519531 C-33.15875992 178.15967893 -34.27873892 174.7460469 -35.40037155 171.33292389 C-36.26553113 168.6983042 -37.1278543 166.06276309 -37.98929596 163.42692566 C-38.60155903 161.5551446 -39.21613945 159.68412207 -39.83074951 157.81311035 C-40.19823303 156.68433472 -40.56571655 155.55555908 -40.94433594 154.39257812 C-41.43253815 152.89893738 -41.43253815 152.89893738 -41.93060303 151.37512207 C-42.625 149 -42.625 149 -42.625 147 C-43.86233887 146.74855225 -45.09967773 146.49710449 -46.37451172 146.23803711 C-52.25121106 144.92888134 -57.9185333 143.07360157 -63.6328125 141.19140625 C-64.75767059 140.8240184 -65.88252869 140.45663055 -67.04147339 140.07810974 C-69.40706629 139.30437455 -71.77197528 138.5285456 -74.13623047 137.75073242 C-77.74394213 136.56449187 -81.35419863 135.38626191 -84.96484375 134.20898438 C-87.27098907 133.4536003 -89.57698387 132.6977565 -91.8828125 131.94140625 C-93.49242355 131.41626183 -93.49242355 131.41626183 -95.134552 130.88050842 C-113.49191675 124.82483894 -113.49191675 124.82483894 -117.4375 117.75 C-119.18453813 112.23303748 -119.70825137 108.20983279 -117.0625 102.8125 C-111.23400005 96.08730775 -104.7253092 93.68818883 -96.42578125 91.15234375 C-95.35434372 90.81376846 -94.28290619 90.47519318 -93.17900085 90.12635803 C-89.76877066 89.05149847 -86.35342535 87.99410359 -82.9375 86.9375 C-80.66173798 86.22449162 -78.38634327 85.51030973 -76.11132812 84.79492188 C-72.88494044 83.78049674 -69.6581866 82.7676177 -66.42829895 81.76438904 C-60.29081847 79.85640284 -54.19729468 77.85417757 -48.12590027 75.74440002 C-45.625 75 -45.625 75 -42.625 75 C-42.37355225 73.76193604 -42.12210449 72.52387207 -41.86303711 71.24829102 C-40.55636353 65.38266256 -38.7000116 59.72912264 -36.81640625 54.02734375 C-36.4490184 52.90485733 -36.08163055 51.78237091 -35.70310974 50.62586975 C-34.92932519 48.26448799 -34.15349688 45.90377506 -33.37573242 43.54370117 C-32.1905159 39.94665305 -31.01171409 36.3475524 -29.83398438 32.74804688 C-29.07849993 30.44518947 -28.32265274 28.14245102 -27.56640625 25.83984375 C-27.04126183 24.23797462 -27.04126183 24.23797462 -26.50550842 22.60374451 C-20.84534554 5.44661334 -20.84534554 5.44661334 -17.0625 2.5625 C-16.16337891 1.85287109 -16.16337891 1.85287109 -15.24609375 1.12890625 C-10.45484183 -2.20765232 -5.36814616 -1.4808679 0 0 Z " fill="#29DDF4" transform="translate(358.625,73)"/>
<path d="M0 0 C1.23169571 -0.01041829 1.23169571 -0.01041829 2.48827416 -0.02104706 C5.22586669 -0.03926957 7.96258797 -0.02906618 10.70021057 -0.01878357 C12.6685399 -0.02584445 14.6368638 -0.03459018 16.60517883 -0.04489136 C21.94199725 -0.06737606 27.27851897 -0.06444769 32.6153667 -0.05556989 C37.07366319 -0.05045656 41.53190409 -0.05775538 45.99019486 -0.06504196 C56.50898007 -0.08203808 67.0276202 -0.07847797 77.54640198 -0.06175232 C88.39207252 -0.04482971 99.23734063 -0.06066828 110.08296722 -0.0929752 C119.40123324 -0.11967914 128.71937405 -0.12694495 138.03767449 -0.11846012 C143.60022384 -0.11353348 149.16253105 -0.11573256 154.72504997 -0.13624763 C159.95617519 -0.15461729 165.18672194 -0.14862999 170.41781616 -0.12404823 C172.33501459 -0.11904453 174.2522572 -0.12251864 176.16942024 -0.13519669 C178.79215656 -0.15116547 181.41299677 -0.13614153 184.03564453 -0.11352539 C184.78964757 -0.12536112 185.54365061 -0.13719685 186.32050222 -0.14939123 C192.14583102 -0.0477263 196.01129169 1.96066143 200.58131409 5.5146637 C203.60994358 8.73258253 203.82606018 11.6140315 204.01881409 15.8896637 C203.84338602 21.32062434 202.97316172 24.25311154 199.58131409 28.5146637 C194.27061486 32.18444868 190.52545613 33.0976973 184.14916992 33.02259827 C183.32662832 33.02883823 182.50408671 33.03507819 181.65661961 33.04150724 C178.91434353 33.05739774 176.1729612 33.04484874 173.43067932 33.03224182 C171.45910628 33.03766465 169.48753729 33.04478822 167.51597595 33.05348206 C162.17101543 33.07169788 156.82636418 33.06465529 151.48139834 33.05196571 C145.8854685 33.04183052 140.28956493 33.05123271 134.69363403 33.05751038 C125.29782868 33.06478464 115.90214916 33.05520417 106.50636292 33.03614807 C95.64479382 33.01437349 84.783525 33.02143594 73.92196316 33.04345369 C64.59354153 33.06160635 55.26521028 33.06416684 45.9367767 33.05369902 C40.36650709 33.0474642 34.79637862 33.04662837 29.22611809 33.05984497 C23.9901346 33.07140104 18.75453831 33.06338194 13.51859665 33.04026794 C11.59733663 33.03497986 9.67604402 33.03649632 7.75479698 33.0453186 C5.13158326 33.05625361 2.50960938 33.0425357 -0.11352539 33.02259827 C-0.87335411 33.03152115 -1.63318283 33.04044404 -2.41603667 33.04963732 C-8.75617716 32.95620034 -12.13745761 30.54927273 -16.73118591 26.4521637 C-20.11692727 22.56483103 -19.756875 18.14939628 -19.69212341 13.2412262 C-19.29941625 9.32537476 -18.11814285 7.35255432 -15.41868591 4.5146637 C-10.08534477 0.88425523 -6.38105446 -0.06953509 0 0 Z " fill="#88C4CD" transform="translate(115.41868591308594,263.48533630371094)"/>
<path d="M0 0 C4.96940313 2.30722288 7.3637277 5.25470987 10 10 C10.59193624 11.64275884 11.17460698 13.2888739 11.75 14.9375 C13.57583147 19.72046244 15.92931022 22.19854808 19.90234375 25.33984375 C22.03787679 27.02997697 23.95005186 28.82505186 25.875 30.75 C26.42929687 31.30171875 26.98359375 31.8534375 27.5546875 32.421875 C29 34 29 34 31 37 C33.0729443 37.85123634 35.18418305 38.61109543 37.3125 39.3125 C43.81602691 41.6839518 46.88407247 43.76814493 50 50 C50.17471848 52.09948601 50.26717852 54.20624408 50.3125 56.3125 C50.36857422 58.00826172 50.36857422 58.00826172 50.42578125 59.73828125 C49.89407 63.81148214 48.98619452 65.19250689 46 68 C41.87235436 70.75836703 37.80864027 72.14354587 32.94140625 73.0078125 C27.13391892 74.12734743 21.73330049 75.28346051 17 79 C13.1672534 85.13477448 11.62446563 92.01791785 9.9140625 98.97265625 C8.56043356 104.13071971 6.98856985 106.88552408 2.69677734 110.04467773 C-1.65372839 112.49410636 -6.14562292 112.61405796 -11 112 C-14.375 110.1875 -14.375 110.1875 -17 108 C-17.51989502 107.5774292 -18.03979004 107.1548584 -18.57543945 106.71948242 C-20.51965891 104.37275789 -20.81087693 102.27714912 -21.41796875 99.30078125 C-24.03547601 86.75982468 -24.03547601 86.75982468 -31.65576172 77.09326172 C-36.75752462 74.77068848 -41.91102033 73.54227925 -47.3828125 72.421875 C-52.82729202 71.29069538 -56.46598915 69.33677572 -60 65 C-62.45643386 60.63398371 -62.65112243 56.93350455 -62 52 C-60.32179279 46.65735299 -57.00422867 43.96361791 -52.34960938 41.13427734 C-49.85148647 39.92830488 -47.62478231 39.35293556 -44.90625 38.82421875 C-39.17367862 37.67979952 -33.75726968 36.56111565 -29 33 C-24.79389844 26.57044632 -23.4148428 19.00980551 -21.72216797 11.62060547 C-20.43889982 6.96387784 -18.47790189 4.14786141 -14.62109375 1.15234375 C-9.86914173 -0.93681548 -5.0802071 -0.61348498 0 0 Z " fill="#29F4B7" transform="translate(462,24)"/>
<path d="M0 0 C1.17156647 -0.00700928 2.34313293 -0.01401855 3.55020142 -0.02124023 C7.41188453 -0.0388049 11.27283129 -0.02720269 15.13452148 -0.01367188 C17.82299897 -0.01456327 20.51146344 -0.02024376 23.19993591 -0.02526855 C28.82949769 -0.03253247 34.45884911 -0.02298946 40.08837891 -0.00390625 C46.58749086 0.01787093 53.08610099 0.01080039 59.58520085 -0.01121187 C65.17694046 -0.02938931 70.76852941 -0.03191316 76.36028904 -0.0214572 C79.69499047 -0.01523629 83.02926742 -0.015929 86.36398506 -0.02760315 C90.08154355 -0.03776261 93.79813828 -0.02227439 97.515625 0 C98.61449539 -0.00809692 99.71336578 -0.01619385 100.84553528 -0.02453613 C108.9651918 0.06558393 112.03970046 1.70692582 118.06811523 7.08007812 C120.94453718 10.71736007 120.77511549 14.48538896 120.54467773 18.96679688 C119.69511053 25.13087891 115.87354529 27.93256787 111.19311523 31.51757812 C108.74700432 32.74063358 107.14830595 32.65415789 104.41281128 32.67147827 C103.40351059 32.68007874 102.3942099 32.6886792 101.35432434 32.69754028 C99.68680367 32.70393021 99.68680367 32.70393021 97.9855957 32.71044922 C96.81797195 32.71862671 95.65034821 32.7268042 94.44734192 32.73522949 C90.56834279 32.76011943 86.6893513 32.77676249 82.81030273 32.79101562 C81.47381712 32.79637603 80.13733158 32.80175354 78.8008461 32.80714798 C73.23858259 32.82878182 67.67632197 32.84751572 62.11402702 32.85877037 C54.15095014 32.87498957 46.18836278 32.90811125 38.22547042 32.96517122 C32.62280368 33.00394359 27.02026743 33.02341191 21.4174701 33.02869093 C18.07348916 33.03233605 14.73044343 33.046781 11.38653183 33.07679367 C7.64964446 33.10841522 3.91398803 33.10848523 0.17700195 33.10107422 C-1.47230064 33.12568222 -1.47230064 33.12568222 -3.15492249 33.15078735 C-9.93194665 33.09585316 -14.61698973 32.04538915 -19.80688477 27.51757812 C-23.65230233 22.47046757 -23.60711614 16.61934234 -22.80688477 10.51757812 C-18.23017203 0.44881011 -9.83335539 -0.07258988 0 0 Z " fill="#88C4CD" transform="translate(119.806884765625,199.482421875)"/>
<path d="M0 0 C1.17156647 -0.00700928 2.34313293 -0.01401855 3.55020142 -0.02124023 C7.41188453 -0.0388049 11.27283129 -0.02720269 15.13452148 -0.01367188 C17.82299897 -0.01456327 20.51146344 -0.02024376 23.19993591 -0.02526855 C28.82949769 -0.03253247 34.45884911 -0.02298946 40.08837891 -0.00390625 C46.58749086 0.01787093 53.08610099 0.01080039 59.58520085 -0.01121187 C65.17694046 -0.02938931 70.76852941 -0.03191316 76.36028904 -0.0214572 C79.69499047 -0.01523629 83.02926742 -0.015929 86.36398506 -0.02760315 C90.08154355 -0.03776261 93.79813828 -0.02227439 97.515625 0 C98.61449539 -0.00809692 99.71336578 -0.01619385 100.84553528 -0.02453613 C108.9651918 0.06558393 112.03970046 1.70692582 118.06811523 7.08007812 C120.94453718 10.71736007 120.77511549 14.48538896 120.54467773 18.96679688 C119.69511053 25.13087891 115.87354529 27.93256787 111.19311523 31.51757812 C108.74700432 32.74063358 107.14830595 32.65415789 104.41281128 32.67147827 C103.40351059 32.68007874 102.3942099 32.6886792 101.35432434 32.69754028 C99.68680367 32.70393021 99.68680367 32.70393021 97.9855957 32.71044922 C96.81797195 32.71862671 95.65034821 32.7268042 94.44734192 32.73522949 C90.56834279 32.76011943 86.6893513 32.77676249 82.81030273 32.79101562 C81.47381712 32.79637603 80.13733158 32.80175354 78.8008461 32.80714798 C73.23858259 32.82878182 67.67632197 32.84751572 62.11402702 32.85877037 C54.15095014 32.87498957 46.18836278 32.90811125 38.22547042 32.96517122 C32.62280368 33.00394359 27.02026743 33.02341191 21.4174701 33.02869093 C18.07348916 33.03233605 14.73044343 33.046781 11.38653183 33.07679367 C7.64964446 33.10841522 3.91398803 33.10848523 0.17700195 33.10107422 C-1.47230064 33.12568222 -1.47230064 33.12568222 -3.15492249 33.15078735 C-9.93194665 33.09585316 -14.61698973 32.04538915 -19.80688477 27.51757812 C-23.65230233 22.47046757 -23.60711614 16.61934234 -22.80688477 10.51757812 C-18.23017203 0.44881011 -9.83335539 -0.07258988 0 0 Z " fill="#88C4CD" transform="translate(119.806884765625,135.482421875)"/>
<path d="M0 0 C4.39652491 2.75758367 8.10399341 5.79339496 11.75 9.5 C12.23082031 9.97308594 12.71164062 10.44617187 13.20703125 10.93359375 C15.69880409 13.43924833 17.66473605 15.70841911 19 19 C7.60025762 16.84671533 7.60025762 16.84671533 4 14 C2.05163372 9.66018102 0 4.81638475 0 0 Z " fill="#D4EFEF" transform="translate(474,43)"/>
</svg>
