<?xml version="1.0" encoding="UTF-8"?>
<!DOCTYPE svg PUBLIC "-//W3C//DTD SVG 1.1//EN" "http://www.w3.org/Graphics/SVG/1.1/DTD/svg11.dtd">
<svg xmlns="http://www.w3.org/2000/svg" version="1.1" width="512px" height="512px" style="shape-rendering:geometricPrecision; text-rendering:geometricPrecision; image-rendering:optimizeQuality; fill-rule:evenodd; clip-rule:evenodd" xmlns:xlink="http://www.w3.org/1999/xlink">
<g><path style="opacity:1" fill="#3d98f6" d="M 380.5,15.5 C 396.345,51.5712 402.345,89.2378 398.5,128.5C 389.598,99.9391 370.265,83.6058 340.5,79.5C 331.166,78.7206 322.166,80.054 313.5,83.5C 294.456,51.649 267.123,41.149 231.5,52C 216.474,58.5263 205.141,69.0263 197.5,83.5C 157.722,73.0287 129.888,86.6953 114,124.5C 107.033,153.6 115.2,177.434 138.5,196C 149.548,203.96 161.881,207.794 175.5,207.5C 175.5,220.5 175.5,233.5 175.5,246.5C 175.5,260.167 175.5,273.833 175.5,287.5C 175.5,298.167 175.5,308.833 175.5,319.5C 204.167,319.5 232.833,319.5 261.5,319.5C 232.135,333.784 201.135,341.784 168.5,343.5C 162.833,343.5 157.167,343.5 151.5,343.5C 118.261,342.628 86.2611,335.961 55.5,323.5C 55.3333,235.833 55.5,148.166 56,60.5C 61.5,36.3333 76.3333,21.5 100.5,16C 193.833,15.5 287.166,15.3333 380.5,15.5 Z"/></g>
<g><path style="opacity:1" fill="#2b74ca" d="M 380.5,15.5 C 402.778,11.484 422.445,16.6506 439.5,31C 447.677,39.1844 452.844,49.0178 455,60.5C 455.5,173.5 455.667,286.5 455.5,399.5C 335.833,399.333 216.166,399.5 96.5,400C 74.3198,405.014 60.6531,418.514 55.5,440.5C 55.5,401.5 55.5,362.5 55.5,323.5C 86.2611,335.961 118.261,342.628 151.5,343.5C 151.5,348.833 151.5,354.167 151.5,359.5C 220.833,359.5 290.167,359.5 359.5,359.5C 359.5,354.167 359.5,348.833 359.5,343.5C 295.833,343.5 232.167,343.5 168.5,343.5C 201.135,341.784 232.135,333.784 261.5,319.5C 286.167,319.5 310.833,319.5 335.5,319.5C 335.5,308.833 335.5,298.167 335.5,287.5C 335.5,280.5 335.5,273.5 335.5,266.5C 358.577,242.374 375.577,214.374 386.5,182.5C 397.971,166.245 401.971,148.245 398.5,128.5C 402.345,89.2378 396.345,51.5712 380.5,15.5 Z"/></g>
<g><path style="opacity:1" fill="#eaf6fd" d="M 340.5,79.5 C 349.793,145.078 326.126,194.912 269.5,229C 239.931,244.147 208.598,249.98 175.5,246.5C 175.5,233.5 175.5,220.5 175.5,207.5C 161.881,207.794 149.548,203.96 138.5,196C 115.2,177.434 107.033,153.6 114,124.5C 129.888,86.6953 157.722,73.0287 197.5,83.5C 205.141,69.0263 216.474,58.5263 231.5,52C 267.123,41.149 294.456,51.649 313.5,83.5C 322.166,80.054 331.166,78.7206 340.5,79.5 Z"/></g>
<g><path style="opacity:1" fill="#c6e1fb" d="M 340.5,79.5 C 370.265,83.6058 389.598,99.9391 398.5,128.5C 401.971,148.245 397.971,166.245 386.5,182.5C 373.416,198.541 356.416,206.874 335.5,207.5C 335.5,227.167 335.5,246.833 335.5,266.5C 335.5,273.5 335.5,280.5 335.5,287.5C 282.167,287.5 228.833,287.5 175.5,287.5C 175.5,273.833 175.5,260.167 175.5,246.5C 208.598,249.98 239.931,244.147 269.5,229C 326.126,194.912 349.793,145.078 340.5,79.5 Z"/></g>
<g><path style="opacity:1" fill="#fefefe" d="M 359.5,143.5 C 364.833,143.5 370.167,143.5 375.5,143.5C 373.157,167.843 359.824,181.176 335.5,183.5C 335.5,178.167 335.5,172.833 335.5,167.5C 349.833,165.833 357.833,157.833 359.5,143.5 Z"/></g>
<g><path style="opacity:1" fill="#3d97f6" d="M 386.5,182.5 C 375.577,214.374 358.577,242.374 335.5,266.5C 335.5,246.833 335.5,227.167 335.5,207.5C 356.416,206.874 373.416,198.541 386.5,182.5 Z"/></g>
<g><path style="opacity:1" fill="#a1cdfb" d="M 175.5,287.5 C 228.833,287.5 282.167,287.5 335.5,287.5C 335.5,298.167 335.5,308.833 335.5,319.5C 310.833,319.5 286.167,319.5 261.5,319.5C 232.833,319.5 204.167,319.5 175.5,319.5C 175.5,308.833 175.5,298.167 175.5,287.5 Z"/></g>
<g><path style="opacity:1" fill="#87929f" d="M 151.5,343.5 C 157.167,343.5 162.833,343.5 168.5,343.5C 232.167,343.5 295.833,343.5 359.5,343.5C 359.5,348.833 359.5,354.167 359.5,359.5C 290.167,359.5 220.833,359.5 151.5,359.5C 151.5,354.167 151.5,348.833 151.5,343.5 Z"/></g>
<g><path style="opacity:0.999" fill="#c0c7d0" d="M 455.5,399.5 C 455.5,410.167 455.5,420.833 455.5,431.5C 336.5,431.333 217.5,431.5 98.5,432C 87.5831,437.338 84.7498,445.505 90,456.5C 92.2643,459.433 95.0976,461.6 98.5,463C 217.5,463.5 336.5,463.667 455.5,463.5C 455.5,474.167 455.5,484.833 455.5,495.5C 334.833,495.667 214.166,495.5 93.5,495C 75.2743,490.441 63.1076,479.275 57,461.5C 55.661,454.574 55.161,447.574 55.5,440.5C 60.6531,418.514 74.3198,405.014 96.5,400C 216.166,399.5 335.833,399.333 455.5,399.5 Z"/></g>
<g><path style="opacity:1" fill="#a8b0bc" d="M 455.5,431.5 C 455.5,442.167 455.5,452.833 455.5,463.5C 336.5,463.667 217.5,463.5 98.5,463C 95.0976,461.6 92.2643,459.433 90,456.5C 84.7498,445.505 87.5831,437.338 98.5,432C 217.5,431.5 336.5,431.333 455.5,431.5 Z"/></g>
</svg>
