<?xml version="1.0" encoding="UTF-8"?>
<svg version="1.1" xmlns="http://www.w3.org/2000/svg" width="512" height="512">
<path d="M0 0 C1.45108658 0.00273422 1.45108658 0.00273422 2.93148804 0.00552368 C17.26440977 0.05095174 31.21023917 0.55983928 45.3125 3.3125 C46.65803955 3.55395752 46.65803955 3.55395752 48.03076172 3.80029297 C107.84088904 14.62287989 165.35495829 48.68064457 202.3125 97.3125 C202.72918945 97.85277832 203.14587891 98.39305664 203.57519531 98.94970703 C211.2584873 108.9447116 218.00092968 119.40459036 224.3125 130.3125 C224.70679199 130.98974121 225.10108398 131.66698242 225.50732422 132.36474609 C238.68961173 155.2833756 247.29510918 180.85822563 252.625 206.6875 C252.77243652 207.39817627 252.91987305 208.10885254 253.07177734 208.84106445 C256.05713787 224.48358366 256.6873098 240.11919606 256.625 256 C256.62226578 257.45108658 256.62226578 257.45108658 256.61947632 258.93148804 C256.57404826 273.26440977 256.06516072 287.21023917 253.3125 301.3125 C253.15152832 302.20952637 252.99055664 303.10655273 252.82470703 304.03076172 C242.00212011 363.84088904 207.94435543 421.35495829 159.3125 458.3125 C158.77222168 458.72918945 158.23194336 459.14587891 157.67529297 459.57519531 C147.6802884 467.2584873 137.22040964 474.00092968 126.3125 480.3125 C125.63525879 480.70679199 124.95801758 481.10108398 124.26025391 481.50732422 C101.3416244 494.68961173 75.76677437 503.29510918 49.9375 508.625 C49.22682373 508.77243652 48.51614746 508.91987305 47.78393555 509.07177734 C32.14141634 512.05713787 16.50580394 512.6873098 0.625 512.625 C-0.34239105 512.62317719 -1.3097821 512.62135437 -2.30648804 512.61947632 C-16.63940977 512.57404826 -30.58523917 512.06516072 -44.6875 509.3125 C-45.58452637 509.15152832 -46.48155273 508.99055664 -47.40576172 508.82470703 C-107.21588904 498.00212011 -164.72995829 463.94435543 -201.6875 415.3125 C-202.10418945 414.77222168 -202.52087891 414.23194336 -202.95019531 413.67529297 C-210.6334873 403.6802884 -217.37592968 393.22040964 -223.6875 382.3125 C-224.08179199 381.63525879 -224.47608398 380.95801758 -224.88232422 380.26025391 C-238.06461173 357.3416244 -246.67010918 331.76677437 -252 305.9375 C-252.14743652 305.22682373 -252.29487305 304.51614746 -252.44677734 303.78393555 C-255.43213787 288.14141634 -256.0623098 272.50580394 -256 256.625 C-255.99817719 255.65760895 -255.99635437 254.6902179 -255.99447632 253.69351196 C-255.94904826 239.36059023 -255.44016072 225.41476083 -252.6875 211.3125 C-252.44604248 209.96696045 -252.44604248 209.96696045 -252.19970703 208.59423828 C-241.37712011 148.78411096 -207.31935543 91.27004171 -158.6875 54.3125 C-158.14722168 53.89581055 -157.60694336 53.47912109 -157.05029297 53.04980469 C-147.0552884 45.3665127 -136.59540964 38.62407032 -125.6875 32.3125 C-125.01025879 31.91820801 -124.33301758 31.52391602 -123.63525391 31.11767578 C-100.7166244 17.93538827 -75.14177437 9.32989082 -49.3125 4 C-48.60182373 3.85256348 -47.89114746 3.70512695 -47.15893555 3.55322266 C-31.51641634 0.56786213 -15.88080394 -0.0623098 0 0 Z " fill="#FE9A00" transform="translate(255.6875,-0.3125)"/>
<path d="M0 0 C2.50036284 1.92784986 4.85583591 3.93893375 7.1953125 6.05859375 C8.02546875 6.7959375 8.855625 7.53328125 9.7109375 8.29296875 C20.65781487 18.56825855 27.4757985 30.91855965 32.1953125 45.05859375 C32.1953125 45.71859375 32.1953125 46.37859375 32.1953125 47.05859375 C32.76999268 46.84710693 33.34467285 46.63562012 33.93676758 46.41772461 C40.99750951 44.03571176 47.46358414 43.55191299 54.8828125 43.62109375 C56.03040039 43.62939209 57.17798828 43.63769043 58.36035156 43.64624023 C77.0310914 44.0168589 93.29305036 50.48035657 107.1953125 63.05859375 C107.95328125 63.72375 108.71125 64.38890625 109.4921875 65.07421875 C122.55613452 77.23720391 131.86957075 95.03166953 132.53125 113 C132.85694041 136.52405176 128.20367978 156.51909138 111.99609375 174.21484375 C108.00604782 178.26610378 103.83384919 181.77786898 99.1953125 185.05859375 C98.58816406 185.51492188 97.98101562 185.97125 97.35546875 186.44140625 C82.32468551 196.90046329 64.91631011 198.05859375 47.1953125 198.05859375 C47.1953125 239.63859375 47.1953125 281.21859375 47.1953125 324.05859375 C-17.16012971 324.15323411 -81.45385667 323.82581677 -145.8046875 323.05859375 C-145.8046875 281.47859375 -145.8046875 239.89859375 -145.8046875 197.05859375 C-154.0546875 197.05859375 -162.3046875 197.05859375 -170.8046875 197.05859375 C-191.46725655 192.01124864 -209.21510662 180.01260692 -220.8046875 162.05859375 C-231.28747996 143.68962176 -235.75356099 121.4084261 -230.3046875 100.62109375 C-226.17209005 88.58708638 -220.40694413 77.48765215 -211.8046875 68.05859375 C-211.28777344 67.45015625 -210.77085937 66.84171875 -210.23828125 66.21484375 C-199.19323204 54.03483961 -180.8629046 45.16637048 -164.60449219 43.78710938 C-161.39497037 43.6948761 -158.2025354 43.69730427 -154.9921875 43.74609375 C-153.91259766 43.74287109 -152.83300781 43.73964844 -151.72070312 43.73632812 C-145.98624676 43.77500318 -141.23968163 44.27534731 -135.8046875 46.05859375 C-134.4846875 46.05859375 -133.1646875 46.05859375 -131.8046875 46.05859375 C-131.38509766 44.85976562 -131.38509766 44.85976562 -130.95703125 43.63671875 C-121.97994027 19.0435306 -106.23806772 1.9766603 -82.7890625 -9.2109375 C-77.63216433 -11.54541229 -72.36859581 -12.94843736 -66.8046875 -13.94140625 C-65.87712646 -14.11051514 -64.94956543 -14.27962402 -63.99389648 -14.45385742 C-40.55479939 -18.0370984 -19.36386299 -13.40367675 0 0 Z " fill="#FEFEFE" transform="translate(305.8046875,89.94140625)"/>
<path d="M0 0 C5.16515507 4.36012856 10.14116692 8.87114368 15.04663086 13.52050781 C15.81818512 14.25015244 16.58973938 14.97979706 17.38467407 15.73155212 C24.46832445 22.44827123 31.48352619 29.23502756 38.47588253 36.04663467 C43.16061088 40.60706501 47.86659577 45.13962244 52.63208008 49.61572266 C57.26340349 53.96737897 61.82608234 58.38152252 66.35019112 62.84444427 C68.07199541 64.52115837 69.81619663 66.17522304 71.58347893 67.80393219 C85.98411416 81.12188291 85.98411416 81.12188291 87.08694458 91.59777832 C87.31429292 98.13597176 86.78142422 104.51494568 86 111 C85.79321495 113.08975164 85.58914742 115.1797743 85.38804626 117.27008057 C84.82910216 122.8901215 83.97355935 128.43804675 83 134 C82.83902832 134.92312988 82.67805664 135.84625977 82.51220703 136.79736328 C71.66189404 196.57310297 37.60761467 254.06087994 -11 291 C-11.54027832 291.41668945 -12.08055664 291.83337891 -12.63720703 292.26269531 C-22.6322116 299.9459873 -33.09209036 306.68842968 -44 313 C-44.67724121 313.39429199 -45.35448242 313.78858398 -46.05224609 314.19482422 C-75.04282764 330.86956391 -109.74305439 342.15687823 -143.20916748 344.57472229 C-146.34216511 344.81395083 -149.35321268 345.23635768 -152.43927002 345.81797791 C-159.00947545 346.76868513 -164.90954871 346.84418322 -170.75364685 343.35680008 C-177.66614992 338.05984148 -183.63854199 331.75040696 -189.61500072 325.4458096 C-192.24384974 322.69449213 -194.93018693 320.00042175 -197.6104126 317.29930115 C-202.66259114 312.19042622 -207.66128671 307.03242351 -212.64249253 301.85443014 C-218.32021646 295.95799666 -224.05894735 290.12247984 -229.80196142 284.28973687 C-238.71140034 275.23701568 -247.58885218 266.15363569 -256.41308594 257.01782227 C-257.28868668 256.1143959 -258.16428741 255.21096954 -259.06642151 254.28016663 C-259.85369125 253.46261902 -260.640961 252.64507141 -261.4520874 251.80274963 C-262.14142239 251.08836007 -262.83075737 250.37397051 -263.54098129 249.63793278 C-265 248 -265 248 -265 247 C-201.64 247 -138.28 247 -73 247 C-73 205.42 -73 163.84 -73 121 C-64.585 120.505 -64.585 120.505 -56 120 C-40.57462785 117.61721894 -28.16293481 112.86183903 -16 103 C-15.28199219 102.44570313 -14.56398438 101.89140625 -13.82421875 101.3203125 C-0.7337921 90.69546135 8.90690286 72.70074761 11 56 C12.57434579 36.63554675 10.42300423 21.42691461 1.13671875 4.2578125 C0 2 0 2 0 0 Z " fill="#E67500" transform="translate(426,167)"/>
<path d="M0 0 C17.46898022 0 17.46898022 0 23.5 2 C24.19939697 2.22002686 24.89879395 2.44005371 25.61938477 2.66674805 C37.33898869 6.56271378 47.84358233 12.70391687 57 21 C57.83015625 21.73734375 58.6603125 22.4746875 59.515625 23.234375 C70.46250237 33.5096648 77.280486 45.8599659 82 60 C82 60.66 82 61.32 82 62 C82.86202026 61.68276978 82.86202026 61.68276978 83.74145508 61.35913086 C90.80219701 58.97711801 97.26827164 58.49331924 104.6875 58.5625 C105.83508789 58.57079834 106.98267578 58.57909668 108.16503906 58.58764648 C126.8357789 58.95826515 143.09773786 65.42176282 157 78 C157.75796875 78.66515625 158.5159375 79.3303125 159.296875 80.015625 C172.36082202 92.17861016 181.67425825 109.97307578 182.3359375 127.94140625 C182.66162791 151.46545801 178.00836728 171.46049763 161.80078125 189.15625 C157.81073532 193.20751003 153.63853669 196.71927523 149 200 C148.08927734 200.68449219 148.08927734 200.68449219 147.16015625 201.3828125 C132.12937301 211.84186954 114.72099761 213 97 213 C97 240.06 97 267.12 97 295 C64.99 294.67 32.98 294.34 0 294 C0 196.98 0 99.96 0 0 Z " fill="#FEF4CA" transform="translate(256,75)"/>
<path d="M0 0 C3.21047262 -0.00162173 6.42093823 -0.00518241 9.63140869 -0.00918579 C14.66778584 -0.01498038 19.70413257 -0.01530922 24.74051094 -0.01093674 C26.59455918 -0.00993945 28.44860902 -0.01052876 30.30265617 -0.01277542 C32.82242883 -0.01529759 35.34211155 -0.01156973 37.86187744 -0.00601196 C38.60534424 -0.00803871 39.34881104 -0.01006546 40.11480713 -0.01215363 C45.1501343 0.00905154 45.1501343 0.00905154 46.26446533 1.12338257 C46.35724863 2.50498371 46.38193576 3.89126294 46.37799072 5.27597046 C46.37791519 6.15680801 46.37783966 7.03764557 46.37776184 7.94517517 C46.37260056 8.90246017 46.36743927 9.85974518 46.36212158 10.84603882 C46.35999916 12.30885536 46.35999916 12.30885536 46.35783386 13.80122375 C46.35221666 16.929474 46.33966126 20.0576538 46.32696533 23.18588257 C46.32195255 25.30111591 46.31738926 27.41635037 46.31329346 29.53158569 C46.30224165 34.72887553 46.28548679 39.92612402 46.26446533 45.12338257 C32.09780923 45.15477702 17.93115174 45.17463028 3.76446533 45.18588257 C2.15959196 45.1871666 2.15959196 45.1871666 0.52229691 45.18847656 C-34.58725873 45.21321377 -69.69072401 45.01780681 -104.79803467 44.62338257 C-105.86295135 44.61142475 -106.92786804 44.59946693 -108.02505493 44.58714676 C-120.928669 44.44145436 -133.83208689 44.28385183 -146.73553467 44.12338257 C-146.73553467 29.93338257 -146.73553467 15.74338257 -146.73553467 1.12338257 C-97.82387403 0.51632295 -48.91588187 0.01627956 0 0 Z " fill="#81C8EF" transform="translate(306.73553466796875,368.8766174316406)"/>
<path d="M0 0 C31.68 0 63.36 0 96 0 C96 14.19 96 28.38 96 43 C64.32 43 32.64 43 0 43 C0 28.81 0 14.62 0 0 Z " fill="#B6E1F7" transform="translate(160,370)"/>
<path d="M0 0 C0.90878906 0.51949219 1.81757812 1.03898437 2.75390625 1.57421875 C19.83831391 11.13130382 33.868804 13.88160022 54 15 C54 27.87 54 40.74 54 54 C49.55246663 50.18782854 45.43074646 46.54485402 41.34765625 42.41015625 C40.84382919 41.90254257 40.34000214 41.39492889 39.82090759 40.87193298 C37.70099779 38.73593948 35.5871839 36.59395298 33.47290039 34.45239258 C28.08197214 28.99816902 22.69852052 23.60834791 16.86108398 18.62524414 C13.4295971 15.62860132 10.22178898 12.40608641 7 9.1875 C6.32066406 8.52041016 5.64132813 7.85332031 4.94140625 7.16601562 C4.30074219 6.52728516 3.66007812 5.88855469 3 5.23046875 C2.4225 4.65707764 1.845 4.08368652 1.25 3.49291992 C0 2 0 2 0 0 Z " fill="#E67501" transform="translate(105,273)"/>
<path d="M0 0 C5.62303757 4.67466337 10.79741554 9.67765667 15.9375 14.875 C16.71673828 15.65875 17.49597656 16.4425 18.29882812 17.25 C20.20154085 19.16438581 22.10186171 21.08108034 24 23 C21.57869669 25.42130331 20.19888623 25.52840504 16.875 26.125 C15.96492188 26.29257813 15.05484375 26.46015625 14.1171875 26.6328125 C13.41851562 26.75398438 12.71984375 26.87515625 12 27 C11.77860352 26.45585449 11.55720703 25.91170898 11.32910156 25.35107422 C10.30951493 22.85621682 9.27985255 20.36563631 8.25 17.875 C7.90195312 17.0190625 7.55390625 16.163125 7.1953125 15.28125 C5.18667552 10.44564245 2.97291685 6.29867707 0 2 C0 1.34 0 0.68 0 0 Z " fill="#E67601" transform="translate(326,110)"/>
</svg>
