<?xml version="1.0" encoding="UTF-8"?>
<svg version="1.1" xmlns="http://www.w3.org/2000/svg" width="512" height="512">
<path d="M0 0 C0.79141388 0.00087616 1.58282776 0.00175232 2.39822388 0.00265503 C44.72114698 0.15675046 83.21206327 16.89017288 113.5625 46.375 C116.03763219 48.9367889 118.31181003 51.6148946 120.5625 54.375 C121.39523437 55.37015625 122.22796875 56.3653125 123.0859375 57.390625 C149.94714892 90.04121977 161.78885676 131.32183017 158.31933594 173.31835938 C157.25000814 183.63049082 155.94950563 194.87519736 151.5625 204.375 C148.1272952 206.66513653 146.577169 206.55342973 142.5625 206.375 C142.40007812 207.67050781 142.40007812 207.67050781 142.234375 208.9921875 C141.32623834 213.56455 139.34782293 217.39272678 137.328125 221.5703125 C137.07546875 222.49585938 136.8228125 223.42140625 136.5625 224.375 C137.91110716 226.41288324 137.91110716 226.41288324 139.5625 228.375 C140.48899412 234.00523347 138.22211095 237.40654718 135.25 241.9375 C134.80285645 242.63496338 134.35571289 243.33242676 133.89501953 244.05102539 C129.33960715 250.99482736 124.09137236 257.19762832 118.5625 263.375 C117.83933594 264.21933594 117.11617188 265.06367188 116.37109375 265.93359375 C112.10552274 270.88365952 107.62525706 275.24850623 102.5625 279.375 C101.6859375 280.11234375 100.809375 280.8496875 99.90625 281.609375 C88.9654049 290.46356408 76.65276423 297.49622751 63.98828125 303.6015625 C60.51906759 304.97127306 60.51906759 304.97127306 59.5625 307.375 C59.41245027 308.7484635 59.31411994 310.1278526 59.24609375 311.5078125 C59.20419922 312.31347656 59.16230469 313.11914062 59.11914062 313.94921875 C59.07982422 314.79097656 59.04050781 315.63273437 59 316.5 C58.93522461 317.77423828 58.93522461 317.77423828 58.86914062 319.07421875 C58.76295764 321.17428223 58.66221503 323.27461948 58.5625 325.375 C59.16360596 325.35759766 59.76471191 325.34019531 60.3840332 325.32226562 C61.58032349 325.30196289 61.58032349 325.30196289 62.80078125 325.28125 C63.58751221 325.26384766 64.37424316 325.24644531 65.18481445 325.22851562 C70.15722854 325.53485595 73.94238429 327.65430061 77.32421875 331.24609375 C82.79688606 338.25587827 84.64579578 344.48450358 83.5625 353.375 C82.66494321 355.63579159 81.65129933 357.57663606 80.33984375 359.62109375 C79.30886909 361.94726272 79.70251788 363.01939681 80.5625 365.375 C81.3359375 366.8909375 81.3359375 366.8909375 82.125 368.4375 C84.58645856 374.16865725 84.55543451 380.17554436 82.71875 386.09375 C79.99700856 392.19927809 76.37347067 396.08049571 70.5625 399.375 C67.79684618 400.29688461 66.17966298 400.49285222 63.33203125 400.47265625 C62.52958984 400.46943359 61.72714844 400.46621094 60.90039062 400.46289062 C60.06701172 400.45451172 59.23363281 400.44613281 58.375 400.4375 C57.53001953 400.43298828 56.68503906 400.42847656 55.81445312 400.42382812 C53.73043845 400.41205403 51.64646023 400.3941189 49.5625 400.375 C49.46066406 401.55191406 49.35882813 402.72882813 49.25390625 403.94140625 C47.9433107 414.30080935 41.27989571 424.55434394 33.5625 431.375 C20.41563214 441.55976492 6.80031686 443.95757247 -9.4375 442.375 C-22.50716652 439.95575176 -33.7606582 432.10767203 -41.4375 421.375 C-45.40606117 414.4237518 -47.68147989 408.29602886 -48.4375 400.375 C-49.6440625 400.42140625 -50.850625 400.4678125 -52.09375 400.515625 C-53.70830836 400.55317287 -55.32289378 400.58956977 -56.9375 400.625 C-58.12472656 400.67527344 -58.12472656 400.67527344 -59.3359375 400.7265625 C-65.23542918 400.82327548 -69.52654165 399.7081578 -74.4375 396.375 C-76.4609375 394.41015625 -76.4609375 394.41015625 -77.8125 392.4375 C-78.27398437 391.78910156 -78.73546875 391.14070313 -79.2109375 390.47265625 C-82.67938781 384.54094346 -83.26276574 379.14787056 -82.4375 372.375 C-81.53994321 370.11420841 -80.52629933 368.17336394 -79.21484375 366.12890625 C-78.18386909 363.80273728 -78.57751788 362.73060319 -79.4375 360.375 C-80.2109375 358.8590625 -80.2109375 358.8590625 -81 357.3125 C-83.46145856 351.58134275 -83.43043451 345.57445564 -81.59375 339.65625 C-78.87200856 333.55072191 -75.24847067 329.66950429 -69.4375 326.375 C-66.55538698 325.41429566 -64.73899956 325.26918117 -61.75 325.3125 C-60.94175781 325.32152344 -60.13351563 325.33054687 -59.30078125 325.33984375 C-58.37845703 325.35724609 -58.37845703 325.35724609 -57.4375 325.375 C-57.49755854 322.45615472 -57.58458616 319.54238361 -57.6875 316.625 C-57.70167969 315.8 -57.71585937 314.975 -57.73046875 314.125 C-57.91633792 309.28675601 -57.91633792 309.28675601 -60.0234375 305.02734375 C-63.13602108 302.89688605 -66.40209705 301.2703926 -69.8125 299.6875 C-82.16618801 293.71455182 -93.05737815 286.39096687 -103.4375 277.375 C-104.29085937 276.64410156 -105.14421875 275.91320312 -106.0234375 275.16015625 C-136.01437017 248.90655519 -154.46816974 209.99356392 -157.4375 170.375 C-158.46586673 151.46039757 -158.56994821 128.98533821 -150.4375 111.375 C-147.0022952 109.08486347 -145.452169 109.19657027 -141.4375 109.375 C-141.32921875 108.51132813 -141.2209375 107.64765625 -141.109375 106.7578125 C-140.20123834 102.18545 -138.22282293 98.35727322 -136.203125 94.1796875 C-135.95046875 93.25414062 -135.6978125 92.32859375 -135.4375 91.375 C-136.78610716 89.33711676 -136.78610716 89.33711676 -138.4375 87.375 C-139.39172 81.68977327 -137.01104437 78.24932274 -134 73.6875 C-133.5455249 72.98270508 -133.0910498 72.27791016 -132.62280273 71.55175781 C-128.63342851 65.46676551 -124.2547911 59.82975509 -119.4375 54.375 C-118.17486328 52.91320312 -118.17486328 52.91320312 -116.88671875 51.421875 C-102.28950308 34.79051153 -84.53790458 22.48417211 -64.4375 13.375 C-63.82438965 13.09672363 -63.2112793 12.81844727 -62.57958984 12.53173828 C-55.15562616 9.22754601 -47.64759257 6.72442608 -39.8125 4.625 C-39.07346436 4.42624268 -38.33442871 4.22748535 -37.57299805 4.02270508 C-25.0782452 0.84140437 -12.82762274 -0.03479874 0 0 Z " fill="#FEF389" transform="translate(255.4375,69.625)"/>
<path d="M0 0 C2.9375 1.375 2.9375 1.375 5 4 C5.40353526 9.61922849 3.77613907 15.18778745 2.50268555 20.62231445 C0.64589096 29.40488973 0.7833726 38.46464647 0.75976562 47.40185547 C0.75010838 49.60032722 0.7190091 51.79784184 0.6875 53.99609375 C0.58053257 68.02493584 2.82080829 81.06146538 7.5625 94.3125 C7.90764648 95.28324463 8.25279297 96.25398926 8.60839844 97.25415039 C14.59305304 113.53108097 23.01746244 127.62560728 34 141 C34.78375 141.95648438 35.5675 142.91296875 36.375 143.8984375 C41.6596472 150.032403 47.58682878 155.08055206 54 160 C54.85207031 160.66773438 55.70414062 161.33546875 56.58203125 162.0234375 C65.85401931 169.05735948 76.06273028 174.76603731 86.625 179.625 C92.78310314 182.62111416 95.98665069 186.97330138 99 193 C99 200.59 99 208.18 99 216 C127.38 216 155.76 216 185 216 C185 208.41 185 200.82 185 193 C190.98155156 183.42951751 195.81385506 179.97390551 205.5625 175.25 C219.04052103 168.70857057 230.3122208 160.44624747 241 150 C242.27617188 148.81664062 242.27617188 148.81664062 243.578125 147.609375 C252.8142979 138.8379152 260.02057808 128.32105789 266.87890625 117.63671875 C268 116 268 116 270 114 C277.08124618 114.22480147 277.08124618 114.22480147 280 116.6875 C281.32977625 119.76260757 281.33458297 121.64629777 281 125 C279.83698481 127.70391742 278.29929715 130.1053317 276.6875 132.5625 C276.24035645 133.25996338 275.79321289 133.95742676 275.33251953 134.67602539 C270.77710715 141.61982736 265.52887236 147.82262832 260 154 C259.27683594 154.84433594 258.55367188 155.68867188 257.80859375 156.55859375 C253.54302274 161.50865952 249.06275706 165.87350623 244 170 C243.1234375 170.73734375 242.246875 171.4746875 241.34375 172.234375 C230.4029049 181.08856408 218.09026423 188.12122751 205.42578125 194.2265625 C201.95656759 195.59627306 201.95656759 195.59627306 201 198 C200.84995027 199.3734635 200.75161994 200.7528526 200.68359375 202.1328125 C200.64169922 202.93847656 200.59980469 203.74414062 200.55664062 204.57421875 C200.51732422 205.41597656 200.47800781 206.25773438 200.4375 207.125 C200.37272461 208.39923828 200.37272461 208.39923828 200.30664062 209.69921875 C200.20045764 211.79928223 200.09971503 213.89961948 200 216 C200.60110596 215.98259766 201.20221191 215.96519531 201.8215332 215.94726562 C202.61906006 215.93373047 203.41658691 215.92019531 204.23828125 215.90625 C205.02501221 215.88884766 205.81174316 215.87144531 206.62231445 215.85351562 C211.59472854 216.15985595 215.37988429 218.27930061 218.76171875 221.87109375 C224.23438606 228.88087827 226.08329578 235.10950358 225 244 C224.10244321 246.26079159 223.08879933 248.20163606 221.77734375 250.24609375 C220.74636909 252.57226272 221.14001788 253.64439681 222 256 C222.7734375 257.5159375 222.7734375 257.5159375 223.5625 259.0625 C226.02395856 264.79365725 225.99293451 270.80054436 224.15625 276.71875 C221.43450856 282.82427809 217.81097067 286.70549571 212 290 C209.23434618 290.92188461 207.61716298 291.11785222 204.76953125 291.09765625 C203.96708984 291.09443359 203.16464844 291.09121094 202.33789062 291.08789062 C201.50451172 291.07951172 200.67113281 291.07113281 199.8125 291.0625 C198.96751953 291.05798828 198.12253906 291.05347656 197.25195312 291.04882812 C195.16793845 291.03705403 193.08396023 291.0191189 191 291 C190.89816406 292.17691406 190.79632813 293.35382813 190.69140625 294.56640625 C189.3808107 304.92580935 182.71739571 315.17934394 175 322 C161.85313214 332.18476492 148.23781686 334.58257247 132 333 C118.93033348 330.58075176 107.6768418 322.73267203 100 312 C96.03143883 305.0487518 93.75602011 298.92102886 93 291 C91.7934375 291.04640625 90.586875 291.0928125 89.34375 291.140625 C87.72919164 291.17817287 86.11460622 291.21456977 84.5 291.25 C83.31277344 291.30027344 83.31277344 291.30027344 82.1015625 291.3515625 C76.20207082 291.44827548 71.91095835 290.3331578 67 287 C64.9765625 285.03515625 64.9765625 285.03515625 63.625 283.0625 C63.16351563 282.41410156 62.70203125 281.76570313 62.2265625 281.09765625 C58.75811219 275.16594346 58.17473426 269.77287056 59 263 C59.89755679 260.73920841 60.91120067 258.79836394 62.22265625 256.75390625 C63.25363091 254.42773728 62.85998212 253.35560319 62 251 C61.2265625 249.4840625 61.2265625 249.4840625 60.4375 247.9375 C57.97604144 242.20634275 58.00706549 236.19945564 59.84375 230.28125 C62.56549144 224.17572191 66.18902933 220.29450429 72 217 C74.88211302 216.03929566 76.69850044 215.89418117 79.6875 215.9375 C80.49574219 215.94652344 81.30398437 215.95554687 82.13671875 215.96484375 C83.05904297 215.98224609 83.05904297 215.98224609 84 216 C83.93994146 213.08115472 83.85291384 210.16738361 83.75 207.25 C83.73582031 206.425 83.72164063 205.6 83.70703125 204.75 C83.52116208 199.91175601 83.52116208 199.91175601 81.4140625 195.65234375 C78.30147892 193.52188605 75.03540295 191.8953926 71.625 190.3125 C59.27131199 184.33955182 48.38012185 177.01596687 38 168 C37.14664063 167.26910156 36.29328125 166.53820312 35.4140625 165.78515625 C5.42312983 139.53155519 -13.03066974 100.61856392 -16 61 C-17.02836673 42.08539757 -17.13244821 19.61033821 -9 2 C-5.48746854 -0.34168764 -4.13530644 -0.49623677 0 0 Z " fill="#010100" transform="translate(114,179)"/>
<path d="M0 0 C-0.4640625 0.3813208 -0.928125 0.7626416 -1.40625 1.15551758 C-4.74392818 5.01828698 -5.01512886 10.80647734 -6 15.6875 C-6.39191528 17.61710571 -6.39191528 17.61710571 -6.79174805 19.58569336 C-11.47385456 43.42597659 -12.48071238 67.76275219 -13 92 C-13.67039307 92.17885742 -14.34078613 92.35771484 -15.03149414 92.54199219 C-23.27993861 94.85571715 -28.62560783 97.78736873 -32.9375 105.4375 C-34.10820981 109.36282113 -34.64259216 112.92555058 -35 117 C-35.85722656 117.23074219 -36.71445313 117.46148437 -37.59765625 117.69921875 C-46.38898025 120.20677791 -52.87251453 122.2539284 -57.9375 130.125 C-60.89874528 136.01807422 -61.18691755 141.95051659 -59.3359375 148.265625 C-56.34583318 155.07786268 -51.11118898 159.23413613 -44.5 162.375 C-35.97441138 165.48586363 -25.53660692 165.39341107 -17.06640625 162.06640625 C-13.80380994 160.38268452 -10.81740224 158.35970427 -7.84765625 156.20703125 C-6 155 -6 155 -4 155 C-3.81566406 155.76957031 -3.63132812 156.53914062 -3.44140625 157.33203125 C8.2911004 203.7927576 29.65453943 245.09882323 61.828125 280.6171875 C66.53787066 286.17468737 64 289.73472186 64 299 C45.85 299 27.7 299 9 299 C8.67 291.41 8.34 283.82 8 276 C2.22944097 266.76710554 -2.23190882 263.78873803 -11.6340332 259.24316406 C-45.83951508 242.69960203 -70.71880284 213.03176892 -83.375 177.4375 C-83.69686279 176.54087646 -84.01872559 175.64425293 -84.3503418 174.72045898 C-88.7800423 161.64692609 -90.49685918 148.82616613 -90.33618164 135.09057617 C-90.31246539 132.93435319 -90.31567286 130.77936894 -90.32226562 128.62304688 C-90.30014154 117.80214335 -89.66645724 106.94346256 -86.875 96.4375 C-86.01375112 93.05402226 -85.516993 90.46155019 -86 87 C-87.88077873 85.08743288 -87.88077873 85.08743288 -90 84 C-89.67422369 76.83292123 -86.34556372 71.23072876 -83 65 C-82.113125 65.103125 -81.22625 65.20625 -80.3125 65.3125 C-75.88277464 64.89460138 -74.79594726 63.37824371 -72 60 C-70.68038663 58.13779111 -69.40984848 56.23995054 -68.1875 54.3125 C-64.43817732 48.57617672 -60.41928557 43.23424888 -56 38 C-55.30132812 37.16597656 -54.60265625 36.33195312 -53.8828125 35.47265625 C-48.46597979 29.2172747 -42.55497132 24.03311783 -36 19 C-35.17113281 18.34386719 -34.34226563 17.68773438 -33.48828125 17.01171875 C-6.78619019 -3.39309509 -6.78619019 -3.39309509 0 0 Z " fill="#FEEE63" transform="translate(204,96)"/>
<path d="M0 0 C0.79141388 0.00087616 1.58282776 0.00175232 2.39822388 0.00265503 C44.72114698 0.15675046 83.21206327 16.89017288 113.5625 46.375 C116.03763219 48.9367889 118.31181003 51.6148946 120.5625 54.375 C121.39523437 55.37015625 122.22796875 56.3653125 123.0859375 57.390625 C149.94714892 90.04121977 161.78885676 131.32183017 158.31933594 173.31835938 C157.25000814 183.63049082 155.94950563 194.87519736 151.5625 204.375 C148.04425489 206.72049674 146.70474306 206.95491403 142.5625 206.375 C139.18701595 203.95345709 137.75201233 202.51207399 137.0625 198.375 C137.40531339 193.65871881 138.68307827 189.03912123 139.80859375 184.4609375 C141.13158504 179.04558455 141.72185366 174.04945798 141.73046875 168.46875 C141.73379715 167.70759888 141.73712555 166.94644775 141.74055481 166.16223145 C141.74560552 164.5518453 141.74796371 162.94144874 141.74780273 161.33105469 C141.74996813 158.91062263 141.76808457 156.49066277 141.78710938 154.0703125 C141.83426915 141.57273224 140.65740604 129.76181036 137 117.75 C136.74532959 116.91025635 136.49065918 116.0705127 136.22827148 115.20532227 C131.97659718 101.80485541 125.74251831 88.82356685 117.5625 77.375 C116.85996094 76.37726563 116.15742188 75.37953125 115.43359375 74.3515625 C93.22786531 43.71327896 59.77076507 23.6937086 22.5625 17.375 C17.88645467 16.75837864 13.27626859 16.48793404 8.5625 16.375 C7.42941406 16.3443042 7.42941406 16.3443042 6.2734375 16.31298828 C-30.98678465 15.41844723 -65.21846493 26.67235559 -93.4375 51.375 C-94.26507813 52.05820313 -95.09265625 52.74140625 -95.9453125 53.4453125 C-106.23287634 62.18490435 -113.92882908 73.13418639 -121.08984375 84.48876953 C-123.18396098 87.756406 -124.99748426 90.47466873 -128.4375 92.375 C-132.18995951 92.30916738 -134.50062483 92.19098805 -137.375 89.6875 C-138.79398001 86.59913175 -138.78794343 84.77589423 -138.4375 81.375 C-137.22912192 78.63124482 -135.64898239 76.18575789 -134 73.6875 C-133.5455249 72.98270508 -133.0910498 72.27791016 -132.62280273 71.55175781 C-128.63342851 65.46676551 -124.2547911 59.82975509 -119.4375 54.375 C-118.17486328 52.91320312 -118.17486328 52.91320312 -116.88671875 51.421875 C-102.28950308 34.79051153 -84.53790458 22.48417211 -64.4375 13.375 C-63.82438965 13.09672363 -63.2112793 12.81844727 -62.57958984 12.53173828 C-55.15562616 9.22754601 -47.64759257 6.72442608 -39.8125 4.625 C-39.07346436 4.42624268 -38.33442871 4.22748535 -37.57299805 4.02270508 C-25.0782452 0.84140437 -12.82762274 -0.03479874 0 0 Z " fill="#020101" transform="translate(255.4375,69.625)"/>
<path d="M0 0 C1.07378906 -0.020625 2.14757812 -0.04125 3.25390625 -0.0625 C14.42549086 -0.11627417 25.47557843 1.44798704 34 9.25 C35.71776206 11.54034942 36.78803369 13.62407299 38 16.25 C38.495 17.24 38.495 17.24 39 18.25 C40.07506486 33.56199516 38.60525774 46.04922515 28.1640625 58.09375 C20.71722566 65.51370295 12.0521595 69.22494033 1.5625 69.6875 C-9.04470446 69.31400689 -17.63176174 64.75631428 -25 57.25 C-34.20864622 45.49206754 -36.05491915 34.77652187 -35 20.25 C-33.955258 15.01871943 -31.5674685 11.18651696 -28 7.25 C-25.125 5.484375 -25.125 5.484375 -22 4 C-20.96875 3.49984375 -19.9375 2.9996875 -18.875 2.484375 C-12.63121779 -0.19637932 -6.71889209 0.03136006 0 0 Z " fill="#030302" transform="translate(254,197.75)"/>
<path d="M0 0 C5.41962993 4.78085218 8.89374439 9.71367489 9.4375 17 C9.33601685 20.34260122 8.9296884 21.10440207 6.9375 24.0625 C4 26 4 26 0.375 26.125 C-3 25 -3 25 -4.8125 22.8125 C-6 20 -6 20 -7 16.8125 C-7.78737233 13.70976172 -7.78737233 13.70976172 -11 12 C-15.50850182 12.34445598 -15.50850182 12.34445598 -19 15 C-19.16677282 18.58343976 -19.16677282 18.58343976 -19 22 C-18.34773438 22.27972656 -17.69546875 22.55945313 -17.0234375 22.84765625 C-9.49812023 26.29953482 -5.52710868 30.04086308 -1.125 36.9375 C0.9905754 42.69656636 0.58160714 47.13464432 -1.6875 52.6875 C-4.99907651 59.41450037 -10.35034857 63.72119263 -17 67 C-26.50526983 70.22841709 -37.48280671 70.75624491 -46.71484375 66.39453125 C-53.29882586 62.37661396 -59.04207566 57.70116907 -61 50 C-61.88620157 43.30765021 -61.39834246 37.8473061 -57.75 32.07421875 C-52.86788637 26.28760639 -46.43472127 22.33824983 -39 21 C-37.68 21 -36.36 21 -35 21 C-35.0825 19.845 -35.165 18.69 -35.25 17.5 C-35.20820452 11.57549044 -33.17214184 7.30818413 -29.12890625 3.01171875 C-20.05258917 -5.27535336 -10.73050768 -6.26382481 0 0 Z " fill="#FEA1AB" transform="translate(204,192)"/>
<path d="M0 0 C5.34265339 3.04520406 9.21272979 7.71779093 12.25 13 C13.05130768 16.56136748 12.93614269 19.85254054 12.8125 23.5 C14.545 23.62375 14.545 23.62375 16.3125 23.75 C23.06211508 24.59818172 28.88914099 27.85016094 33.8125 32.5 C38.70300745 39.15652403 39.58047889 44.38613609 38.8125 52.5 C36.99977007 59.16207116 32.44672542 63.7406773 26.8125 67.5 C17.74741918 72.42477949 7.41862135 73.17468263 -2.53125 70.65234375 C-10.11064088 67.82921205 -16.26291484 63.60563172 -20.33984375 56.48828125 C-22.57628694 51.24243062 -23.2429355 45.9583767 -21.56640625 40.46484375 C-18.28356846 32.89243125 -11.7560529 27.56346189 -4.1875 24.5 C-3.5275 24.5 -2.8675 24.5 -2.1875 24.5 C-2.45220758 19.5981137 -2.45220758 19.5981137 -4.9375 15.5625 C-7.63713365 14.287673 -9.23666349 14.04602515 -12.1875 14.5 C-15.61065277 17.21964769 -16.22111138 20.37184126 -17.34375 24.44140625 C-18.1875 26.5 -18.1875 26.5 -21.1875 28.5 C-24.84705902 28.36930146 -27.27165569 28.26812749 -30.125 25.875 C-32.11693221 21.42244566 -31.57249873 17.14176429 -30.25 12.5625 C-27.82577243 6.61212323 -22.39805763 2.05235753 -16.69921875 -0.703125 C-11.15963404 -2.46062932 -5.34622808 -2.35067616 0 0 Z " fill="#FEA1AB" transform="translate(330.1875,189.5)"/>
<path d="M0 0 C1.05148727 -0.00838898 2.10297455 -0.01677795 3.18632507 -0.02542114 C4.33450211 -0.01418213 5.48267914 -0.00294312 6.66564941 0.00863647 C7.87900467 0.00483978 9.09235992 0.00104309 10.34248352 -0.00286865 C13.6671602 -0.00900867 16.99084224 0.00273128 20.31540108 0.02303743 C23.79554751 0.04061824 27.27567758 0.03708315 30.75585938 0.03631592 C36.60006699 0.03818846 42.44406681 0.05554554 48.28820801 0.08285522 C55.04336385 0.1143056 61.79829214 0.12485138 68.55351591 0.12338412 C75.74717224 0.12203268 82.94074093 0.13591834 90.1343708 0.15427732 C92.2063391 0.15853815 94.27829323 0.15995944 96.3502655 0.16075516 C100.21198557 0.16313918 104.07351685 0.18257052 107.93518066 0.20394897 C109.0833577 0.2030426 110.23153473 0.20213623 111.414505 0.20120239 C112.99173592 0.21399734 112.99173592 0.21399734 114.60083008 0.22705078 C115.97019588 0.23207831 115.97019588 0.23207831 117.36722565 0.23720741 C119.97711222 0.51315908 121.59548246 1.08805375 123.80041504 2.49447632 C125.32533502 5.54431628 125.03604052 8.13681322 124.80041504 11.49447632 C123.25778691 13.59806013 122.11933186 14.33501791 119.80041504 15.49447632 C118.14976739 15.59577591 116.49507415 15.63392154 114.84133911 15.64164734 C113.79260117 15.64880264 112.74386322 15.65595795 111.66334534 15.66333008 C109.93029396 15.66736343 109.93029396 15.66736343 108.16223145 15.67147827 C106.94916824 15.67804947 105.73610504 15.68462067 104.48628235 15.69139099 C101.15358106 15.70774561 97.82094329 15.71935258 94.48821688 15.72759652 C92.40669664 15.73274589 90.32518087 15.73882161 88.24366379 15.74510765 C81.73285082 15.76415877 75.22204919 15.77839082 68.71121371 15.78671962 C61.19201372 15.79649688 53.67310773 15.82282909 46.15401137 15.86322051 C40.34418759 15.89336071 34.5344482 15.90818642 28.72454774 15.91150063 C25.25346424 15.91385328 21.78269485 15.92284101 18.3116951 15.94796181 C14.44016303 15.97552895 10.56901933 15.97141779 6.6973877 15.96444702 C5.54606857 15.97725708 4.39474945 15.99006714 3.20854187 16.00326538 C2.15416428 15.99632156 1.09978668 15.98937775 0.01345825 15.98222351 C-0.90204992 15.98461186 -1.8175581 15.98700022 -2.76080894 15.98946095 C-5.99882052 15.33225998 -7.19115726 14.07151629 -9.19958496 11.49447632 C-9.69958496 7.99447632 -9.69958496 7.99447632 -9.19958496 4.49447632 C-6.37592266 0.87388016 -4.54676541 -0.00542645 0 0 Z " fill="#7192DE" transform="translate(198.1995849609375,439.5055236816406)"/>
<path d="M0 0 C1.05148727 -0.00838898 2.10297455 -0.01677795 3.18632507 -0.02542114 C4.33450211 -0.01418213 5.48267914 -0.00294312 6.66564941 0.00863647 C7.87900467 0.00483978 9.09235992 0.00104309 10.34248352 -0.00286865 C13.6671602 -0.00900867 16.99084224 0.00273128 20.31540108 0.02303743 C23.79554751 0.04061824 27.27567758 0.03708315 30.75585938 0.03631592 C36.60006699 0.03818846 42.44406681 0.05554554 48.28820801 0.08285522 C55.04336385 0.1143056 61.79829214 0.12485138 68.55351591 0.12338412 C75.74717224 0.12203268 82.94074093 0.13591834 90.1343708 0.15427732 C92.2063391 0.15853815 94.27829323 0.15995944 96.3502655 0.16075516 C100.21198557 0.16313918 104.07351685 0.18257052 107.93518066 0.20394897 C109.0833577 0.2030426 110.23153473 0.20213623 111.414505 0.20120239 C112.99173592 0.21399734 112.99173592 0.21399734 114.60083008 0.22705078 C115.97019588 0.23207831 115.97019588 0.23207831 117.36722565 0.23720741 C119.97711222 0.51315908 121.59548246 1.08805375 123.80041504 2.49447632 C125.32533502 5.54431628 125.03604052 8.13681322 124.80041504 11.49447632 C123.25778691 13.59806013 122.11933186 14.33501791 119.80041504 15.49447632 C118.14976739 15.59577591 116.49507415 15.63392154 114.84133911 15.64164734 C113.79260117 15.64880264 112.74386322 15.65595795 111.66334534 15.66333008 C109.93029396 15.66736343 109.93029396 15.66736343 108.16223145 15.67147827 C106.94916824 15.67804947 105.73610504 15.68462067 104.48628235 15.69139099 C101.15358106 15.70774561 97.82094329 15.71935258 94.48821688 15.72759652 C92.40669664 15.73274589 90.32518087 15.73882161 88.24366379 15.74510765 C81.73285082 15.76415877 75.22204919 15.77839082 68.71121371 15.78671962 C61.19201372 15.79649688 53.67310773 15.82282909 46.15401137 15.86322051 C40.34418759 15.89336071 34.5344482 15.90818642 28.72454774 15.91150063 C25.25346424 15.91385328 21.78269485 15.92284101 18.3116951 15.94796181 C14.44016303 15.97552895 10.56901933 15.97141779 6.6973877 15.96444702 C5.54606857 15.97725708 4.39474945 15.99006714 3.20854187 16.00326538 C2.15416428 15.99632156 1.09978668 15.98937775 0.01345825 15.98222351 C-0.90204992 15.98461186 -1.8175581 15.98700022 -2.76080894 15.98946095 C-5.99882052 15.33225998 -7.19115726 14.07151629 -9.19958496 11.49447632 C-9.69958496 7.99447632 -9.69958496 7.99447632 -9.19958496 4.49447632 C-6.37592266 0.87388016 -4.54676541 -0.00542645 0 0 Z " fill="#84A3E3" transform="translate(198.1995849609375,409.5055236816406)"/>
<path d="M0 0 C1.01513672 -0.02900391 2.03027344 -0.05800781 3.07617188 -0.08789062 C9.19821875 -0.13987404 12.81822299 0.15739669 17.4375 4.3125 C20.83592449 9.41013674 19.9783514 15.36313455 19.4375 21.3125 C18.52538694 24.34974245 17.25484373 26.72797311 15.4375 29.3125 C14.839375 30.22 14.24125 31.1275 13.625 32.0625 C8.82259266 37.00211898 3.51886368 38.94061128 -3.1875 39.75 C-8.9001075 39.63276365 -13.28706517 36.93841134 -17.5625 33.3125 C-23.52646532 25.64970819 -25.05482138 18.98073135 -24.96875 9.39453125 C-24.55703869 6.27106758 -24.29719569 5.13364186 -22 3.0625 C-15.17675725 -0.41115085 -7.51526841 0.07184769 0 0 Z " fill="#48545E" transform="translate(258.5625,212.6875)"/>
<path d="M0 0 C21.78 0 43.56 0 66 0 C64.53363135 8.79821192 61.18686971 14.81848224 54.2578125 20.49609375 C50.44140971 23.03816135 46.33461007 24.56796186 42 26 C41.01 26.33 40.02 26.66 39 27 C27.78734783 28.12933187 18.42175446 25.86726622 9.5625 18.75 C3.84936697 13.28681654 1.29024134 7.74144802 0 0 Z " fill="#7091DC" transform="translate(223,470)"/>
<path d="M0 0 C5.34265339 3.04520406 9.21272979 7.71779093 12.25 13 C13.05826231 16.59227693 13.5168904 19.8533122 12.8125 23.5 C10.75 26.5625 10.75 26.5625 7.8125 28.5 C4.1875 28.625 4.1875 28.625 0.8125 27.5 C-1.36674145 24.86988101 -2.16672911 22.5662072 -3.1875 19.3125 C-3.97487233 16.20976172 -3.97487233 16.20976172 -7.1875 14.5 C-9.6875 14.08333333 -9.6875 14.08333333 -12.1875 14.5 C-15.61592717 17.20845746 -16.22256963 20.37712743 -17.34375 24.44140625 C-18.1875 26.5 -18.1875 26.5 -21.1875 28.5 C-24.84705902 28.36930146 -27.27165569 28.26812749 -30.125 25.875 C-32.11693221 21.42244566 -31.57249873 17.14176429 -30.25 12.5625 C-27.82577243 6.61212323 -22.39805763 2.05235753 -16.69921875 -0.703125 C-11.15963404 -2.46062932 -5.34622808 -2.35067616 0 0 Z " fill="#060503" transform="translate(330.1875,189.5)"/>
<path d="M0 0 C5.41962993 4.78085218 8.89374439 9.71367489 9.4375 17 C9.33601685 20.34260122 8.9296884 21.10440207 6.9375 24.0625 C4 26 4 26 0.375 26.125 C-3 25 -3 25 -4.8125 22.8125 C-6 20 -6 20 -7 16.8125 C-7.78737233 13.70976172 -7.78737233 13.70976172 -11 12 C-15.50850182 12.34445598 -15.50850182 12.34445598 -19 15 C-19.81181669 17.27818714 -20.46027707 19.58017529 -21.12109375 21.90625 C-22 24 -22 24 -25 26 C-28.6233318 25.87059529 -31.06985031 25.75012072 -33.9375 23.4375 C-35.78792602 19.19240501 -35.69606817 15.2983383 -34.37890625 10.94921875 C-31.54963901 4.4733404 -26.5586054 0.0461981 -20.5 -3.4375 C-12.97459425 -5.13071629 -6.63181736 -3.87125599 0 0 Z " fill="#060503" transform="translate(204,192)"/>
<path d="M0 0 C1.00073547 0.00030212 2.00147095 0.00060425 3.03253174 0.00091553 C4.10557556 0.02156067 5.17861938 0.04220581 6.28417969 0.06347656 C7.94039337 0.07196625 7.94039337 0.07196625 9.63006592 0.08062744 C13.15583695 0.10301388 16.68059093 0.1532166 20.20605469 0.20410156 C22.59666501 0.22416353 24.98729126 0.24241483 27.37792969 0.25878906 C33.23765156 0.30288613 39.09678047 0.36982158 44.95605469 0.45410156 C44.62605469 1.44410156 44.29605469 2.43410156 43.95605469 3.45410156 C43.81896621 7.77238849 43.86198265 11.28695827 44.95605469 15.45410156 C37.90865353 15.5554716 30.86144017 15.6255544 23.81347656 15.67382812 C21.41561863 15.69395092 19.01780981 15.72125216 16.62011719 15.75585938 C13.17468146 15.80434647 9.72989417 15.82706397 6.28417969 15.84472656 C4.67461395 15.87569427 4.67461395 15.87569427 3.03253174 15.9072876 C1.53142853 15.90774078 1.53142853 15.90774078 0 15.90820312 C-0.87936218 15.91708557 -1.75872437 15.92596802 -2.66473389 15.93511963 C-5.86614946 15.28787209 -7.05353345 13.99473505 -9.04394531 11.45410156 C-9.54394531 7.95410156 -9.54394531 7.95410156 -9.04394531 4.45410156 C-6.25696975 0.89670544 -4.48538605 -0.04530693 0 0 Z " fill="#5B84D9" transform="translate(198.0439453125,439.5458984375)"/>
<path d="M0 0 C1.00073547 0.00030212 2.00147095 0.00060425 3.03253174 0.00091553 C4.10557556 0.02156067 5.17861938 0.04220581 6.28417969 0.06347656 C7.94039337 0.07196625 7.94039337 0.07196625 9.63006592 0.08062744 C13.15583695 0.10301388 16.68059093 0.1532166 20.20605469 0.20410156 C22.59666501 0.22416353 24.98729126 0.24241483 27.37792969 0.25878906 C33.23765156 0.30288613 39.09678047 0.36982158 44.95605469 0.45410156 C44.62605469 1.44410156 44.29605469 2.43410156 43.95605469 3.45410156 C43.81896621 7.77238849 43.86198265 11.28695827 44.95605469 15.45410156 C37.90865353 15.5554716 30.86144017 15.6255544 23.81347656 15.67382812 C21.41561863 15.69395092 19.01780981 15.72125216 16.62011719 15.75585938 C13.17468146 15.80434647 9.72989417 15.82706397 6.28417969 15.84472656 C4.67461395 15.87569427 4.67461395 15.87569427 3.03253174 15.9072876 C1.53142853 15.90774078 1.53142853 15.90774078 0 15.90820312 C-0.87936218 15.91708557 -1.75872437 15.92596802 -2.66473389 15.93511963 C-5.86614946 15.28787209 -7.05353345 13.99473505 -9.04394531 11.45410156 C-9.54394531 7.95410156 -9.54394531 7.95410156 -9.04394531 4.45410156 C-6.25696975 0.89670544 -4.48538605 -0.04530693 0 0 Z " fill="#7192DE" transform="translate(198.0439453125,409.5458984375)"/>
<path d="M0 0 C3.13542363 2.18750486 5.78880092 4.77423851 8.47705078 7.484375 C10.18144147 9.18056888 11.92984677 10.82368212 13.68359375 12.46875 C14.95702966 13.68614109 16.22917154 14.90488726 17.5 16.125 C18.11174072 16.69814941 18.72348145 17.27129883 19.35375977 17.86181641 C23.26364855 21.70093549 25.14150199 24.53683087 26 30 C23.95454545 35.52272727 23.95454545 35.52272727 21 37 C18.09525768 37.60515465 16.79472362 37.7702404 14 37 C10.85979435 34.82816436 8.20914159 32.23401825 5.52294922 29.52880859 C3.80737659 27.80663549 2.06289203 26.11658068 0.31640625 24.42578125 C-0.95707076 23.1810586 -2.22921273 21.93496858 -3.5 20.6875 C-4.41761108 19.7900708 -4.41761108 19.7900708 -5.35375977 18.87451172 C-6.21505493 18.0143042 -6.21505493 18.0143042 -7.09375 17.13671875 C-7.86235352 16.37427856 -7.86235352 16.37427856 -8.64648438 15.59643555 C-11.29509333 12.47247199 -12.02030071 10.57857026 -11.875 6.4375 C-11 3 -11 3 -9.375 1.0625 C-5.71073587 -0.57677606 -4.02033399 -0.77812916 0 0 Z " fill="#000000" transform="translate(394,354)"/>
<path d="M0 0 C2.375 1.0625 2.375 1.0625 4 3 C5.17522304 6.89292631 5.54269876 8.98565218 3.59765625 12.62109375 C0.13539579 17.4958528 -4.31969617 21.56767124 -8.5625 25.75 C-9.42552734 26.61238281 -10.28855469 27.47476562 -11.17773438 28.36328125 C-19.7364641 36.86215972 -19.7364641 36.86215972 -24.4375 37.375 C-28 37 -28 37 -30.375 35.3125 C-32.23688689 32.66289173 -32.92278899 31.24286253 -33 28 C-31.11580584 23.55239008 -28.85895621 20.49101491 -25.4375 17.109375 C-24.11878906 15.79839844 -24.11878906 15.79839844 -22.7734375 14.4609375 C-21.85820313 13.56632812 -20.94296875 12.67171875 -20 11.75 C-18.62714844 10.38488281 -18.62714844 10.38488281 -17.2265625 8.9921875 C-7.46504211 -0.65482825 -7.46504211 -0.65482825 0 0 Z " fill="#000000" transform="translate(125,354)"/>
<path d="M0 0 C2.68601216 1.90848233 3.7337462 3.32549038 4.9375 6.375 C5.0452611 10.90096613 2.75011812 14.12428871 -0.12890625 17.48535156 C-0.93199219 18.2790918 -1.73507812 19.07283203 -2.5625 19.890625 C-3.44164062 20.76460937 -4.32078125 21.63859375 -5.2265625 22.5390625 C-6.14179688 23.43367188 -7.05703125 24.32828125 -8 25.25 C-8.91523438 26.16007812 -9.83046875 27.07015625 -10.7734375 28.0078125 C-19.75811887 36.88710172 -19.75811887 36.88710172 -24.4375 37.3125 C-28 37 -28 37 -30.375 35.9375 C-32.84618784 32.99108373 -33 30.8063221 -33 27 C-29.67787236 20.79067508 -24.40844773 16.15009401 -19.4375 11.25 C-18.57447266 10.38761719 -17.71144531 9.52523437 -16.82226562 8.63671875 C-7.34601468 -0.7732647 -7.34601468 -0.7732647 0 0 Z " fill="#000000" transform="translate(415,64)"/>
<path d="M0 0 C3.14020565 2.17183564 5.79085841 4.76598175 8.47705078 7.47119141 C10.19262341 9.19336451 11.93710797 10.88341932 13.68359375 12.57421875 C14.95707076 13.8189414 16.22921273 15.06503142 17.5 16.3125 C18.11174072 16.91078613 18.72348145 17.50907227 19.35375977 18.12548828 C19.92795654 18.69895996 20.50215332 19.27243164 21.09375 19.86328125 C21.60615234 20.37157471 22.11855469 20.87986816 22.64648438 21.40356445 C25.29509333 24.52752801 26.02030071 26.42142974 25.875 30.5625 C25 34 25 34 23.375 35.9375 C19.71073587 37.57677606 18.02033399 37.77812916 14 37 C10.86457637 34.81249514 8.21119908 32.22576149 5.52294922 29.515625 C3.81855853 27.81943112 2.07015323 26.17631788 0.31640625 24.53125 C-0.95702966 23.31385891 -2.22917154 22.09511274 -3.5 20.875 C-4.11174072 20.30185059 -4.72348145 19.72870117 -5.35375977 19.13818359 C-9.26364855 15.29906451 -11.14150199 12.46316913 -12 7 C-9.77020405 0.97955092 -6.56587922 -1.80959055 0 0 Z " fill="#000000" transform="translate(104,64)"/>
<path d="M0 0 C4.22477173 1.51825745 8.34590073 3.23872901 12.45654297 5.03759766 C14.38561959 5.87963543 16.32280298 6.70044325 18.26171875 7.51953125 C19.49532429 8.05084839 20.72841701 8.58335815 21.9609375 9.1171875 C23.07259277 9.59784668 24.18424805 10.07850586 25.32958984 10.57373047 C28 12 28 12 30 15 C30.32275035 18.55025388 30.40393519 21.09708604 28.9375 24.375 C26.05793126 26.79012217 23.72070726 26.77391495 20 27 C17.3523353 26.24265433 15.09646141 25.45701162 12.60546875 24.359375 C11.93203934 24.07652649 11.25860992 23.79367798 10.56477356 23.5022583 C9.1521757 22.90480967 7.74298096 22.29925611 6.3371582 21.68603516 C4.18393952 20.74844964 2.02029279 19.83933946 -0.14648438 18.93359375 C-1.52153074 18.34798904 -2.89590532 17.76080384 -4.26953125 17.171875 C-4.91533646 16.89986267 -5.56114166 16.62785034 -6.22651672 16.34759521 C-9.56296559 14.87846635 -10.92182995 14.11725508 -13 11 C-13.7781155 3.99696049 -13.7781155 3.99696049 -11 0.4375 C-7.002229 -1.47809861 -4.17369251 -1.03551541 0 0 Z " fill="#000000" transform="translate(437,293)"/>
<path d="M0 0 C1.71523412 3.12777986 1.89444701 6.52455202 1.0625 9.9375 C-3.23092744 15.05246942 -9.23516724 16.95072344 -15.24487305 19.42114258 C-17.24163519 20.24654224 -19.2249369 21.0996436 -21.20898438 21.95507812 C-22.48886225 22.48871193 -23.76944063 23.02066934 -25.05078125 23.55078125 C-26.20360596 24.03329346 -27.35643066 24.51580566 -28.54418945 25.01293945 C-32.44343234 26.07534918 -35.02588093 25.85786335 -38.9375 24.9375 C-41.75722931 22.57256574 -41.91600831 21.1094335 -42.375 17.4375 C-41.85088208 13.24455665 -41.12277692 12.57865406 -37.9375 9.9375 C-33.94760156 7.85097987 -29.79216926 6.16475465 -25.63012695 4.45385742 C-23.63336481 3.62845776 -21.6500631 2.7753564 -19.66601562 1.91992188 C-18.38613775 1.38628807 -17.10555937 0.85433066 -15.82421875 0.32421875 C-14.09498169 -0.39954956 -14.09498169 -0.39954956 -12.33081055 -1.13793945 C-7.93016098 -2.33696528 -4.05967567 -2.22627375 0 0 Z " fill="#000000" transform="translate(86.9375,294.0625)"/>
<path d="M0 0 C2.02067966 0.83889267 4.04771507 1.66084409 6.07568359 2.48193359 C7.36386166 3.01347465 8.65163704 3.54599286 9.93896484 4.07958984 C11.10524414 4.56024902 12.27152344 5.0409082 13.47314453 5.53613281 C16.26708984 6.96240234 16.26708984 6.96240234 18.26708984 9.96240234 C19.04520535 16.96544186 19.04520535 16.96544186 16.26708984 20.52490234 C12.26931884 22.44050095 9.44078236 21.99791776 5.26708984 20.96240234 C1.04231812 19.44414489 -3.07881089 17.72367334 -7.18945312 15.92480469 C-9.11852975 15.08276692 -11.05571313 14.26195909 -12.99462891 13.44287109 C-14.22823445 12.91155395 -15.46132716 12.37904419 -16.69384766 11.84521484 C-17.80550293 11.36455566 -18.9171582 10.88389648 -20.0625 10.38867188 C-22.73291016 8.96240234 -22.73291016 8.96240234 -24.73291016 5.96240234 C-25.06761507 2.28064831 -25.22865805 -0.14053003 -23.42041016 -3.41259766 C-17.10643009 -9.49272661 -6.74008182 -2.80657997 0 0 Z " fill="#000000" transform="translate(69.73291015625,141.03759765625)"/>
<path d="M0 0 C2.84195007 2.26543375 4.00102825 4.84293195 5.41015625 8.1484375 C5.84263672 9.15390625 6.27511719 10.159375 6.72070312 11.1953125 C7.16349609 12.24460937 7.60628906 13.29390625 8.0625 14.375 C8.50916016 15.4165625 8.95582031 16.458125 9.41601562 17.53125 C15.74215454 32.32060914 15.74215454 32.32060914 15 39 C12.42627616 42.02791041 10.84753406 42.86162709 6.9375 43.5 C3.26480784 42.87486091 2.39981209 41.79324825 0 39 C-1.34033203 36.51391602 -1.34033203 36.51391602 -2.5078125 33.75390625 C-2.93707031 32.75166016 -3.36632812 31.74941406 -3.80859375 30.71679688 C-4.24300781 29.67587891 -4.67742187 28.63496094 -5.125 27.5625 C-5.56714844 26.52544922 -6.00929687 25.48839844 -6.46484375 24.41992188 C-7.65601681 21.61832602 -8.83666966 18.81326365 -10 16 C-10.3697998 15.13753662 -10.73959961 14.27507324 -11.12060547 13.38647461 C-12.32989826 10.10473196 -12.31528724 7.46815968 -12 4 C-9.06642758 -1.30836915 -5.57456664 -1.39364166 0 0 Z " fill="#000000" transform="translate(176,17)"/>
<path d="M0 0 C2.81972931 2.36493426 2.97850831 3.8280665 3.4375 7.5 C2.91338208 11.69294335 2.18527692 12.35884594 -1 15 C-4.98989844 17.08652013 -9.14533074 18.77274535 -13.30737305 20.48364258 C-15.30413519 21.30904224 -17.2874369 22.1621436 -19.27148438 23.01757812 C-20.55136225 23.55121193 -21.83194063 24.08316934 -23.11328125 24.61328125 C-24.26610596 25.09579346 -25.41893066 25.57830566 -26.60668945 26.07543945 C-31.00733902 27.27446528 -34.87782433 27.16377375 -38.9375 24.9375 C-40.65273412 21.80972014 -40.83194701 18.41294798 -40 15 C-35.70657256 9.88503058 -29.70233276 7.98677656 -23.69262695 5.51635742 C-21.69586481 4.69095776 -19.7125631 3.8378564 -17.72851562 2.98242188 C-16.44863775 2.44878807 -15.16805937 1.91683066 -13.88671875 1.38671875 C-12.15748169 0.66295044 -12.15748169 0.66295044 -10.39331055 -0.07543945 C-6.49406766 -1.13784918 -3.91161907 -0.92036335 0 0 Z " fill="#000000" transform="translate(464,136)"/>
<path d="M0 0 C1.9375 1.625 1.9375 1.625 3 4 C3.32509642 9.04371421 2.69881863 12.57467955 0.69921875 17.1953125 C0.21646484 18.32324219 -0.26628906 19.45117188 -0.76367188 20.61328125 C-1.27478516 21.77214844 -1.78589844 22.93101563 -2.3125 24.125 C-3.06176758 25.87490234 -3.06176758 25.87490234 -3.82617188 27.66015625 C-9.75855179 41.3792759 -9.75855179 41.3792759 -13 43 C-16.65546065 43.40616229 -18.58917682 43.21434253 -21.875 41.5 C-24.26724399 38.6855953 -24.50955533 37.15570504 -24.40966797 33.5234375 C-23.50576359 27.95564507 -20.90924155 22.86670108 -18.625 17.75 C-18.11710937 16.57953125 -17.60921875 15.4090625 -17.0859375 14.203125 C-11.50265035 1.39095027 -11.50265035 1.39095027 -9.3125 -0.3125 C-5.89259577 -1.32922829 -3.42890226 -0.87281149 0 0 Z " fill="#000000" transform="translate(345,17)"/>
<path d="M0 0 C0.66 -0.0103125 1.32 -0.020625 2 -0.03125 C5.01517136 0.76965489 6.0946743 2.03131609 8 4.5 C8.39806919 7.32985885 8.56172418 9.76285202 8.53125 12.58984375 C8.5350769 13.37138321 8.53890381 14.15292267 8.54284668 14.95814514 C8.54556382 16.60809622 8.53821634 18.25809051 8.52148438 19.90795898 C8.50009809 22.42595129 8.52127505 24.94108142 8.546875 27.45898438 C8.54423112 29.06511044 8.5391049 30.67123472 8.53125 32.27734375 C8.53934692 33.02644516 8.54744385 33.77554657 8.55578613 34.54734802 C8.46809179 39.46779231 7.54513459 42.06740937 4 45.5 C2 46.12890625 2 46.12890625 0 46.0625 C-0.66 46.06378906 -1.32 46.06507812 -2 46.06640625 C-5.00600429 45.21509644 -6.09453585 43.98251554 -8 41.5 C-8.3978143 38.58920028 -8.56159 36.06451259 -8.53125 33.15625 C-8.5350769 32.35014282 -8.53890381 31.54403564 -8.54284668 30.71350098 C-8.5455639 29.01227568 -8.5382159 27.31100847 -8.52148438 25.60986328 C-8.5000699 23.00849104 -8.52129019 20.40988028 -8.546875 17.80859375 C-8.54423169 16.15363975 -8.53910663 14.49868746 -8.53125 12.84375 C-8.53934692 12.06761353 -8.54744385 11.29147705 -8.55578613 10.49182129 C-8.49371156 6.90994003 -8.30234006 4.89424896 -6.09179688 2.01171875 C-3.82430908 0.37303009 -2.76516346 -0.04320568 0 0 Z " fill="#000000" transform="translate(256,-0.5)"/>
<path d="M0 0 C1.24245483 -0.00574036 1.24245483 -0.00574036 2.51000977 -0.01159668 C4.25831317 -0.01431425 6.00665734 -0.00696381 7.75488281 0.00976562 C10.42865777 0.03117918 13.09974596 0.00996056 15.7734375 -0.015625 C17.47396425 -0.01298169 19.17448934 -0.00785665 20.875 0 C22.07201538 -0.01214539 22.07201538 -0.01214539 23.29321289 -0.02453613 C26.88227232 0.03599709 29.01510031 0.21922776 31.94140625 2.38085938 C34.00271307 5.34365156 34.01560703 6.99034441 33.4375 10.53125 C31.94140625 13.18334961 31.94140625 13.18334961 29.4375 15.53125 C26.39252697 16.02667141 23.91609398 16.21068124 20.875 16.16015625 C19.63254517 16.16377419 19.63254517 16.16377419 18.36499023 16.16746521 C16.61665044 16.16648728 14.86827948 16.15310621 13.12011719 16.12817383 C10.44619412 16.09386156 7.77557608 16.1075156 5.1015625 16.12695312 C3.40102762 16.12005446 1.70050126 16.11038189 0 16.09765625 C-1.19701538 16.10509605 -1.19701538 16.10509605 -2.41821289 16.11268616 C-5.98046877 16.0372248 -8.14565358 15.83368313 -11.06640625 13.71459961 C-13.265808 10.50486563 -13.10480227 8.32736592 -12.5625 4.53125 C-9.28926198 -0.25041233 -5.35158296 -0.05429925 0 0 Z " fill="#000000" transform="translate(450.5625,219.46875)"/>
<path d="M0 0 C1.24245483 -0.00574036 1.24245483 -0.00574036 2.51000977 -0.01159668 C4.25831317 -0.01431425 6.00665734 -0.00696381 7.75488281 0.00976562 C10.42865777 0.03117918 13.09974596 0.00996056 15.7734375 -0.015625 C17.47396425 -0.01298169 19.17448934 -0.00785665 20.875 0 C22.07201538 -0.01214539 22.07201538 -0.01214539 23.29321289 -0.02453613 C26.88227232 0.03599709 29.01510031 0.21922776 31.94140625 2.38085938 C34.00271307 5.34365156 34.01560703 6.99034441 33.4375 10.53125 C31.94140625 13.18334961 31.94140625 13.18334961 29.4375 15.53125 C26.39252697 16.02667141 23.91609398 16.21068124 20.875 16.16015625 C19.63254517 16.16377419 19.63254517 16.16377419 18.36499023 16.16746521 C16.61665044 16.16648728 14.86827948 16.15310621 13.12011719 16.12817383 C10.44619412 16.09386156 7.77557608 16.1075156 5.1015625 16.12695312 C3.40102762 16.12005446 1.70050126 16.11038189 0 16.09765625 C-1.19701538 16.10509605 -1.19701538 16.10509605 -2.41821289 16.11268616 C-5.98046877 16.0372248 -8.14565358 15.83368313 -11.06640625 13.71459961 C-13.265808 10.50486563 -13.10480227 8.32736592 -12.5625 4.53125 C-9.28926198 -0.25041233 -5.35158296 -0.05429925 0 0 Z " fill="#000000" transform="translate(40.5625,219.46875)"/>
<path d="M0 0 C10.56 0 21.12 0 32 0 C30.51407093 8.91557443 27.07439531 14.92568789 20.0703125 20.69140625 C16.98587085 22.64100616 14.61783945 22.92462834 11 23 C4.97762127 15.45195199 1.38302355 9.68116484 0 0 Z " fill="#83A2E2" transform="translate(257,470)"/>
<path d="M0 0 C0 4.62 0 9.24 0 14 C-4.455 12.02 -4.455 12.02 -9 10 C-9.3125 6.75 -9.3125 6.75 -9 3 C-5.66712391 -0.70319566 -4.96584605 -1.24146151 0 0 Z " fill="#F7E662" transform="translate(193,204)"/>
</svg>
