<?xml version="1.0" encoding="UTF-8"?>
<svg version="1.1" xmlns="http://www.w3.org/2000/svg" width="310" height="333">
<path d="M0 0 C102.3 0 204.6 0 310 0 C310 109.89 310 219.78 310 333 C207.7 333 105.4 333 0 333 C0 223.11 0 113.22 0 0 Z " fill="#FEFEFE" transform="translate(0,0)"/>
<path d="M0 0 C1.18335938 0.57041016 1.18335938 0.57041016 2.390625 1.15234375 C22.90450077 11.80377925 37.06940546 31.15750567 44.8125 52.5625 C45.24198968 54.03224715 45.63379808 55.51322019 46 57 C46.27585938 58.10472656 46.55171875 59.20945312 46.8359375 60.34765625 C52.06962766 83.56315343 48.9834333 109.71762583 36.41552734 130.17993164 C34.40600355 133.40515436 34.40600355 133.40515436 34.421875 137.05859375 C36.66272604 139.81528427 39.1302967 142.29265089 41.6875 144.75 C45.76755947 148.74278547 49.65674967 152.79093893 53.359375 157.140625 C55.16147789 159.18300828 57.05938947 161.08901711 59 163 C62.12219091 166.0805617 65.02806713 169.26380967 67.87109375 172.6015625 C69.61440266 174.56558392 71.39287097 176.45408302 73.22265625 178.3359375 C73.80184814 178.93841309 74.38104004 179.54088867 74.9777832 180.16162109 C76.1319648 181.35889171 77.29547745 182.54725879 78.46948242 183.72509766 C83.2840669 188.75256461 85.50191605 193.51341234 86.5 200.5 C85.65854437 206.39018942 82.48336641 210.8342091 78.25 214.9375 C74.13745105 217.54738684 70.82928327 218.16127477 66 218 C59.28172709 216.32043177 55.14620793 211.13982357 50.8203125 206.07421875 C49.11405175 204.12996026 47.34703515 202.30976314 45.5 200.5 C43.06610268 198.10946833 40.78644441 195.64953738 38.5625 193.0625 C36.14382221 190.25423653 33.64100317 187.60029407 31 185 C27.82074588 181.86337956 24.85304838 178.6149994 21.94140625 175.23046875 C18.04106971 170.749398 14.00682836 166.38574371 10 162 C3.88357398 163.89717899 -1.90056855 166.48966627 -7.74804688 169.078125 C-25.31709648 176.65415926 -46.15708132 176.28253672 -63.92578125 169.23632812 C-71.87251686 165.80590499 -79.18786787 161.32669275 -86 156 C-86.74636719 155.41863281 -87.49273437 154.83726562 -88.26171875 154.23828125 C-94.93681304 148.68152736 -99.98675846 142.02197189 -105 135 C-105.5671875 134.23429688 -106.134375 133.46859375 -106.71875 132.6796875 C-110.52162549 127.03605845 -112.63607109 120.83752137 -114.8125 114.4375 C-115.26629028 113.1071875 -115.26629028 113.1071875 -115.72924805 111.75 C-123.02776422 89.25059487 -120.89315139 60.3229453 -110.17578125 39.2890625 C-106.20510932 31.91835413 -101.43349287 25.36396416 -96 19 C-95.54496094 18.38898438 -95.08992188 17.77796875 -94.62109375 17.1484375 C-84.22791498 3.55974406 -63.96990928 -5.07017183 -47.53125 -7.61328125 C-30.85702176 -9.43933058 -15.22209772 -7.3690791 0 0 Z " fill="#FBCF1C" transform="translate(169,52)"/>
<path d="M0 0 C0.62390625 0.49886719 1.2478125 0.99773437 1.890625 1.51171875 C11.93973309 10.4970699 16.30187615 23.2105881 19 36 C19.19078125 36.83660156 19.3815625 37.67320313 19.578125 38.53515625 C22.35923597 54.78405458 17.33744549 71.04455143 8.3046875 84.53125 C0.25569795 95.35948706 -10.33822099 101.50997387 -23 106 C-40.78508988 108.0763521 -55.71264877 105.07613784 -70.15234375 94.41015625 C-80.06416976 86.32469357 -87.71734279 73.65837181 -90 61 C-91.0171116 47.74832827 -91.81945123 33.25147626 -86 21 C-85.649375 20.21625 -85.29875 19.4325 -84.9375 18.625 C-79.70744794 8.16489587 -71.92133537 0.04478711 -62 -6 C-61.16339844 -6.52335937 -60.32679687 -7.04671875 -59.46484375 -7.5859375 C-40.57836739 -18.42096831 -16.14009142 -13.13528717 0 0 Z " fill="#52C9EF" transform="translate(169,88)"/>
<path d="M0 0 C1.18335938 0.57041016 1.18335938 0.57041016 2.390625 1.15234375 C22.90450077 11.80377925 37.06940546 31.15750567 44.8125 52.5625 C45.24198968 54.03224715 45.63379808 55.51322019 46 57 C46.27585938 58.10472656 46.55171875 59.20945312 46.8359375 60.34765625 C52.06962766 83.56315343 48.9834333 109.71762583 36.41552734 130.17993164 C34.40600355 133.40515436 34.40600355 133.40515436 34.421875 137.05859375 C36.66272604 139.81528427 39.1302967 142.29265089 41.6875 144.75 C45.76755947 148.74278547 49.65674967 152.79093893 53.359375 157.140625 C55.16147789 159.18300828 57.05938947 161.08901711 59 163 C62.12219091 166.0805617 65.02806713 169.26380967 67.87109375 172.6015625 C69.61440266 174.56558392 71.39287097 176.45408302 73.22265625 178.3359375 C73.80184814 178.93841309 74.38104004 179.54088867 74.9777832 180.16162109 C76.1319648 181.35889171 77.29547745 182.54725879 78.46948242 183.72509766 C83.2840669 188.75256461 85.50191605 193.51341234 86.5 200.5 C85.65854437 206.39018942 82.48336641 210.8342091 78.25 214.9375 C74.13745105 217.54738684 70.82928327 218.16127477 66 218 C59.28172709 216.32043177 55.14620793 211.13982357 50.8203125 206.07421875 C49.11405175 204.12996026 47.34703515 202.30976314 45.5 200.5 C43.06610268 198.10946833 40.78644441 195.64953738 38.5625 193.0625 C36.14382221 190.25423653 33.64100317 187.60029407 31 185 C27.82074588 181.86337956 24.85304838 178.6149994 21.94140625 175.23046875 C18.04106971 170.749398 14.00682836 166.38574371 10 162 C3.88357398 163.89717899 -1.90056855 166.48966627 -7.74804688 169.078125 C-25.31709648 176.65415926 -46.15708132 176.28253672 -63.92578125 169.23632812 C-71.87251686 165.80590499 -79.18786787 161.32669275 -86 156 C-86.74636719 155.41863281 -87.49273437 154.83726562 -88.26171875 154.23828125 C-94.93681304 148.68152736 -99.98675846 142.02197189 -105 135 C-105.5671875 134.23429688 -106.134375 133.46859375 -106.71875 132.6796875 C-110.52162549 127.03605845 -112.63607109 120.83752137 -114.8125 114.4375 C-115.26629028 113.1071875 -115.26629028 113.1071875 -115.72924805 111.75 C-123.02776422 89.25059487 -120.89315139 60.3229453 -110.17578125 39.2890625 C-106.20510932 31.91835413 -101.43349287 25.36396416 -96 19 C-95.54496094 18.38898438 -95.08992188 17.77796875 -94.62109375 17.1484375 C-84.22791498 3.55974406 -63.96990928 -5.07017183 -47.53125 -7.61328125 C-30.85702176 -9.43933058 -15.22209772 -7.3690791 0 0 Z M-92.625 23.6875 C-100.66163 32.97364138 -106.30871667 43.31093612 -110 55 C-110.3196875 55.99515625 -110.639375 56.9903125 -110.96875 58.015625 C-117.10276234 81.07496768 -113.37222577 106.23839808 -102 127 C-90.17748952 147.34264373 -73.7844425 160.30728774 -51.12426758 166.35620117 C-35.34021122 169.60872572 -18.30548241 168.43950631 -4 161 C-2.82308594 160.43539062 -1.64617187 159.87078125 -0.43359375 159.2890625 C20.06340932 148.9822646 32.39833166 129.53439102 39.93359375 108.37890625 C46.71315266 87.5860964 42.98938322 62.49645451 34 43 C29.38936903 34.333628 23.91365054 26.94850928 17 20 C16.26394531 19.22914062 15.52789062 18.45828125 14.76953125 17.6640625 C1.72082598 4.85578564 -18.02060876 -2.05008025 -36.1875 -2.1875 C-57.81510762 -1.89602281 -77.90717778 8.13802001 -92.625 23.6875 Z " fill="#572708" transform="translate(169,52)"/>
<path d="M0 0 C0.98137939 0.00563965 1.96275879 0.0112793 2.97387695 0.01708984 C19.60533589 0.29642423 32.1710387 6.98617914 44.25 18.3125 C57.98683012 32.78608053 62.6212212 50.05336873 62.390625 69.51953125 C61.81104606 85.15206329 56.02044507 99.13144293 46.25 111.3125 C45.68023437 112.07949219 45.11046875 112.84648437 44.5234375 113.63671875 C36.74474284 123.3849127 24.99935548 128.78769336 13.25 132.3125 C12.35667969 132.60060547 12.35667969 132.60060547 11.4453125 132.89453125 C-4.23450298 135.8798342 -19.57916692 131.936645 -32.75 123.3125 C-45.75820559 113.24860693 -51.72815833 101.20956628 -57.75 86.3125 C-58.13800781 85.3534375 -58.52601562 84.394375 -58.92578125 83.40625 C-64.29887431 67.31243572 -60.9933459 48.44743736 -53.6875 33.625 C-44.84600134 18.2468378 -31.24989936 7.06833599 -14.58984375 1.19921875 C-9.67118187 0.06337313 -5.03184887 -0.02995912 0 0 Z M-23.75 12.3125 C-24.64589844 12.8075 -25.54179688 13.3025 -26.46484375 13.8125 C-39.74944867 21.68485847 -48.26381544 34.06339889 -52.80078125 48.703125 C-56.28231832 63.04021959 -55.69731339 81.18776019 -48.75 94.3125 C-48.29238281 95.21484375 -47.83476563 96.1171875 -47.36328125 97.046875 C-39.47473722 111.3110916 -28.14848134 119.47446363 -12.75 124.3125 C-11.76 124.6425 -10.77 124.9725 -9.75 125.3125 C7.19476521 127.04405437 20.51277072 124.93376343 34.375 114.8125 C47.45835196 103.61593125 54.92618208 87.9919518 56.578125 70.921875 C57.16940317 52.42331499 50.5564903 34.10410516 37.9375 20.5625 C21.78603444 5.27436445 -4.18994902 1.42690641 -23.75 12.3125 Z " fill="#552607" transform="translate(132.75,68.6875)"/>
<path d="M0 0 C0.71414062 0.71542969 1.42828125 1.43085938 2.1640625 2.16796875 C3.98554339 3.99009056 5.81444996 5.80363867 7.6484375 7.61328125 C12.40860056 12.32570629 17.03917733 17.07446488 21.390625 22.171875 C23.56371785 24.64033969 25.90472369 26.91535363 28.25 29.21875 C30.7058327 31.71843685 32.96259316 34.37482873 35.24609375 37.03125 C36.94847933 38.94216834 38.72330947 40.72144212 40.5625 42.5 C45.15138828 47.05781229 49.27983433 51.34438908 51 57.6875 C51 62.97462113 49.95628519 65.02198106 46.25 68.8125 C43 71 43 71 40.125 71.75 C33.02277912 70.04546699 28.48098421 63.43745295 23.8762207 58.13232422 C20.85412041 54.69770821 17.70901346 51.38283216 14.5625 48.0625 C13.88018311 47.33957764 13.19786621 46.61665527 12.49487305 45.87182617 C9.59363207 42.79810946 6.68888098 39.72772537 3.78320312 36.65820312 C1.62493593 34.37758951 -0.53130509 32.09507266 -2.6875 29.8125 C-3.34613037 29.11842041 -4.00476074 28.42434082 -4.68334961 27.70922852 C-8.26934899 23.91209735 -11.70417541 20.05203674 -15 16 C-14.33613281 15.34773437 -13.67226562 14.69546875 -12.98828125 14.0234375 C-8.42649537 9.50826841 -3.97889622 5.03993521 0 0 Z " fill="#8C4932" transform="translate(198,193)"/>
<path d="M0 0 C8.12128246 3.27974869 13.87693046 8.93275087 20 15 C21.12148437 16.10214844 21.12148437 16.10214844 22.265625 17.2265625 C39.56002151 35.40610528 44.06500453 59.77188195 44 84 C42.87034325 104.29198242 33.32376131 123.81666772 19 138 C17.700625 139.36125 17.700625 139.36125 16.375 140.75 C10.80612164 146.0257795 5.64749036 150.06952429 -1.375 153.25 C-2.07882813 153.58773437 -2.78265625 153.92546875 -3.5078125 154.2734375 C-8.55885187 156.61461268 -13.53042788 157.99620283 -19 159 C-16.99969147 156.83349373 -15.88192895 155.95226915 -13.0625 154.8125 C7.75432672 146.36254074 20.64711113 128.28826406 29.07666016 108.35986328 C31.2850135 102.7157746 32.74650992 96.92423286 34 91 C34.1743457 90.24178955 34.34869141 89.4835791 34.52832031 88.70239258 C35.48546225 83.21864302 35.2276019 77.61442855 35.25 72.0625 C35.270625 70.81919922 35.29125 69.57589844 35.3125 68.29492188 C35.34908605 59.49140269 34.14527607 51.5241622 32 43 C31.78778809 42.07219727 31.57557617 41.14439453 31.35693359 40.18847656 C27.53566932 23.95067376 12.95212642 11.39664074 0 2 C0 1.34 0 0.68 0 0 Z " fill="#F8C400" transform="translate(168,59)"/>
<path d="M0 0 C0.44443004 5.36381081 0.44443004 5.36381081 -1.5390625 8.203125 C-2.22742188 8.87859375 -2.91578125 9.5540625 -3.625 10.25 C-10.49392617 17.51941127 -14.32475051 24.99158816 -17.23828125 34.53125 C-18 37 -18 37 -19 39 C-20.65 38.67 -22.3 38.34 -24 38 C-22.55718351 25.36291764 -17.47362934 16.29030043 -9.3125 6.75 C-8.74168701 6.08129883 -8.17087402 5.41259766 -7.58276367 4.72363281 C-3.38432262 0 -3.38432262 0 0 0 Z " fill="#89E2F9" transform="translate(111,91)"/>
<path d="M0 0 C2.64752004 2.57784846 4.94432065 4.91648098 7 8 C4.87562828 10.29224977 2.75039481 12.58369884 0.625 14.875 C0.02171875 15.52597656 -0.5815625 16.17695313 -1.203125 16.84765625 C-1.78320312 17.47285156 -2.36328125 18.09804687 -2.9609375 18.7421875 C-3.76217041 19.60626221 -3.76217041 19.60626221 -4.57958984 20.48779297 C-5.69840867 21.67891773 -6.84446251 22.84446251 -8 24 C-10.31 21.69 -12.62 19.38 -15 17 C-10.10995345 11.23225279 -5.07515796 5.60523001 0 0 Z " fill="#7F3929" transform="translate(198,193)"/>
</svg>
