<?xml version="1.0" standalone="no"?>
<!DOCTYPE svg PUBLIC "-//W3C//DTD SVG 20010904//EN"
 "http://www.w3.org/TR/2001/REC-SVG-20010904/DTD/svg10.dtd">
<svg version="1.0" xmlns="http://www.w3.org/2000/svg"
 width="1251.000000pt" height="533.000000pt" viewBox="0 0 1251.000000 533.000000"
 preserveAspectRatio="xMidYMid meet">

<g transform="translate(0.000000,533.000000) scale(0.100000,-0.100000)"
fill="#000000" stroke="none">
<path d="M5282 4685 l-73 -85 -170 0 -169 0 0 -1125 0 -1125 760 0 759 0 73
85 73 85 168 0 167 0 -2 1123 -3 1122 -755 2 -755 2 -73 -84z m1558 -1045 l0
-1090 -160 0 -159 0 -73 -85 -73 -84 -735 2 -735 2 0 1090 0 1090 161 5 161 5
67 78 68 77 739 0 739 0 0 -1090z"/>
<path d="M5860 4120 c0 -240 4 -370 10 -370 6 0 10 130 10 370 0 240 -4 370
-10 370 -6 0 -10 -130 -10 -370z"/>
<path d="M6102 4003 c2 -186 6 -247 16 -251 9 -3 12 51 12 247 0 218 -2 251
-15 251 -13 0 -15 -32 -13 -247z"/>
<path d="M5610 3994 c0 -192 3 -245 13 -242 9 4 13 63 15 240 2 203 0 237 -13
242 -13 5 -15 -25 -15 -240z"/>
<path d="M6360 3884 c0 -104 3 -135 13 -132 8 3 13 41 15 130 2 105 0 127 -13
132 -13 5 -15 -13 -15 -130z"/>
<path d="M5352 3823 c2 -42 8 -68 16 -71 9 -3 12 15 12 67 0 57 -3 71 -15 71
-13 0 -15 -12 -13 -67z"/>
<path d="M5505 3404 c-102 -124 -96 -121 -137 -85 l-35 30 -41 -42 c-23 -24
-42 -47 -42 -53 0 -5 37 -47 83 -92 l83 -82 124 150 c69 83 127 155 128 161 5
13 -12 33 -57 69 l-37 28 -69 -84z m103 20 c12 -8 22 -19 22 -25 0 -10 -195
-255 -212 -265 -6 -4 -37 21 -71 54 -60 60 -60 61 -43 86 21 34 33 33 72 -5
l31 -31 83 101 c45 56 85 101 89 101 4 0 17 -7 29 -16z"/>
<path d="M5867 3363 c-4 -3 -7 -10 -7 -15 0 -4 155 -8 345 -8 300 0 345 2 345
15 0 13 -44 15 -338 15 -186 0 -342 -3 -345 -7z"/>
<path d="M5873 3233 c-46 -18 21 -23 333 -23 272 0 345 3 342 13 -4 9 -81 12
-334 14 -181 1 -335 -1 -341 -4z"/>
<path d="M5505 2924 c-102 -124 -96 -121 -137 -85 l-35 30 -41 -42 c-23 -24
-42 -47 -42 -53 0 -5 37 -47 83 -92 l83 -83 125 151 c68 83 126 156 127 161 5
12 -12 33 -57 69 l-37 28 -69 -84z m104 17 c13 -10 22 -23 20 -29 -2 -6 -50
-68 -107 -137 -116 -141 -106 -138 -186 -56 -49 49 -49 50 -32 75 21 34 36 33
71 -4 15 -16 32 -27 36 -24 5 3 43 47 85 99 41 52 79 95 82 95 4 0 18 -9 31
-19z"/>
<path d="M5860 2875 c0 -13 45 -15 345 -15 300 0 345 2 345 15 0 13 -45 15
-345 15 -300 0 -345 -2 -345 -15z"/>
<path d="M5864 2749 c-3 -6 0 -15 7 -20 8 -5 162 -8 344 -6 305 2 330 3 333
20 3 16 -18 17 -337 17 -238 0 -342 -3 -347 -11z"/>
<path d="M5155 2050 c-73 -16 -115 -66 -115 -138 0 -151 184 -208 267 -83 69
103 -30 247 -152 221z m109 -50 c58 -51 57 -127 -2 -182 -53 -50 -128 -44
-177 13 -27 33 -34 93 -14 132 36 73 131 91 193 37z"/>
<path d="M820 1401 l0 -588 53 -7 c28 -3 91 -6 140 -6 l87 0 0 195 0 195 78 0
77 0 155 -196 155 -196 147 4 c80 1 150 6 153 10 4 4 -42 69 -101 145 -157
198 -207 264 -203 267 2 1 25 14 50 29 26 14 69 51 97 82 109 119 130 290 55
438 -30 61 -106 138 -163 167 -92 47 -117 50 -457 50 l-323 0 0 -589z m703
550 c101 -33 172 -95 225 -194 25 -48 27 -61 27 -162 0 -106 -1 -112 -34 -173
-40 -73 -89 -121 -163 -158 -29 -14 -55 -28 -56 -30 -4 -3 21 -36 183 -238 61
-76 114 -144 118 -152 7 -12 -13 -14 -121 -14 l-129 0 -154 195 -154 194 -92
1 -93 0 0 -195 0 -195 -120 0 -120 0 0 570 0 570 313 0 c280 0 320 -2 370 -19z"/>
<path d="M1080 1595 l0 -175 174 0 c163 0 175 1 207 23 46 31 77 80 85 135 6
40 3 54 -22 101 -45 85 -64 91 -271 91 l-173 0 0 -175z m360 136 c44 -23 69
-57 81 -111 8 -37 6 -49 -13 -89 -13 -25 -38 -56 -57 -68 -32 -21 -45 -23
-192 -23 l-159 0 0 155 0 155 153 0 c129 0 158 -3 187 -19z"/>
<path d="M2630 1681 c-184 -59 -294 -189 -321 -379 -26 -182 83 -387 245 -463
230 -108 469 -34 600 185 20 33 36 66 36 73 0 10 -30 13 -135 13 l-134 0 -46
-32 c-56 -40 -142 -50 -196 -23 -36 18 -99 73 -99 87 0 4 141 9 312 10 l313 3
7 50 c9 62 -12 170 -47 242 -96 194 -334 299 -535 234z m243 -16 c111 -33 219
-121 268 -216 36 -72 60 -218 43 -263 -5 -14 -43 -16 -325 -16 -175 0 -319 -2
-319 -5 0 -15 31 -63 57 -87 75 -71 221 -80 299 -19 23 18 41 21 140 21 63 0
114 -3 114 -7 0 -5 -14 -32 -30 -60 -55 -95 -180 -175 -303 -192 -283 -39
-534 214 -487 493 27 164 155 307 314 350 68 19 170 19 229 1z"/>
<path d="M2670 1464 c-45 -19 -97 -69 -121 -116 l-19 -38 225 0 c124 0 225 2
225 5 0 20 -45 88 -75 113 -63 51 -164 67 -235 36z m186 -37 c18 -9 44 -31 59
-49 l28 -33 -54 -6 c-30 -3 -113 -4 -186 -1 l-132 5 19 28 c57 79 175 103 266
56z"/>
<path d="M4010 1686 c-242 -68 -387 -312 -325 -549 55 -211 232 -347 451 -347
110 0 228 52 309 134 49 51 97 133 111 189 l6 27 -130 0 c-127 0 -130 -1 -146
-25 -9 -13 -36 -36 -61 -50 -91 -54 -206 -27 -270 63 -27 40 -30 51 -30 122 0
72 2 81 31 117 69 86 181 110 269 58 25 -14 52 -37 61 -50 16 -24 19 -25 145
-25 150 0 148 -2 98 99 -94 188 -322 292 -519 237z m241 -26 c112 -35 205
-113 258 -217 11 -23 21 -47 21 -53 0 -6 -40 -10 -110 -10 -103 0 -110 1 -125
23 -29 45 -93 72 -171 72 -61 0 -77 -4 -119 -30 -31 -19 -61 -49 -80 -80 -26
-42 -30 -58 -30 -119 0 -57 5 -78 24 -109 49 -79 117 -118 205 -118 66 0 112
18 164 65 l40 37 106 -3 106 -3 -24 -52 c-67 -144 -228 -245 -391 -245 -127 0
-236 50 -325 149 -59 65 -87 123 -102 211 -53 312 250 577 553 482z"/>
<path d="M5103 1693 l-43 -4 0 -440 0 -439 126 0 126 0 -4 442 -3 443 -80 1
c-44 0 -99 -1 -122 -3z m177 -443 l0 -420 -100 0 -100 0 0 420 0 420 100 0
100 0 0 -420z"/>
<path d="M6160 1681 c-150 -48 -248 -141 -302 -289 -21 -54 -22 -78 -26 -469
l-4 -413 126 0 126 0 0 164 0 164 53 -20 c28 -11 86 -22 127 -25 364 -26 605
374 415 687 -107 176 -327 262 -515 201z m249 -20 c33 -10 80 -30 104 -45 48
-28 129 -112 153 -159 42 -81 61 -197 45 -282 -39 -212 -211 -356 -427 -357
-78 0 -103 6 -221 59 -10 4 -13 -34 -13 -171 l0 -176 -100 0 -100 0 0 358 c0
196 5 385 10 420 37 257 304 429 549 353z"/>
<path d="M6195 1461 c-156 -73 -187 -294 -53 -391 57 -42 83 -51 143 -52 123
-1 219 88 232 217 6 57 -19 129 -60 174 -59 64 -183 89 -262 52z m172 -22 c44
-16 101 -79 118 -130 30 -90 4 -167 -78 -233 -36 -29 -45 -31 -116 -31 -67 0
-83 4 -118 27 -51 34 -93 113 -93 177 0 142 149 241 287 190z"/>
<path d="M7530 1681 c-133 -43 -229 -123 -281 -236 -125 -266 15 -566 298
-640 210 -55 415 43 519 247 13 26 24 50 24 53 0 3 -61 5 -135 5 -134 0 -135
0 -178 -31 -33 -23 -58 -32 -103 -36 -72 -6 -114 10 -167 64 l-39 38 313 3
c235 2 315 5 321 15 12 19 9 137 -6 192 -43 161 -160 281 -323 330 -64 20
-176 18 -243 -4z m235 -15 c28 -7 70 -23 95 -36 60 -31 151 -124 179 -184 31
-68 54 -181 46 -233 l-6 -43 -320 0 c-175 0 -319 -2 -319 -5 0 -19 35 -68 71
-98 70 -60 204 -65 276 -11 29 22 40 24 147 24 64 0 116 -4 116 -8 0 -18 -63
-106 -103 -142 -23 -22 -69 -53 -103 -70 -256 -126 -569 38 -616 324 -35 209
106 424 314 480 68 19 159 19 223 2z"/>
<path d="M7550 1453 c-38 -20 -65 -43 -87 -77 -18 -27 -33 -52 -33 -57 0 -5
101 -9 225 -9 124 0 225 4 225 9 0 5 -15 31 -32 57 -42 63 -100 95 -181 101
-54 4 -69 1 -117 -24z m202 -24 c20 -10 48 -33 62 -51 l26 -33 -54 -6 c-30 -3
-113 -3 -185 0 l-131 6 26 33 c60 76 164 97 256 51z"/>
<path d="M8911 1684 c-197 -53 -331 -231 -331 -439 0 -127 38 -219 132 -321
107 -116 314 -165 468 -111 24 9 46 14 48 12 2 -2 -6 -20 -18 -40 -39 -64
-114 -105 -189 -105 -37 0 -125 44 -150 74 -11 13 -37 16 -147 16 l-134 0 17
-42 c43 -111 126 -202 227 -249 255 -118 543 9 633 280 21 63 30 449 13 551
-46 273 -307 445 -569 374z m224 -18 c157 -41 271 -154 310 -306 21 -83 21
-515 0 -587 -75 -251 -357 -383 -589 -275 -82 38 -176 126 -211 196 l-26 51
111 3 111 3 39 -34 c127 -109 316 -55 371 105 9 29 16 54 15 56 -2 1 -27 -9
-57 -22 -232 -106 -508 16 -589 259 -33 98 -26 216 17 307 91 193 302 297 498
244z"/>
<path d="M8951 1469 c-46 -14 -127 -97 -140 -145 -45 -160 60 -304 220 -306
59 0 84 8 136 43 136 94 119 319 -31 396 -37 19 -140 26 -185 12z m198 -52
c62 -41 86 -89 86 -172 0 -62 -4 -75 -30 -111 -44 -62 -87 -87 -155 -92 -74
-5 -118 9 -164 55 -44 44 -71 124 -61 182 25 148 198 221 324 138z"/>
<path d="M10290 1681 c-203 -65 -321 -223 -323 -431 -1 -104 19 -169 79 -260
73 -111 173 -174 311 -193 323 -47 590 265 495 578 -73 238 -333 380 -562 306z
m241 -17 c179 -53 287 -182 313 -375 25 -181 -100 -381 -278 -446 -307 -111
-629 152 -576 471 41 252 302 421 541 350z"/>
<path d="M10330 1464 c-71 -31 -130 -107 -144 -187 -10 -52 17 -138 55 -181
108 -123 315 -95 385 52 44 92 20 210 -57 276 -65 55 -165 72 -239 40z m167
-25 c68 -25 133 -125 133 -203 -1 -68 -70 -161 -138 -187 -65 -25 -169 -4
-219 42 -12 12 -31 44 -43 72 -75 173 88 342 267 276z"/>
</g>
</svg>
